G04 EAGLE Gerber RS-274X export*
G75*
%MOMM*%
%FSLAX34Y34*%
%LPD*%
%INTop Copper*%
%IPPOS*%
%AMOC8*
5,1,8,0,0,1.08239X$1,22.5*%
G01*
%ADD10R,1.500000X0.635000*%
%ADD11R,0.635000X1.500000*%
%ADD12C,0.504000*%
%ADD13R,1.200000X1.200000*%
%ADD14R,0.600000X1.475000*%
%ADD15R,1.475000X0.600000*%
%ADD16C,0.443700*%
%ADD17C,1.308000*%
%ADD18R,1.600000X2.300000*%
%ADD19R,2.000000X3.500000*%
%ADD20C,1.530000*%
%ADD21R,1.525000X0.700000*%
%ADD22R,2.513000X3.402000*%
%ADD23P,3.409096X8X22.500000*%
%ADD24R,1.700000X2.400000*%
%ADD25R,1.500000X1.800000*%
%ADD26R,1.400000X0.400000*%
%ADD27C,0.600000*%
%ADD28R,1.000000X3.000000*%
%ADD29R,0.800000X0.900000*%
%ADD30C,0.609600*%
%ADD31C,0.656400*%
%ADD32C,0.508000*%
%ADD33C,0.756400*%

G36*
X231336Y544675D02*
X231336Y544675D01*
X231516Y544682D01*
X231581Y544695D01*
X231648Y544701D01*
X231823Y544744D01*
X232000Y544780D01*
X232062Y544803D01*
X232126Y544819D01*
X232292Y544891D01*
X232461Y544954D01*
X232519Y544988D01*
X232580Y545014D01*
X232732Y545111D01*
X232888Y545201D01*
X232940Y545243D01*
X232996Y545279D01*
X233130Y545399D01*
X233270Y545514D01*
X233314Y545563D01*
X233364Y545608D01*
X233477Y545748D01*
X233597Y545883D01*
X233632Y545940D01*
X233674Y545992D01*
X233763Y546148D01*
X233859Y546301D01*
X233885Y546363D01*
X233918Y546420D01*
X233980Y546589D01*
X234051Y546756D01*
X234066Y546821D01*
X234089Y546883D01*
X234124Y547060D01*
X234166Y547235D01*
X234171Y547302D01*
X234184Y547367D01*
X234190Y547547D01*
X234203Y547727D01*
X234197Y547794D01*
X234199Y547860D01*
X234176Y548039D01*
X234160Y548219D01*
X234145Y548270D01*
X234135Y548349D01*
X233999Y548799D01*
X233999Y551194D01*
X234913Y553399D01*
X236601Y555087D01*
X238806Y556001D01*
X241194Y556001D01*
X243399Y555087D01*
X245087Y553399D01*
X246001Y551194D01*
X246001Y548787D01*
X245973Y548702D01*
X245911Y548533D01*
X245898Y548468D01*
X245878Y548405D01*
X245851Y548226D01*
X245816Y548049D01*
X245814Y547983D01*
X245804Y547917D01*
X245806Y547736D01*
X245801Y547556D01*
X245809Y547490D01*
X245810Y547423D01*
X245841Y547246D01*
X245865Y547067D01*
X245884Y547003D01*
X245896Y546938D01*
X245955Y546767D01*
X246008Y546594D01*
X246037Y546535D01*
X246059Y546472D01*
X246145Y546314D01*
X246224Y546151D01*
X246263Y546097D01*
X246295Y546039D01*
X246406Y545896D01*
X246510Y545749D01*
X246557Y545702D01*
X246597Y545649D01*
X246730Y545526D01*
X246857Y545398D01*
X246910Y545359D01*
X246959Y545314D01*
X247110Y545214D01*
X247255Y545108D01*
X247315Y545078D01*
X247370Y545041D01*
X247535Y544967D01*
X247696Y544885D01*
X247759Y544865D01*
X247820Y544838D01*
X247994Y544791D01*
X248166Y544737D01*
X248219Y544731D01*
X248296Y544710D01*
X248787Y544661D01*
X248821Y544663D01*
X248844Y544661D01*
X529092Y544661D01*
X529168Y544667D01*
X529244Y544665D01*
X529413Y544687D01*
X529584Y544701D01*
X529658Y544719D01*
X529733Y544729D01*
X529897Y544778D01*
X530063Y544819D01*
X530132Y544849D01*
X530206Y544871D01*
X530359Y544947D01*
X530516Y545014D01*
X530580Y545055D01*
X530649Y545088D01*
X530788Y545187D01*
X530932Y545279D01*
X530989Y545330D01*
X531051Y545374D01*
X531172Y545494D01*
X531300Y545608D01*
X531348Y545667D01*
X531402Y545721D01*
X531503Y545859D01*
X531610Y545992D01*
X531647Y546058D01*
X531692Y546119D01*
X531769Y546272D01*
X531854Y546420D01*
X531880Y546492D01*
X531915Y546560D01*
X531966Y546723D01*
X532025Y546883D01*
X532040Y546958D01*
X532063Y547030D01*
X532075Y547135D01*
X532120Y547367D01*
X532127Y547603D01*
X532139Y547708D01*
X532139Y794292D01*
X532133Y794368D01*
X532135Y794444D01*
X532113Y794613D01*
X532099Y794784D01*
X532081Y794858D01*
X532071Y794933D01*
X532022Y795097D01*
X531981Y795263D01*
X531951Y795332D01*
X531929Y795406D01*
X531853Y795559D01*
X531786Y795716D01*
X531745Y795780D01*
X531712Y795849D01*
X531613Y795988D01*
X531521Y796132D01*
X531470Y796189D01*
X531426Y796251D01*
X531306Y796372D01*
X531192Y796500D01*
X531133Y796548D01*
X531079Y796602D01*
X530941Y796703D01*
X530808Y796810D01*
X530742Y796847D01*
X530681Y796892D01*
X530528Y796969D01*
X530380Y797054D01*
X530308Y797080D01*
X530240Y797115D01*
X530077Y797166D01*
X529917Y797225D01*
X529842Y797240D01*
X529770Y797263D01*
X529665Y797275D01*
X529433Y797320D01*
X529213Y797327D01*
X523979Y799495D01*
X519995Y803479D01*
X517839Y808683D01*
X517839Y814317D01*
X519995Y819521D01*
X523979Y823505D01*
X529196Y825666D01*
X529244Y825665D01*
X529413Y825687D01*
X529584Y825701D01*
X529658Y825719D01*
X529733Y825729D01*
X529897Y825778D01*
X530063Y825819D01*
X530132Y825849D01*
X530206Y825871D01*
X530359Y825947D01*
X530516Y826014D01*
X530580Y826055D01*
X530649Y826088D01*
X530788Y826187D01*
X530932Y826279D01*
X530989Y826330D01*
X531051Y826374D01*
X531172Y826494D01*
X531300Y826608D01*
X531348Y826667D01*
X531402Y826721D01*
X531503Y826859D01*
X531610Y826992D01*
X531647Y827058D01*
X531692Y827119D01*
X531769Y827272D01*
X531854Y827420D01*
X531880Y827492D01*
X531915Y827560D01*
X531966Y827723D01*
X532025Y827883D01*
X532040Y827958D01*
X532063Y828030D01*
X532075Y828135D01*
X532120Y828367D01*
X532127Y828603D01*
X532139Y828708D01*
X532139Y914000D01*
X532133Y914076D01*
X532135Y914152D01*
X532113Y914321D01*
X532099Y914492D01*
X532081Y914566D01*
X532071Y914641D01*
X532022Y914805D01*
X531981Y914971D01*
X531951Y915040D01*
X531929Y915114D01*
X531853Y915267D01*
X531786Y915424D01*
X531745Y915488D01*
X531712Y915557D01*
X531613Y915696D01*
X531521Y915840D01*
X531470Y915897D01*
X531426Y915959D01*
X531306Y916080D01*
X531192Y916208D01*
X531133Y916256D01*
X531079Y916310D01*
X530941Y916411D01*
X530808Y916518D01*
X530742Y916555D01*
X530681Y916600D01*
X530528Y916677D01*
X530380Y916762D01*
X530308Y916788D01*
X530240Y916823D01*
X530077Y916874D01*
X529917Y916933D01*
X529842Y916948D01*
X529770Y916971D01*
X529665Y916983D01*
X529433Y917028D01*
X529197Y917035D01*
X529092Y917047D01*
X401876Y917047D01*
X401763Y917038D01*
X401648Y917039D01*
X401517Y917018D01*
X401385Y917007D01*
X401274Y916980D01*
X401161Y916962D01*
X401035Y916921D01*
X400906Y916889D01*
X400801Y916844D01*
X400692Y916808D01*
X400574Y916746D01*
X400452Y916694D01*
X400356Y916633D01*
X400255Y916580D01*
X400181Y916521D01*
X400036Y916429D01*
X399794Y916213D01*
X399722Y916155D01*
X385465Y901898D01*
X385391Y901811D01*
X385310Y901731D01*
X385232Y901624D01*
X385146Y901522D01*
X385087Y901425D01*
X385020Y901332D01*
X384960Y901214D01*
X384891Y901100D01*
X384849Y900994D01*
X384797Y900892D01*
X384757Y900765D01*
X384708Y900642D01*
X384683Y900531D01*
X384649Y900421D01*
X384639Y900328D01*
X384601Y900160D01*
X384583Y899836D01*
X384573Y899744D01*
X384573Y818056D01*
X384587Y817876D01*
X384594Y817696D01*
X384607Y817631D01*
X384613Y817565D01*
X384656Y817389D01*
X384692Y817213D01*
X384715Y817151D01*
X384731Y817086D01*
X384803Y816920D01*
X384866Y816751D01*
X384900Y816694D01*
X384926Y816633D01*
X385023Y816480D01*
X385113Y816324D01*
X385155Y816272D01*
X385191Y816216D01*
X385311Y816082D01*
X385426Y815942D01*
X385475Y815898D01*
X385520Y815849D01*
X385660Y815735D01*
X385795Y815616D01*
X385852Y815580D01*
X385904Y815539D01*
X386060Y815449D01*
X386213Y815353D01*
X386275Y815328D01*
X386332Y815295D01*
X386502Y815232D01*
X386668Y815162D01*
X386732Y815146D01*
X386795Y815123D01*
X386972Y815088D01*
X387147Y815046D01*
X387214Y815041D01*
X387279Y815028D01*
X387459Y815023D01*
X387639Y815009D01*
X387706Y815015D01*
X387772Y815013D01*
X387951Y815037D01*
X388131Y815052D01*
X388181Y815067D01*
X388261Y815077D01*
X388733Y815220D01*
X388764Y815235D01*
X388786Y815241D01*
X388944Y815307D01*
X391056Y815307D01*
X393006Y814499D01*
X394499Y813006D01*
X395307Y811056D01*
X395307Y808944D01*
X394499Y806994D01*
X393465Y805960D01*
X393391Y805873D01*
X393310Y805793D01*
X393232Y805686D01*
X393146Y805584D01*
X393087Y805487D01*
X393020Y805394D01*
X392960Y805276D01*
X392891Y805162D01*
X392849Y805056D01*
X392797Y804954D01*
X392757Y804827D01*
X392708Y804704D01*
X392683Y804592D01*
X392649Y804483D01*
X392639Y804390D01*
X392601Y804222D01*
X392583Y803898D01*
X392573Y803806D01*
X392573Y800000D01*
X392579Y799924D01*
X392577Y799848D01*
X392599Y799679D01*
X392613Y799508D01*
X392631Y799434D01*
X392641Y799359D01*
X392690Y799195D01*
X392731Y799029D01*
X392761Y798960D01*
X392783Y798886D01*
X392859Y798733D01*
X392926Y798576D01*
X392967Y798512D01*
X393000Y798443D01*
X393099Y798304D01*
X393191Y798160D01*
X393242Y798103D01*
X393286Y798041D01*
X393406Y797920D01*
X393520Y797792D01*
X393579Y797744D01*
X393633Y797690D01*
X393771Y797589D01*
X393904Y797482D01*
X393970Y797445D01*
X394031Y797400D01*
X394184Y797323D01*
X394332Y797238D01*
X394404Y797212D01*
X394472Y797177D01*
X394635Y797126D01*
X394795Y797067D01*
X394870Y797052D01*
X394942Y797029D01*
X395047Y797017D01*
X395279Y796972D01*
X395515Y796965D01*
X395620Y796953D01*
X418530Y796953D01*
X420210Y796257D01*
X433877Y782590D01*
X434573Y780910D01*
X434573Y774396D01*
X434576Y774358D01*
X434574Y774320D01*
X434596Y774112D01*
X434613Y773905D01*
X434622Y773868D01*
X434626Y773830D01*
X434681Y773628D01*
X434731Y773426D01*
X434746Y773391D01*
X434757Y773354D01*
X434844Y773164D01*
X434926Y772972D01*
X434946Y772940D01*
X434962Y772906D01*
X435079Y772732D01*
X435191Y772556D01*
X435216Y772528D01*
X435238Y772496D01*
X435381Y772344D01*
X435520Y772188D01*
X435549Y772164D01*
X435575Y772137D01*
X435741Y772009D01*
X435904Y771878D01*
X435937Y771860D01*
X435967Y771836D01*
X436151Y771738D01*
X436332Y771634D01*
X436368Y771621D01*
X436402Y771603D01*
X436599Y771536D01*
X436795Y771463D01*
X436832Y771456D01*
X436868Y771443D01*
X437075Y771408D01*
X437279Y771368D01*
X437317Y771367D01*
X437355Y771361D01*
X437564Y771359D01*
X437772Y771353D01*
X437810Y771358D01*
X437848Y771358D01*
X438055Y771390D01*
X438261Y771417D01*
X438298Y771428D01*
X438335Y771434D01*
X438534Y771499D01*
X438733Y771560D01*
X438768Y771577D01*
X438804Y771588D01*
X438989Y771685D01*
X439177Y771777D01*
X439208Y771799D01*
X439242Y771816D01*
X439314Y771874D01*
X439579Y772062D01*
X439701Y772183D01*
X439775Y772242D01*
X441838Y774305D01*
X463910Y796377D01*
X465590Y797073D01*
X478428Y797073D01*
X478504Y797079D01*
X478580Y797077D01*
X478749Y797099D01*
X478920Y797113D01*
X478994Y797131D01*
X479069Y797141D01*
X479233Y797190D01*
X479399Y797231D01*
X479468Y797261D01*
X479542Y797283D01*
X479695Y797359D01*
X479852Y797426D01*
X479916Y797467D01*
X479985Y797500D01*
X480124Y797599D01*
X480268Y797691D01*
X480325Y797742D01*
X480387Y797786D01*
X480508Y797906D01*
X480636Y798020D01*
X480684Y798079D01*
X480738Y798133D01*
X480839Y798271D01*
X480946Y798404D01*
X480983Y798470D01*
X481028Y798531D01*
X481105Y798684D01*
X481190Y798832D01*
X481216Y798904D01*
X481251Y798972D01*
X481302Y799135D01*
X481361Y799295D01*
X481376Y799370D01*
X481399Y799442D01*
X481411Y799547D01*
X481456Y799779D01*
X481463Y800015D01*
X481475Y800120D01*
X481475Y810632D01*
X482368Y811525D01*
X503632Y811525D01*
X504525Y810632D01*
X504525Y774368D01*
X503632Y773475D01*
X482368Y773475D01*
X481475Y774368D01*
X481475Y784880D01*
X481469Y784956D01*
X481471Y785032D01*
X481449Y785201D01*
X481435Y785372D01*
X481417Y785446D01*
X481407Y785521D01*
X481358Y785685D01*
X481317Y785851D01*
X481287Y785920D01*
X481265Y785994D01*
X481189Y786147D01*
X481122Y786304D01*
X481081Y786368D01*
X481048Y786437D01*
X480949Y786576D01*
X480857Y786720D01*
X480806Y786777D01*
X480762Y786839D01*
X480642Y786960D01*
X480528Y787088D01*
X480469Y787136D01*
X480415Y787190D01*
X480277Y787291D01*
X480144Y787398D01*
X480078Y787435D01*
X480017Y787480D01*
X479864Y787557D01*
X479716Y787642D01*
X479644Y787668D01*
X479576Y787703D01*
X479413Y787754D01*
X479253Y787813D01*
X479178Y787828D01*
X479106Y787851D01*
X479001Y787863D01*
X478769Y787908D01*
X478533Y787915D01*
X478428Y787927D01*
X469656Y787927D01*
X469543Y787918D01*
X469428Y787919D01*
X469297Y787898D01*
X469165Y787887D01*
X469054Y787860D01*
X468941Y787842D01*
X468815Y787801D01*
X468686Y787769D01*
X468581Y787724D01*
X468472Y787688D01*
X468354Y787626D01*
X468232Y787574D01*
X468136Y787513D01*
X468035Y787460D01*
X467961Y787401D01*
X467816Y787309D01*
X467574Y787093D01*
X467502Y787035D01*
X449716Y769249D01*
X449697Y769227D01*
X449678Y769210D01*
X449651Y769177D01*
X449611Y769139D01*
X449507Y769004D01*
X449397Y768874D01*
X449357Y768808D01*
X449311Y768748D01*
X449230Y768597D01*
X449142Y768451D01*
X449114Y768380D01*
X449078Y768313D01*
X449022Y768151D01*
X448959Y767993D01*
X448943Y767919D01*
X448918Y767846D01*
X448889Y767678D01*
X448852Y767511D01*
X448848Y767435D01*
X448835Y767360D01*
X448834Y767189D01*
X448825Y767019D01*
X448833Y766943D01*
X448832Y766867D01*
X448859Y766698D01*
X448877Y766528D01*
X448897Y766455D01*
X448909Y766379D01*
X448962Y766217D01*
X449008Y766052D01*
X449039Y765983D01*
X449063Y765911D01*
X449142Y765759D01*
X449213Y765604D01*
X449256Y765541D01*
X449291Y765473D01*
X449357Y765391D01*
X449489Y765195D01*
X449525Y765156D01*
X449525Y754868D01*
X448966Y754310D01*
X448917Y754252D01*
X448861Y754200D01*
X448757Y754064D01*
X448647Y753934D01*
X448608Y753869D01*
X448561Y753808D01*
X448480Y753658D01*
X448392Y753512D01*
X448364Y753441D01*
X448328Y753374D01*
X448272Y753212D01*
X448209Y753053D01*
X448193Y752979D01*
X448168Y752907D01*
X448139Y752738D01*
X448102Y752572D01*
X448098Y752496D01*
X448085Y752421D01*
X448084Y752250D01*
X448075Y752079D01*
X448083Y752003D01*
X448082Y751927D01*
X448109Y751758D01*
X448127Y751589D01*
X448147Y751515D01*
X448159Y751440D01*
X448212Y751278D01*
X448258Y751113D01*
X448289Y751044D01*
X448313Y750971D01*
X448392Y750820D01*
X448463Y750665D01*
X448506Y750601D01*
X448541Y750534D01*
X448607Y750451D01*
X448739Y750255D01*
X448901Y750083D01*
X448966Y750001D01*
X453050Y745917D01*
X453137Y745843D01*
X453217Y745762D01*
X453324Y745684D01*
X453426Y745598D01*
X453523Y745539D01*
X453616Y745472D01*
X453734Y745412D01*
X453848Y745343D01*
X453954Y745301D01*
X454056Y745249D01*
X454183Y745209D01*
X454306Y745160D01*
X454417Y745135D01*
X454527Y745101D01*
X454620Y745091D01*
X454788Y745053D01*
X455112Y745035D01*
X455204Y745025D01*
X458132Y745025D01*
X459025Y744132D01*
X459025Y733868D01*
X458132Y732975D01*
X448868Y732975D01*
X447975Y733868D01*
X447975Y736796D01*
X447966Y736909D01*
X447967Y737024D01*
X447946Y737155D01*
X447935Y737287D01*
X447908Y737398D01*
X447890Y737511D01*
X447849Y737637D01*
X447817Y737766D01*
X447772Y737871D01*
X447736Y737980D01*
X447675Y738097D01*
X447622Y738220D01*
X447561Y738316D01*
X447508Y738417D01*
X447449Y738491D01*
X447357Y738636D01*
X447141Y738878D01*
X447083Y738950D01*
X445227Y740806D01*
X445198Y740831D01*
X445172Y740860D01*
X445010Y740990D01*
X444851Y741126D01*
X444818Y741146D01*
X444788Y741170D01*
X444607Y741273D01*
X444428Y741381D01*
X444393Y741395D01*
X444360Y741414D01*
X444164Y741486D01*
X443970Y741564D01*
X443933Y741572D01*
X443897Y741585D01*
X443693Y741625D01*
X443489Y741670D01*
X443450Y741673D01*
X443413Y741680D01*
X443205Y741686D01*
X442996Y741698D01*
X442958Y741694D01*
X442920Y741695D01*
X442713Y741668D01*
X442505Y741646D01*
X442469Y741636D01*
X442431Y741631D01*
X442230Y741570D01*
X442030Y741515D01*
X441995Y741499D01*
X441958Y741488D01*
X441771Y741396D01*
X441581Y741309D01*
X441550Y741288D01*
X441515Y741271D01*
X441345Y741151D01*
X441172Y741034D01*
X441144Y741008D01*
X441113Y740986D01*
X440965Y740839D01*
X440812Y740696D01*
X440789Y740666D01*
X440762Y740639D01*
X440639Y740471D01*
X440512Y740305D01*
X440494Y740271D01*
X440472Y740240D01*
X440378Y740054D01*
X440279Y739870D01*
X440267Y739834D01*
X440249Y739800D01*
X440186Y739600D01*
X440119Y739403D01*
X440113Y739366D01*
X440101Y739329D01*
X440091Y739237D01*
X440036Y738917D01*
X440035Y738745D01*
X440025Y738652D01*
X440025Y733868D01*
X439132Y732975D01*
X431625Y732975D01*
X431587Y732972D01*
X431549Y732974D01*
X431341Y732952D01*
X431133Y732935D01*
X431096Y732926D01*
X431058Y732922D01*
X430857Y732867D01*
X430654Y732817D01*
X430619Y732802D01*
X430582Y732791D01*
X430392Y732704D01*
X430201Y732622D01*
X430169Y732602D01*
X430134Y732586D01*
X429960Y732469D01*
X429785Y732357D01*
X429756Y732332D01*
X429725Y732310D01*
X429572Y732167D01*
X429417Y732028D01*
X429393Y731999D01*
X429365Y731973D01*
X429238Y731807D01*
X429107Y731644D01*
X429088Y731611D01*
X429065Y731581D01*
X428966Y731397D01*
X428863Y731216D01*
X428849Y731180D01*
X428831Y731146D01*
X428764Y730949D01*
X428691Y730753D01*
X428684Y730716D01*
X428671Y730680D01*
X428636Y730473D01*
X428596Y730269D01*
X428595Y730231D01*
X428589Y730193D01*
X428588Y729984D01*
X428581Y729776D01*
X428586Y729738D01*
X428586Y729700D01*
X428618Y729493D01*
X428646Y729287D01*
X428657Y729250D01*
X428662Y729213D01*
X428728Y729014D01*
X428788Y728815D01*
X428805Y728780D01*
X428817Y728744D01*
X428913Y728559D01*
X429005Y728371D01*
X429027Y728340D01*
X429045Y728306D01*
X429103Y728234D01*
X429290Y727969D01*
X429411Y727847D01*
X429470Y727773D01*
X482078Y675165D01*
X482165Y675091D01*
X482245Y675010D01*
X482353Y674932D01*
X482454Y674846D01*
X482552Y674787D01*
X482644Y674720D01*
X482762Y674660D01*
X482876Y674591D01*
X482983Y674549D01*
X483084Y674497D01*
X483211Y674457D01*
X483335Y674408D01*
X483446Y674383D01*
X483555Y674349D01*
X483648Y674339D01*
X483816Y674301D01*
X484140Y674283D01*
X484233Y674273D01*
X498335Y674273D01*
X498449Y674282D01*
X498563Y674281D01*
X498695Y674302D01*
X498827Y674313D01*
X498938Y674340D01*
X499051Y674358D01*
X499177Y674399D01*
X499306Y674431D01*
X499411Y674476D01*
X499519Y674512D01*
X499637Y674574D01*
X499759Y674626D01*
X499856Y674687D01*
X499957Y674740D01*
X500031Y674799D01*
X500175Y674891D01*
X500418Y675107D01*
X500490Y675165D01*
X502803Y677478D01*
X506175Y678875D01*
X509825Y678875D01*
X513197Y677478D01*
X515778Y674897D01*
X517175Y671525D01*
X517175Y667875D01*
X515778Y664503D01*
X513197Y661922D01*
X509825Y660525D01*
X506175Y660525D01*
X502803Y661922D01*
X500490Y664235D01*
X500403Y664309D01*
X500323Y664390D01*
X500216Y664468D01*
X500114Y664554D01*
X500016Y664613D01*
X499924Y664680D01*
X499806Y664740D01*
X499692Y664809D01*
X499586Y664851D01*
X499484Y664903D01*
X499357Y664943D01*
X499234Y664992D01*
X499122Y665017D01*
X499013Y665051D01*
X498920Y665061D01*
X498752Y665099D01*
X498428Y665117D01*
X498335Y665127D01*
X488696Y665127D01*
X488658Y665124D01*
X488620Y665126D01*
X488412Y665104D01*
X488205Y665087D01*
X488167Y665078D01*
X488130Y665074D01*
X487928Y665019D01*
X487726Y664969D01*
X487691Y664954D01*
X487654Y664943D01*
X487464Y664856D01*
X487272Y664774D01*
X487240Y664754D01*
X487206Y664738D01*
X487032Y664621D01*
X486856Y664509D01*
X486828Y664484D01*
X486796Y664462D01*
X486644Y664319D01*
X486488Y664180D01*
X486464Y664151D01*
X486437Y664125D01*
X486309Y663959D01*
X486178Y663796D01*
X486160Y663763D01*
X486136Y663733D01*
X486038Y663549D01*
X485934Y663368D01*
X485921Y663332D01*
X485903Y663298D01*
X485835Y663101D01*
X485763Y662905D01*
X485756Y662868D01*
X485743Y662832D01*
X485708Y662625D01*
X485668Y662421D01*
X485667Y662383D01*
X485661Y662345D01*
X485659Y662136D01*
X485653Y661928D01*
X485658Y661890D01*
X485658Y661852D01*
X485690Y661645D01*
X485717Y661439D01*
X485728Y661402D01*
X485734Y661365D01*
X485799Y661166D01*
X485860Y660967D01*
X485877Y660932D01*
X485888Y660896D01*
X485985Y660711D01*
X486077Y660523D01*
X486099Y660492D01*
X486116Y660458D01*
X486174Y660386D01*
X486362Y660121D01*
X486483Y659999D01*
X486542Y659925D01*
X496441Y650026D01*
X496499Y649976D01*
X496551Y649921D01*
X496687Y649817D01*
X496817Y649706D01*
X496882Y649667D01*
X496943Y649621D01*
X497093Y649540D01*
X497240Y649452D01*
X497311Y649423D01*
X497378Y649387D01*
X497539Y649332D01*
X497698Y649269D01*
X497772Y649252D01*
X497844Y649227D01*
X498013Y649199D01*
X498179Y649162D01*
X498255Y649157D01*
X498331Y649145D01*
X498501Y649144D01*
X498672Y649134D01*
X498748Y649142D01*
X498824Y649142D01*
X498993Y649168D01*
X499163Y649186D01*
X499236Y649206D01*
X499311Y649218D01*
X499474Y649272D01*
X499638Y649317D01*
X499707Y649349D01*
X499780Y649373D01*
X499931Y649451D01*
X500087Y649523D01*
X500150Y649565D01*
X500217Y649600D01*
X500300Y649666D01*
X500496Y649798D01*
X500668Y649960D01*
X500751Y650026D01*
X502803Y652078D01*
X506175Y653475D01*
X509825Y653475D01*
X513197Y652078D01*
X515778Y649497D01*
X517175Y646125D01*
X517175Y642475D01*
X515778Y639103D01*
X513197Y636522D01*
X509825Y635125D01*
X509420Y635125D01*
X509413Y635125D01*
X509405Y635125D01*
X509167Y635105D01*
X508929Y635085D01*
X508921Y635083D01*
X508914Y635083D01*
X508681Y635024D01*
X508450Y634967D01*
X508443Y634964D01*
X508435Y634962D01*
X508216Y634866D01*
X507996Y634772D01*
X507990Y634768D01*
X507954Y634786D01*
X507742Y634895D01*
X507735Y634897D01*
X507728Y634901D01*
X507497Y634973D01*
X507272Y635046D01*
X507265Y635047D01*
X507257Y635049D01*
X507224Y635053D01*
X506784Y635118D01*
X506682Y635114D01*
X506580Y635125D01*
X506175Y635125D01*
X502803Y636522D01*
X500490Y638835D01*
X500403Y638909D01*
X500323Y638990D01*
X500216Y639068D01*
X500114Y639154D01*
X500016Y639213D01*
X499924Y639280D01*
X499806Y639340D01*
X499692Y639409D01*
X499586Y639451D01*
X499484Y639503D01*
X499357Y639543D01*
X499234Y639592D01*
X499122Y639617D01*
X499013Y639651D01*
X498920Y639661D01*
X498752Y639699D01*
X498428Y639717D01*
X498335Y639727D01*
X494790Y639727D01*
X493110Y640423D01*
X416998Y716535D01*
X416911Y716609D01*
X416831Y716690D01*
X416724Y716768D01*
X416622Y716854D01*
X416525Y716913D01*
X416432Y716980D01*
X416314Y717040D01*
X416200Y717109D01*
X416094Y717151D01*
X415992Y717203D01*
X415865Y717243D01*
X415742Y717292D01*
X415631Y717317D01*
X415521Y717351D01*
X415428Y717361D01*
X415260Y717399D01*
X414936Y717417D01*
X414844Y717427D01*
X401228Y717427D01*
X400957Y717468D01*
X400826Y717466D01*
X400748Y717475D01*
X395572Y717475D01*
X395496Y717469D01*
X395420Y717471D01*
X395251Y717449D01*
X395080Y717435D01*
X395006Y717417D01*
X394931Y717407D01*
X394767Y717358D01*
X394601Y717317D01*
X394532Y717287D01*
X394458Y717265D01*
X394305Y717189D01*
X394148Y717122D01*
X394084Y717081D01*
X394015Y717048D01*
X393876Y716949D01*
X393732Y716857D01*
X393675Y716806D01*
X393613Y716762D01*
X393492Y716642D01*
X393364Y716528D01*
X393316Y716469D01*
X393262Y716415D01*
X393161Y716277D01*
X393054Y716144D01*
X393017Y716078D01*
X392972Y716017D01*
X392895Y715864D01*
X392810Y715716D01*
X392784Y715644D01*
X392749Y715576D01*
X392698Y715413D01*
X392639Y715253D01*
X392624Y715178D01*
X392601Y715106D01*
X392589Y715001D01*
X392544Y714769D01*
X392537Y714533D01*
X392525Y714428D01*
X392525Y699613D01*
X391632Y698720D01*
X375434Y698720D01*
X375396Y698717D01*
X375358Y698719D01*
X375150Y698697D01*
X374942Y698680D01*
X374905Y698671D01*
X374867Y698667D01*
X374666Y698612D01*
X374464Y698562D01*
X374428Y698547D01*
X374392Y698536D01*
X374202Y698450D01*
X374010Y698367D01*
X373978Y698347D01*
X373943Y698331D01*
X373770Y698214D01*
X373594Y698102D01*
X373566Y698077D01*
X373534Y698055D01*
X373382Y697912D01*
X373226Y697773D01*
X373202Y697744D01*
X373175Y697717D01*
X373047Y697552D01*
X372916Y697389D01*
X372898Y697356D01*
X372874Y697326D01*
X372776Y697142D01*
X372672Y696961D01*
X372659Y696925D01*
X372641Y696891D01*
X372573Y696694D01*
X372501Y696498D01*
X372493Y696461D01*
X372481Y696425D01*
X372446Y696218D01*
X372406Y696014D01*
X372405Y695976D01*
X372398Y695938D01*
X372397Y695729D01*
X372391Y695521D01*
X372396Y695483D01*
X372395Y695445D01*
X372428Y695238D01*
X372455Y695032D01*
X372466Y694995D01*
X372472Y694958D01*
X372537Y694760D01*
X372598Y694560D01*
X372614Y694525D01*
X372626Y694489D01*
X372723Y694304D01*
X372815Y694116D01*
X372837Y694085D01*
X372854Y694051D01*
X372912Y693979D01*
X373100Y693714D01*
X373221Y693592D01*
X373279Y693518D01*
X374075Y692723D01*
X374807Y690956D01*
X374807Y689044D01*
X374075Y687277D01*
X372723Y685925D01*
X370956Y685193D01*
X369044Y685193D01*
X367277Y685925D01*
X365775Y687428D01*
X365746Y687452D01*
X365720Y687481D01*
X365558Y687612D01*
X365399Y687747D01*
X365366Y687767D01*
X365336Y687791D01*
X365155Y687894D01*
X364976Y688002D01*
X364941Y688016D01*
X364908Y688035D01*
X364712Y688107D01*
X364518Y688185D01*
X364481Y688193D01*
X364445Y688206D01*
X364241Y688246D01*
X364037Y688291D01*
X363998Y688294D01*
X363961Y688301D01*
X363753Y688307D01*
X363544Y688319D01*
X363506Y688315D01*
X363468Y688316D01*
X363261Y688289D01*
X363053Y688267D01*
X363017Y688257D01*
X362979Y688252D01*
X362778Y688191D01*
X362578Y688136D01*
X362543Y688120D01*
X362506Y688109D01*
X362319Y688017D01*
X362129Y687931D01*
X362098Y687909D01*
X362063Y687892D01*
X361893Y687772D01*
X361720Y687655D01*
X361692Y687629D01*
X361661Y687607D01*
X361513Y687461D01*
X361360Y687317D01*
X361337Y687287D01*
X361310Y687260D01*
X361187Y687092D01*
X361060Y686926D01*
X361042Y686892D01*
X361020Y686862D01*
X360926Y686675D01*
X360827Y686491D01*
X360815Y686455D01*
X360797Y686421D01*
X360734Y686221D01*
X360667Y686025D01*
X360661Y685987D01*
X360649Y685951D01*
X360639Y685858D01*
X360584Y685538D01*
X360583Y685366D01*
X360573Y685273D01*
X360573Y662776D01*
X360582Y662663D01*
X360581Y662548D01*
X360602Y662417D01*
X360613Y662285D01*
X360640Y662174D01*
X360658Y662061D01*
X360699Y661935D01*
X360731Y661806D01*
X360776Y661701D01*
X360812Y661592D01*
X360874Y661474D01*
X360926Y661352D01*
X360987Y661256D01*
X361040Y661155D01*
X361099Y661081D01*
X361191Y660936D01*
X361407Y660694D01*
X361465Y660622D01*
X375122Y646965D01*
X375209Y646891D01*
X375289Y646810D01*
X375396Y646732D01*
X375498Y646646D01*
X375595Y646587D01*
X375688Y646520D01*
X375806Y646460D01*
X375920Y646391D01*
X376026Y646349D01*
X376128Y646297D01*
X376255Y646257D01*
X376378Y646208D01*
X376489Y646183D01*
X376599Y646149D01*
X376692Y646139D01*
X376860Y646101D01*
X377184Y646083D01*
X377276Y646073D01*
X387428Y646073D01*
X387504Y646079D01*
X387580Y646077D01*
X387749Y646099D01*
X387920Y646113D01*
X387994Y646131D01*
X388069Y646141D01*
X388233Y646190D01*
X388399Y646231D01*
X388468Y646261D01*
X388542Y646283D01*
X388695Y646359D01*
X388852Y646426D01*
X388916Y646467D01*
X388985Y646500D01*
X389124Y646599D01*
X389268Y646691D01*
X389325Y646742D01*
X389387Y646786D01*
X389508Y646906D01*
X389636Y647020D01*
X389684Y647079D01*
X389738Y647133D01*
X389839Y647271D01*
X389946Y647404D01*
X389983Y647470D01*
X390028Y647531D01*
X390105Y647684D01*
X390190Y647832D01*
X390216Y647904D01*
X390251Y647972D01*
X390302Y648135D01*
X390361Y648295D01*
X390376Y648370D01*
X390399Y648442D01*
X390411Y648547D01*
X390456Y648779D01*
X390463Y649015D01*
X390475Y649120D01*
X390475Y653632D01*
X391368Y654525D01*
X408632Y654525D01*
X409525Y653632D01*
X409525Y649120D01*
X409531Y649044D01*
X409529Y648968D01*
X409551Y648799D01*
X409565Y648628D01*
X409583Y648554D01*
X409593Y648479D01*
X409642Y648315D01*
X409683Y648149D01*
X409713Y648080D01*
X409735Y648006D01*
X409811Y647853D01*
X409878Y647696D01*
X409919Y647632D01*
X409952Y647563D01*
X410051Y647424D01*
X410143Y647280D01*
X410194Y647223D01*
X410238Y647161D01*
X410358Y647040D01*
X410472Y646912D01*
X410531Y646864D01*
X410585Y646810D01*
X410723Y646709D01*
X410856Y646602D01*
X410922Y646565D01*
X410983Y646520D01*
X411136Y646443D01*
X411284Y646358D01*
X411356Y646332D01*
X411424Y646297D01*
X411587Y646246D01*
X411747Y646187D01*
X411822Y646172D01*
X411894Y646149D01*
X411999Y646137D01*
X412231Y646092D01*
X412467Y646085D01*
X412572Y646073D01*
X431410Y646073D01*
X433090Y645377D01*
X434602Y643865D01*
X434689Y643791D01*
X434769Y643710D01*
X434876Y643632D01*
X434978Y643546D01*
X435075Y643487D01*
X435168Y643420D01*
X435286Y643360D01*
X435400Y643291D01*
X435506Y643249D01*
X435608Y643197D01*
X435735Y643157D01*
X435858Y643108D01*
X435969Y643083D01*
X436079Y643049D01*
X436172Y643039D01*
X436340Y643001D01*
X436664Y642983D01*
X436756Y642973D01*
X440480Y642973D01*
X440594Y642982D01*
X440708Y642981D01*
X440840Y643002D01*
X440972Y643013D01*
X441083Y643040D01*
X441196Y643058D01*
X441322Y643099D01*
X441451Y643131D01*
X441556Y643176D01*
X441664Y643212D01*
X441782Y643274D01*
X441904Y643326D01*
X442001Y643387D01*
X442102Y643440D01*
X442175Y643499D01*
X442320Y643591D01*
X442563Y643807D01*
X442635Y643865D01*
X443329Y644559D01*
X444815Y645175D01*
X455185Y645175D01*
X456671Y644559D01*
X457809Y643421D01*
X458425Y641935D01*
X458425Y634865D01*
X457809Y633379D01*
X457285Y632855D01*
X457202Y632757D01*
X457112Y632666D01*
X457043Y632570D01*
X456966Y632479D01*
X456900Y632369D01*
X456825Y632265D01*
X456772Y632158D01*
X456711Y632057D01*
X456664Y631937D01*
X456607Y631822D01*
X456572Y631709D01*
X456528Y631599D01*
X456500Y631473D01*
X456463Y631350D01*
X456447Y631233D01*
X456421Y631117D01*
X456414Y630989D01*
X456397Y630861D01*
X456400Y630743D01*
X456394Y630624D01*
X456407Y630497D01*
X456411Y630368D01*
X456433Y630252D01*
X456446Y630134D01*
X456480Y630010D01*
X456504Y629884D01*
X456545Y629773D01*
X456577Y629658D01*
X456630Y629541D01*
X456674Y629421D01*
X456733Y629317D01*
X456782Y629210D01*
X456854Y629103D01*
X456917Y628991D01*
X456991Y628899D01*
X457058Y628800D01*
X457146Y628707D01*
X457226Y628607D01*
X457292Y628551D01*
X457395Y628441D01*
X457527Y628340D01*
X458311Y627556D01*
X458865Y626727D01*
X459246Y625806D01*
X459441Y624828D01*
X459441Y624647D01*
X450000Y624647D01*
X440559Y624647D01*
X440559Y624828D01*
X440754Y625806D01*
X441135Y626727D01*
X441689Y627556D01*
X442433Y628300D01*
X442461Y628318D01*
X442547Y628400D01*
X442640Y628473D01*
X442726Y628568D01*
X442820Y628656D01*
X442892Y628750D01*
X442972Y628838D01*
X443042Y628946D01*
X443120Y629048D01*
X443176Y629152D01*
X443241Y629251D01*
X443293Y629369D01*
X443353Y629483D01*
X443392Y629594D01*
X443439Y629703D01*
X443472Y629828D01*
X443513Y629949D01*
X443533Y630066D01*
X443563Y630181D01*
X443574Y630309D01*
X443596Y630436D01*
X443596Y630554D01*
X443607Y630672D01*
X443598Y630800D01*
X443599Y630929D01*
X443580Y631046D01*
X443572Y631164D01*
X443542Y631289D01*
X443522Y631416D01*
X443485Y631528D01*
X443458Y631644D01*
X443408Y631763D01*
X443368Y631885D01*
X443313Y631990D01*
X443267Y632099D01*
X443199Y632208D01*
X443140Y632322D01*
X443086Y632390D01*
X443006Y632518D01*
X442825Y632724D01*
X442815Y632739D01*
X442792Y632762D01*
X442761Y632798D01*
X442714Y632856D01*
X442635Y632935D01*
X442548Y633009D01*
X442468Y633090D01*
X442360Y633168D01*
X442259Y633255D01*
X442161Y633313D01*
X442069Y633380D01*
X441950Y633440D01*
X441836Y633509D01*
X441730Y633551D01*
X441629Y633603D01*
X441502Y633643D01*
X441378Y633692D01*
X441267Y633717D01*
X441158Y633751D01*
X441065Y633761D01*
X440896Y633799D01*
X440573Y633817D01*
X440480Y633827D01*
X432690Y633827D01*
X430920Y634561D01*
X430895Y634582D01*
X430886Y634587D01*
X430879Y634593D01*
X430844Y634613D01*
X430472Y634836D01*
X430351Y634885D01*
X430282Y634923D01*
X430277Y634925D01*
X429168Y636035D01*
X429080Y636109D01*
X429000Y636190D01*
X428893Y636268D01*
X428792Y636354D01*
X428694Y636413D01*
X428601Y636480D01*
X428483Y636540D01*
X428369Y636609D01*
X428263Y636651D01*
X428161Y636703D01*
X428034Y636743D01*
X427911Y636792D01*
X427800Y636817D01*
X427691Y636851D01*
X427597Y636861D01*
X427429Y636899D01*
X427105Y636917D01*
X427013Y636927D01*
X412572Y636927D01*
X412496Y636921D01*
X412420Y636923D01*
X412251Y636901D01*
X412080Y636887D01*
X412006Y636869D01*
X411931Y636859D01*
X411767Y636810D01*
X411601Y636769D01*
X411532Y636739D01*
X411458Y636717D01*
X411305Y636641D01*
X411148Y636574D01*
X411084Y636533D01*
X411015Y636500D01*
X410876Y636401D01*
X410732Y636309D01*
X410675Y636258D01*
X410613Y636214D01*
X410492Y636094D01*
X410364Y635980D01*
X410316Y635921D01*
X410262Y635867D01*
X410161Y635729D01*
X410054Y635596D01*
X410017Y635530D01*
X409972Y635469D01*
X409895Y635316D01*
X409810Y635168D01*
X409784Y635096D01*
X409749Y635028D01*
X409698Y634865D01*
X409639Y634705D01*
X409624Y634630D01*
X409601Y634558D01*
X409589Y634453D01*
X409544Y634221D01*
X409537Y633985D01*
X409525Y633880D01*
X409525Y629368D01*
X408632Y628475D01*
X391368Y628475D01*
X390475Y629368D01*
X390475Y633880D01*
X390469Y633956D01*
X390471Y634032D01*
X390449Y634201D01*
X390435Y634372D01*
X390417Y634446D01*
X390407Y634521D01*
X390358Y634685D01*
X390317Y634851D01*
X390287Y634920D01*
X390265Y634994D01*
X390189Y635147D01*
X390122Y635304D01*
X390081Y635368D01*
X390048Y635437D01*
X389949Y635576D01*
X389857Y635720D01*
X389806Y635777D01*
X389762Y635839D01*
X389642Y635960D01*
X389528Y636088D01*
X389469Y636136D01*
X389415Y636190D01*
X389277Y636291D01*
X389144Y636398D01*
X389078Y636435D01*
X389017Y636480D01*
X388864Y636557D01*
X388716Y636642D01*
X388644Y636668D01*
X388576Y636703D01*
X388413Y636754D01*
X388253Y636813D01*
X388178Y636828D01*
X388106Y636851D01*
X388001Y636863D01*
X387769Y636908D01*
X387533Y636915D01*
X387428Y636927D01*
X373210Y636927D01*
X372738Y637123D01*
X372566Y637178D01*
X372397Y637241D01*
X372332Y637254D01*
X372269Y637274D01*
X372090Y637301D01*
X371913Y637336D01*
X371847Y637338D01*
X371781Y637348D01*
X371600Y637345D01*
X371420Y637351D01*
X371354Y637342D01*
X371287Y637342D01*
X371110Y637310D01*
X370931Y637287D01*
X370867Y637267D01*
X370802Y637256D01*
X370632Y637196D01*
X370458Y637144D01*
X370399Y637115D01*
X370336Y637093D01*
X370177Y637007D01*
X370015Y636927D01*
X369961Y636889D01*
X369903Y636857D01*
X369760Y636746D01*
X369613Y636642D01*
X369566Y636595D01*
X369513Y636554D01*
X369390Y636422D01*
X369262Y636295D01*
X369223Y636241D01*
X369178Y636193D01*
X369078Y636042D01*
X368972Y635896D01*
X368942Y635837D01*
X368905Y635781D01*
X368831Y635617D01*
X368749Y635456D01*
X368729Y635392D01*
X368702Y635332D01*
X368655Y635158D01*
X368601Y634985D01*
X368595Y634933D01*
X368574Y634855D01*
X368525Y634364D01*
X368527Y634331D01*
X368525Y634308D01*
X368525Y617368D01*
X367632Y616475D01*
X367620Y616475D01*
X367544Y616469D01*
X367468Y616471D01*
X367299Y616449D01*
X367128Y616435D01*
X367054Y616417D01*
X366979Y616407D01*
X366815Y616358D01*
X366649Y616317D01*
X366580Y616287D01*
X366506Y616265D01*
X366353Y616189D01*
X366196Y616122D01*
X366132Y616081D01*
X366063Y616048D01*
X365924Y615949D01*
X365780Y615857D01*
X365723Y615806D01*
X365661Y615762D01*
X365540Y615642D01*
X365412Y615528D01*
X365364Y615469D01*
X365310Y615415D01*
X365209Y615277D01*
X365102Y615144D01*
X365065Y615078D01*
X365020Y615017D01*
X364943Y614864D01*
X364858Y614716D01*
X364832Y614644D01*
X364797Y614576D01*
X364746Y614413D01*
X364687Y614253D01*
X364672Y614178D01*
X364649Y614106D01*
X364637Y614001D01*
X364592Y613769D01*
X364585Y613533D01*
X364573Y613428D01*
X364573Y597464D01*
X364590Y597246D01*
X364604Y597029D01*
X364610Y597001D01*
X364613Y596973D01*
X364665Y596760D01*
X364714Y596548D01*
X364725Y596521D01*
X364731Y596494D01*
X364818Y596293D01*
X364900Y596091D01*
X364915Y596067D01*
X364926Y596040D01*
X365043Y595856D01*
X365157Y595670D01*
X365176Y595648D01*
X365191Y595624D01*
X365336Y595462D01*
X365479Y595296D01*
X365501Y595278D01*
X365520Y595256D01*
X365689Y595120D01*
X365857Y594979D01*
X365878Y594967D01*
X365904Y594946D01*
X366332Y594702D01*
X366408Y594674D01*
X366454Y594649D01*
X366671Y594559D01*
X367809Y593421D01*
X368425Y591935D01*
X368425Y584865D01*
X367809Y583379D01*
X367285Y582855D01*
X367202Y582757D01*
X367112Y582666D01*
X367043Y582570D01*
X366966Y582479D01*
X366900Y582369D01*
X366825Y582265D01*
X366772Y582158D01*
X366711Y582057D01*
X366664Y581937D01*
X366607Y581822D01*
X366572Y581709D01*
X366528Y581599D01*
X366500Y581473D01*
X366463Y581350D01*
X366447Y581233D01*
X366421Y581117D01*
X366414Y580989D01*
X366397Y580861D01*
X366400Y580743D01*
X366394Y580624D01*
X366407Y580497D01*
X366411Y580368D01*
X366433Y580252D01*
X366446Y580134D01*
X366480Y580010D01*
X366504Y579884D01*
X366545Y579773D01*
X366577Y579658D01*
X366630Y579541D01*
X366674Y579421D01*
X366733Y579317D01*
X366782Y579210D01*
X366854Y579103D01*
X366917Y578991D01*
X366991Y578899D01*
X367058Y578800D01*
X367146Y578707D01*
X367226Y578607D01*
X367292Y578551D01*
X367395Y578441D01*
X367527Y578340D01*
X368311Y577556D01*
X368865Y576727D01*
X369246Y575806D01*
X369441Y574828D01*
X369441Y574647D01*
X360000Y574647D01*
X350559Y574647D01*
X350559Y574828D01*
X350754Y575806D01*
X351135Y576727D01*
X351689Y577556D01*
X352433Y578300D01*
X352460Y578318D01*
X352547Y578399D01*
X352640Y578473D01*
X352726Y578568D01*
X352820Y578656D01*
X352892Y578750D01*
X352972Y578838D01*
X353042Y578945D01*
X353120Y579047D01*
X353176Y579152D01*
X353241Y579251D01*
X353292Y579369D01*
X353353Y579482D01*
X353392Y579594D01*
X353439Y579703D01*
X353471Y579827D01*
X353513Y579949D01*
X353533Y580066D01*
X353563Y580181D01*
X353574Y580309D01*
X353596Y580435D01*
X353596Y580554D01*
X353607Y580672D01*
X353598Y580800D01*
X353599Y580928D01*
X353580Y581046D01*
X353572Y581164D01*
X353542Y581289D01*
X353522Y581416D01*
X353485Y581528D01*
X353458Y581644D01*
X353408Y581763D01*
X353368Y581884D01*
X353313Y581989D01*
X353267Y582099D01*
X353199Y582208D01*
X353140Y582322D01*
X353086Y582390D01*
X353006Y582518D01*
X352761Y582797D01*
X352715Y582855D01*
X352191Y583379D01*
X351575Y584865D01*
X351575Y591935D01*
X352191Y593421D01*
X353329Y594559D01*
X353546Y594649D01*
X353741Y594749D01*
X353937Y594845D01*
X353960Y594861D01*
X353985Y594874D01*
X354161Y595004D01*
X354339Y595130D01*
X354359Y595150D01*
X354382Y595167D01*
X354535Y595324D01*
X354690Y595477D01*
X354707Y595500D01*
X354727Y595520D01*
X354852Y595700D01*
X354980Y595876D01*
X354993Y595901D01*
X355009Y595924D01*
X355104Y596121D01*
X355203Y596316D01*
X355211Y596343D01*
X355224Y596369D01*
X355285Y596578D01*
X355351Y596787D01*
X355354Y596810D01*
X355363Y596842D01*
X355424Y597331D01*
X355421Y597412D01*
X355427Y597464D01*
X355427Y613428D01*
X355421Y613504D01*
X355423Y613580D01*
X355401Y613749D01*
X355387Y613920D01*
X355369Y613994D01*
X355359Y614069D01*
X355310Y614233D01*
X355269Y614399D01*
X355239Y614468D01*
X355217Y614542D01*
X355141Y614695D01*
X355074Y614852D01*
X355033Y614916D01*
X355000Y614985D01*
X354901Y615124D01*
X354809Y615268D01*
X354758Y615325D01*
X354714Y615387D01*
X354594Y615508D01*
X354480Y615636D01*
X354421Y615684D01*
X354367Y615738D01*
X354229Y615839D01*
X354096Y615946D01*
X354030Y615983D01*
X353969Y616028D01*
X353816Y616105D01*
X353668Y616190D01*
X353596Y616216D01*
X353528Y616251D01*
X353365Y616302D01*
X353205Y616361D01*
X353130Y616376D01*
X353058Y616399D01*
X352953Y616411D01*
X352721Y616456D01*
X352485Y616463D01*
X352380Y616475D01*
X349368Y616475D01*
X348475Y617368D01*
X348475Y632296D01*
X348466Y632409D01*
X348467Y632524D01*
X348446Y632655D01*
X348435Y632787D01*
X348408Y632898D01*
X348390Y633011D01*
X348349Y633137D01*
X348317Y633266D01*
X348272Y633371D01*
X348236Y633480D01*
X348174Y633598D01*
X348122Y633720D01*
X348061Y633816D01*
X348008Y633917D01*
X347949Y633991D01*
X347857Y634136D01*
X347641Y634378D01*
X347583Y634450D01*
X344123Y637910D01*
X343453Y639528D01*
X343371Y639688D01*
X343296Y639852D01*
X343258Y639908D01*
X343228Y639967D01*
X343121Y640112D01*
X343020Y640262D01*
X342975Y640310D01*
X342935Y640364D01*
X342806Y640490D01*
X342682Y640621D01*
X342630Y640662D01*
X342582Y640708D01*
X342434Y640812D01*
X342291Y640922D01*
X342232Y640953D01*
X342178Y640991D01*
X342015Y641069D01*
X341856Y641155D01*
X341793Y641176D01*
X341733Y641205D01*
X341560Y641256D01*
X341390Y641315D01*
X341324Y641326D01*
X341260Y641345D01*
X341081Y641367D01*
X340903Y641397D01*
X340837Y641398D01*
X340771Y641406D01*
X340591Y641399D01*
X340410Y641400D01*
X340344Y641390D01*
X340278Y641388D01*
X340101Y641352D01*
X339923Y641324D01*
X339859Y641303D01*
X339794Y641290D01*
X339625Y641226D01*
X339454Y641169D01*
X339395Y641139D01*
X339333Y641115D01*
X339176Y641025D01*
X339016Y640942D01*
X338975Y640909D01*
X338906Y640869D01*
X338524Y640556D01*
X338501Y640531D01*
X338483Y640516D01*
X332417Y634450D01*
X332343Y634363D01*
X332262Y634283D01*
X332184Y634176D01*
X332098Y634075D01*
X332039Y633977D01*
X331972Y633884D01*
X331912Y633766D01*
X331843Y633652D01*
X331801Y633546D01*
X331749Y633444D01*
X331709Y633317D01*
X331660Y633194D01*
X331635Y633083D01*
X331601Y632973D01*
X331591Y632880D01*
X331553Y632712D01*
X331535Y632388D01*
X331525Y632296D01*
X331525Y617368D01*
X330632Y616475D01*
X327620Y616475D01*
X327544Y616469D01*
X327468Y616471D01*
X327299Y616449D01*
X327128Y616435D01*
X327054Y616417D01*
X326979Y616407D01*
X326815Y616358D01*
X326649Y616317D01*
X326580Y616287D01*
X326506Y616265D01*
X326353Y616189D01*
X326196Y616122D01*
X326132Y616081D01*
X326063Y616048D01*
X325924Y615949D01*
X325780Y615857D01*
X325723Y615806D01*
X325661Y615762D01*
X325540Y615642D01*
X325412Y615528D01*
X325364Y615469D01*
X325310Y615415D01*
X325209Y615277D01*
X325102Y615144D01*
X325065Y615078D01*
X325020Y615017D01*
X324943Y614864D01*
X324858Y614716D01*
X324832Y614644D01*
X324797Y614576D01*
X324746Y614413D01*
X324687Y614253D01*
X324672Y614178D01*
X324649Y614106D01*
X324637Y614001D01*
X324592Y613769D01*
X324585Y613533D01*
X324573Y613428D01*
X324573Y597464D01*
X324590Y597246D01*
X324604Y597029D01*
X324610Y597001D01*
X324613Y596973D01*
X324665Y596760D01*
X324714Y596548D01*
X324725Y596521D01*
X324731Y596494D01*
X324818Y596293D01*
X324900Y596091D01*
X324915Y596067D01*
X324926Y596040D01*
X325043Y595856D01*
X325157Y595670D01*
X325176Y595648D01*
X325191Y595624D01*
X325336Y595462D01*
X325479Y595296D01*
X325501Y595278D01*
X325520Y595256D01*
X325689Y595120D01*
X325857Y594979D01*
X325878Y594967D01*
X325904Y594946D01*
X326332Y594702D01*
X326408Y594674D01*
X326454Y594649D01*
X326671Y594559D01*
X327809Y593421D01*
X328425Y591935D01*
X328425Y584865D01*
X327809Y583379D01*
X327285Y582855D01*
X327202Y582757D01*
X327112Y582666D01*
X327043Y582570D01*
X326966Y582479D01*
X326900Y582369D01*
X326825Y582265D01*
X326772Y582158D01*
X326711Y582057D01*
X326664Y581937D01*
X326607Y581822D01*
X326572Y581709D01*
X326528Y581599D01*
X326500Y581473D01*
X326463Y581350D01*
X326447Y581233D01*
X326421Y581117D01*
X326414Y580989D01*
X326397Y580861D01*
X326400Y580743D01*
X326394Y580624D01*
X326407Y580497D01*
X326411Y580368D01*
X326433Y580252D01*
X326446Y580134D01*
X326480Y580010D01*
X326504Y579884D01*
X326545Y579773D01*
X326577Y579658D01*
X326630Y579541D01*
X326674Y579421D01*
X326733Y579317D01*
X326782Y579210D01*
X326854Y579103D01*
X326917Y578991D01*
X326991Y578899D01*
X327058Y578800D01*
X327146Y578707D01*
X327226Y578607D01*
X327292Y578551D01*
X327395Y578441D01*
X327527Y578340D01*
X328311Y577556D01*
X328865Y576727D01*
X329246Y575806D01*
X329441Y574828D01*
X329441Y574647D01*
X320000Y574647D01*
X310559Y574647D01*
X310559Y574828D01*
X310754Y575806D01*
X311135Y576727D01*
X311689Y577556D01*
X312433Y578300D01*
X312460Y578318D01*
X312547Y578399D01*
X312640Y578473D01*
X312726Y578568D01*
X312820Y578656D01*
X312892Y578750D01*
X312972Y578838D01*
X313042Y578945D01*
X313120Y579047D01*
X313176Y579152D01*
X313241Y579251D01*
X313292Y579369D01*
X313353Y579482D01*
X313392Y579594D01*
X313439Y579703D01*
X313471Y579827D01*
X313513Y579949D01*
X313533Y580066D01*
X313563Y580181D01*
X313574Y580309D01*
X313596Y580435D01*
X313596Y580554D01*
X313607Y580672D01*
X313598Y580800D01*
X313599Y580928D01*
X313580Y581046D01*
X313572Y581164D01*
X313542Y581289D01*
X313522Y581416D01*
X313485Y581528D01*
X313458Y581644D01*
X313408Y581763D01*
X313368Y581884D01*
X313313Y581989D01*
X313267Y582099D01*
X313199Y582208D01*
X313140Y582322D01*
X313086Y582390D01*
X313006Y582518D01*
X312761Y582797D01*
X312715Y582855D01*
X312191Y583379D01*
X311575Y584865D01*
X311575Y591935D01*
X312191Y593421D01*
X313329Y594559D01*
X313546Y594649D01*
X313741Y594749D01*
X313937Y594845D01*
X313960Y594861D01*
X313985Y594874D01*
X314161Y595004D01*
X314339Y595130D01*
X314359Y595150D01*
X314382Y595167D01*
X314535Y595324D01*
X314690Y595477D01*
X314707Y595500D01*
X314727Y595520D01*
X314852Y595700D01*
X314980Y595876D01*
X314993Y595901D01*
X315009Y595924D01*
X315104Y596121D01*
X315203Y596316D01*
X315211Y596343D01*
X315224Y596369D01*
X315285Y596578D01*
X315351Y596787D01*
X315354Y596810D01*
X315363Y596842D01*
X315424Y597331D01*
X315421Y597412D01*
X315427Y597464D01*
X315427Y613428D01*
X315421Y613504D01*
X315423Y613580D01*
X315401Y613749D01*
X315387Y613920D01*
X315369Y613994D01*
X315359Y614069D01*
X315310Y614233D01*
X315269Y614399D01*
X315239Y614468D01*
X315217Y614542D01*
X315141Y614695D01*
X315074Y614852D01*
X315033Y614916D01*
X315000Y614985D01*
X314901Y615124D01*
X314809Y615268D01*
X314758Y615325D01*
X314714Y615387D01*
X314594Y615508D01*
X314480Y615636D01*
X314421Y615684D01*
X314367Y615738D01*
X314229Y615839D01*
X314096Y615946D01*
X314030Y615983D01*
X313969Y616028D01*
X313816Y616105D01*
X313668Y616190D01*
X313596Y616216D01*
X313528Y616251D01*
X313365Y616302D01*
X313205Y616361D01*
X313130Y616376D01*
X313058Y616399D01*
X312953Y616411D01*
X312721Y616456D01*
X312485Y616463D01*
X312380Y616475D01*
X312368Y616475D01*
X311475Y617368D01*
X311475Y642632D01*
X312368Y643525D01*
X327296Y643525D01*
X327409Y643534D01*
X327524Y643533D01*
X327655Y643554D01*
X327787Y643565D01*
X327898Y643592D01*
X328011Y643610D01*
X328137Y643651D01*
X328266Y643683D01*
X328371Y643728D01*
X328480Y643764D01*
X328598Y643826D01*
X328720Y643878D01*
X328816Y643939D01*
X328917Y643992D01*
X328991Y644051D01*
X329136Y644143D01*
X329378Y644359D01*
X329450Y644417D01*
X334535Y649502D01*
X334609Y649589D01*
X334690Y649669D01*
X334768Y649776D01*
X334854Y649878D01*
X334913Y649975D01*
X334980Y650068D01*
X335040Y650186D01*
X335109Y650300D01*
X335151Y650406D01*
X335203Y650508D01*
X335243Y650635D01*
X335292Y650758D01*
X335317Y650869D01*
X335351Y650979D01*
X335361Y651072D01*
X335399Y651240D01*
X335417Y651564D01*
X335427Y651656D01*
X335427Y682485D01*
X335413Y682665D01*
X335406Y682845D01*
X335393Y682910D01*
X335387Y682976D01*
X335344Y683151D01*
X335308Y683329D01*
X335285Y683391D01*
X335269Y683455D01*
X335197Y683621D01*
X335134Y683790D01*
X335100Y683848D01*
X335074Y683909D01*
X334977Y684061D01*
X334887Y684217D01*
X334845Y684269D01*
X334809Y684325D01*
X334689Y684459D01*
X334574Y684599D01*
X334525Y684643D01*
X334480Y684693D01*
X334340Y684806D01*
X334205Y684925D01*
X334148Y684961D01*
X334096Y685003D01*
X333940Y685092D01*
X333787Y685188D01*
X333726Y685214D01*
X333668Y685247D01*
X333498Y685309D01*
X333332Y685379D01*
X333268Y685395D01*
X333205Y685418D01*
X333028Y685453D01*
X332853Y685495D01*
X332786Y685500D01*
X332721Y685513D01*
X332541Y685518D01*
X332361Y685532D01*
X332294Y685526D01*
X332228Y685528D01*
X332049Y685505D01*
X331869Y685489D01*
X331818Y685474D01*
X331739Y685464D01*
X331267Y685321D01*
X331236Y685306D01*
X331214Y685300D01*
X330956Y685193D01*
X329044Y685193D01*
X327277Y685925D01*
X325925Y687277D01*
X325193Y689044D01*
X325193Y690956D01*
X325925Y692723D01*
X326535Y693333D01*
X326609Y693419D01*
X326690Y693500D01*
X326768Y693607D01*
X326854Y693708D01*
X326913Y693806D01*
X326980Y693899D01*
X327040Y694017D01*
X327109Y694131D01*
X327151Y694237D01*
X327203Y694339D01*
X327243Y694466D01*
X327292Y694589D01*
X327317Y694700D01*
X327351Y694809D01*
X327361Y694903D01*
X327399Y695071D01*
X327417Y695395D01*
X327427Y695487D01*
X327427Y708772D01*
X327468Y709043D01*
X327466Y709174D01*
X327475Y709252D01*
X327475Y713412D01*
X327469Y713488D01*
X327471Y713564D01*
X327449Y713733D01*
X327435Y713904D01*
X327417Y713978D01*
X327407Y714053D01*
X327358Y714217D01*
X327317Y714383D01*
X327287Y714452D01*
X327265Y714526D01*
X327189Y714679D01*
X327122Y714836D01*
X327081Y714900D01*
X327048Y714969D01*
X326949Y715108D01*
X326857Y715252D01*
X326806Y715309D01*
X326762Y715371D01*
X326642Y715492D01*
X326528Y715620D01*
X326469Y715668D01*
X326415Y715722D01*
X326277Y715823D01*
X326144Y715930D01*
X326078Y715967D01*
X326017Y716012D01*
X325864Y716089D01*
X325716Y716174D01*
X325644Y716200D01*
X325576Y716235D01*
X325413Y716286D01*
X325253Y716345D01*
X325178Y716360D01*
X325106Y716383D01*
X325001Y716395D01*
X324769Y716440D01*
X324533Y716447D01*
X324428Y716459D01*
X320667Y716459D01*
X320667Y718953D01*
X327600Y718953D01*
X327604Y718926D01*
X327653Y718762D01*
X327694Y718596D01*
X327724Y718527D01*
X327746Y718453D01*
X327822Y718300D01*
X327889Y718143D01*
X327930Y718079D01*
X327963Y718010D01*
X328062Y717871D01*
X328154Y717727D01*
X328205Y717670D01*
X328249Y717608D01*
X328369Y717487D01*
X328483Y717359D01*
X328542Y717311D01*
X328596Y717257D01*
X328734Y717156D01*
X328867Y717049D01*
X328933Y717012D01*
X328994Y716967D01*
X329147Y716890D01*
X329295Y716805D01*
X329367Y716779D01*
X329435Y716744D01*
X329598Y716693D01*
X329758Y716634D01*
X329833Y716619D01*
X329905Y716596D01*
X330010Y716584D01*
X330242Y716539D01*
X330478Y716532D01*
X330583Y716520D01*
X390433Y716520D01*
X390509Y716526D01*
X390585Y716524D01*
X390754Y716546D01*
X390925Y716560D01*
X390999Y716578D01*
X391074Y716588D01*
X391238Y716637D01*
X391404Y716678D01*
X391473Y716708D01*
X391547Y716730D01*
X391700Y716806D01*
X391857Y716873D01*
X391921Y716914D01*
X391990Y716947D01*
X392129Y717046D01*
X392273Y717138D01*
X392330Y717189D01*
X392392Y717233D01*
X392513Y717353D01*
X392641Y717467D01*
X392689Y717526D01*
X392743Y717580D01*
X392844Y717718D01*
X392951Y717851D01*
X392988Y717917D01*
X393033Y717978D01*
X393110Y718131D01*
X393195Y718279D01*
X393221Y718351D01*
X393256Y718419D01*
X393307Y718582D01*
X393366Y718742D01*
X393381Y718817D01*
X393404Y718889D01*
X393416Y718994D01*
X393461Y719226D01*
X393468Y719462D01*
X393480Y719567D01*
X393480Y771743D01*
X393463Y771951D01*
X393452Y772160D01*
X393443Y772197D01*
X393440Y772235D01*
X393390Y772437D01*
X393345Y772641D01*
X393332Y772670D01*
X393322Y772713D01*
X393127Y773167D01*
X393090Y773225D01*
X393072Y773267D01*
X392637Y774019D01*
X392464Y774665D01*
X392464Y774953D01*
X402380Y774953D01*
X412296Y774953D01*
X412296Y774665D01*
X412123Y774019D01*
X411688Y773267D01*
X411598Y773077D01*
X411504Y772891D01*
X411493Y772855D01*
X411477Y772821D01*
X411419Y772620D01*
X411356Y772421D01*
X411353Y772390D01*
X411340Y772347D01*
X411282Y771857D01*
X411285Y771788D01*
X411280Y771743D01*
X411280Y746048D01*
X411286Y745972D01*
X411284Y745896D01*
X411306Y745727D01*
X411320Y745556D01*
X411338Y745482D01*
X411348Y745407D01*
X411397Y745243D01*
X411438Y745077D01*
X411468Y745008D01*
X411490Y744934D01*
X411566Y744781D01*
X411633Y744624D01*
X411674Y744560D01*
X411707Y744491D01*
X411806Y744352D01*
X411898Y744208D01*
X411949Y744151D01*
X411993Y744089D01*
X412113Y743968D01*
X412227Y743840D01*
X412286Y743792D01*
X412340Y743738D01*
X412478Y743637D01*
X412611Y743530D01*
X412677Y743493D01*
X412738Y743448D01*
X412891Y743371D01*
X413039Y743286D01*
X413111Y743260D01*
X413179Y743225D01*
X413342Y743174D01*
X413502Y743115D01*
X413577Y743100D01*
X413649Y743077D01*
X413754Y743065D01*
X413986Y743020D01*
X414222Y743013D01*
X414327Y743001D01*
X426582Y743001D01*
X426696Y743010D01*
X426810Y743009D01*
X426942Y743030D01*
X427074Y743041D01*
X427185Y743068D01*
X427298Y743086D01*
X427424Y743127D01*
X427553Y743159D01*
X427658Y743204D01*
X427766Y743240D01*
X427884Y743301D01*
X428006Y743354D01*
X428103Y743415D01*
X428204Y743468D01*
X428277Y743527D01*
X428422Y743619D01*
X428664Y743835D01*
X428737Y743893D01*
X430534Y745690D01*
X430583Y745748D01*
X430639Y745800D01*
X430743Y745936D01*
X430853Y746066D01*
X430892Y746131D01*
X430939Y746192D01*
X431020Y746342D01*
X431108Y746488D01*
X431136Y746559D01*
X431172Y746626D01*
X431228Y746788D01*
X431291Y746947D01*
X431307Y747021D01*
X431332Y747093D01*
X431361Y747261D01*
X431398Y747428D01*
X431402Y747504D01*
X431415Y747579D01*
X431416Y747750D01*
X431425Y747921D01*
X431417Y747997D01*
X431418Y748073D01*
X431391Y748242D01*
X431373Y748411D01*
X431353Y748485D01*
X431341Y748560D01*
X431288Y748723D01*
X431242Y748887D01*
X431211Y748956D01*
X431187Y749029D01*
X431108Y749180D01*
X431037Y749335D01*
X430994Y749399D01*
X430959Y749466D01*
X430893Y749549D01*
X430761Y749745D01*
X430599Y749917D01*
X430534Y749999D01*
X427838Y752695D01*
X426123Y754410D01*
X425427Y756090D01*
X425427Y776844D01*
X425418Y776957D01*
X425419Y777072D01*
X425398Y777203D01*
X425387Y777335D01*
X425360Y777446D01*
X425342Y777559D01*
X425301Y777685D01*
X425269Y777814D01*
X425224Y777919D01*
X425188Y778028D01*
X425126Y778146D01*
X425074Y778268D01*
X425013Y778364D01*
X424960Y778465D01*
X424901Y778539D01*
X424809Y778684D01*
X424593Y778926D01*
X424535Y778998D01*
X416618Y786915D01*
X416531Y786989D01*
X416451Y787070D01*
X416344Y787148D01*
X416242Y787234D01*
X416145Y787293D01*
X416052Y787360D01*
X415934Y787420D01*
X415820Y787489D01*
X415714Y787531D01*
X415612Y787583D01*
X415485Y787623D01*
X415362Y787672D01*
X415251Y787697D01*
X415141Y787731D01*
X415048Y787741D01*
X414880Y787779D01*
X414556Y787797D01*
X414464Y787807D01*
X413898Y787807D01*
X413859Y787804D01*
X413821Y787806D01*
X413614Y787784D01*
X413406Y787767D01*
X413369Y787758D01*
X413331Y787754D01*
X413130Y787699D01*
X412927Y787649D01*
X412892Y787634D01*
X412855Y787623D01*
X412666Y787536D01*
X412474Y787454D01*
X412441Y787434D01*
X412407Y787418D01*
X412233Y787301D01*
X412058Y787189D01*
X412029Y787164D01*
X411997Y787142D01*
X411845Y786999D01*
X411690Y786860D01*
X411666Y786831D01*
X411638Y786804D01*
X411511Y786638D01*
X411380Y786476D01*
X411361Y786443D01*
X411338Y786413D01*
X411239Y786229D01*
X411136Y786048D01*
X411122Y786012D01*
X411104Y785978D01*
X411036Y785780D01*
X410964Y785585D01*
X410957Y785548D01*
X410944Y785512D01*
X410909Y785306D01*
X410869Y785101D01*
X410868Y785063D01*
X410862Y785025D01*
X410861Y784816D01*
X410854Y784608D01*
X410859Y784570D01*
X410859Y784532D01*
X410891Y784326D01*
X410919Y784119D01*
X410930Y784082D01*
X410936Y784045D01*
X411001Y783847D01*
X411061Y783647D01*
X411078Y783612D01*
X411090Y783576D01*
X411186Y783391D01*
X411278Y783203D01*
X411300Y783172D01*
X411318Y783138D01*
X411376Y783066D01*
X411563Y782801D01*
X411684Y782679D01*
X411743Y782605D01*
X411788Y782560D01*
X412123Y781981D01*
X412296Y781335D01*
X412296Y781047D01*
X402380Y781047D01*
X392400Y781047D01*
X392396Y781074D01*
X392347Y781238D01*
X392306Y781404D01*
X392276Y781473D01*
X392254Y781547D01*
X392178Y781700D01*
X392111Y781857D01*
X392070Y781921D01*
X392037Y781990D01*
X391938Y782129D01*
X391846Y782273D01*
X391795Y782330D01*
X391751Y782392D01*
X391631Y782513D01*
X391517Y782641D01*
X391458Y782689D01*
X391404Y782743D01*
X391266Y782844D01*
X391133Y782951D01*
X391067Y782988D01*
X391006Y783033D01*
X390853Y783110D01*
X390705Y783195D01*
X390633Y783221D01*
X390565Y783256D01*
X390402Y783307D01*
X390242Y783366D01*
X390167Y783381D01*
X390095Y783404D01*
X389990Y783416D01*
X389758Y783461D01*
X389522Y783468D01*
X389417Y783480D01*
X329567Y783480D01*
X329491Y783474D01*
X329415Y783476D01*
X329246Y783454D01*
X329075Y783440D01*
X329001Y783422D01*
X328926Y783412D01*
X328762Y783363D01*
X328596Y783322D01*
X328527Y783292D01*
X328453Y783270D01*
X328300Y783194D01*
X328143Y783127D01*
X328079Y783086D01*
X328010Y783053D01*
X327871Y782954D01*
X327727Y782862D01*
X327670Y782811D01*
X327608Y782767D01*
X327487Y782647D01*
X327359Y782533D01*
X327311Y782474D01*
X327257Y782420D01*
X327156Y782282D01*
X327049Y782149D01*
X327012Y782083D01*
X326967Y782022D01*
X326890Y781869D01*
X326805Y781721D01*
X326779Y781649D01*
X326744Y781581D01*
X326693Y781418D01*
X326634Y781258D01*
X326619Y781183D01*
X326596Y781111D01*
X326584Y781006D01*
X326539Y780774D01*
X326532Y780538D01*
X326520Y780433D01*
X326520Y728257D01*
X326537Y728049D01*
X326548Y727840D01*
X326557Y727803D01*
X326560Y727765D01*
X326610Y727563D01*
X326655Y727359D01*
X326668Y727330D01*
X326678Y727287D01*
X326873Y726833D01*
X326910Y726775D01*
X326928Y726733D01*
X327363Y725981D01*
X327536Y725335D01*
X327536Y725047D01*
X317620Y725047D01*
X307704Y725047D01*
X307704Y725335D01*
X307877Y725981D01*
X308312Y726733D01*
X308402Y726923D01*
X308496Y727109D01*
X308507Y727145D01*
X308523Y727179D01*
X308581Y727380D01*
X308644Y727579D01*
X308647Y727610D01*
X308660Y727653D01*
X308718Y728143D01*
X308715Y728212D01*
X308720Y728257D01*
X308720Y746380D01*
X308714Y746456D01*
X308716Y746532D01*
X308694Y746701D01*
X308680Y746872D01*
X308662Y746946D01*
X308652Y747021D01*
X308603Y747185D01*
X308562Y747351D01*
X308532Y747420D01*
X308510Y747494D01*
X308434Y747647D01*
X308367Y747804D01*
X308326Y747868D01*
X308293Y747937D01*
X308194Y748076D01*
X308102Y748220D01*
X308051Y748277D01*
X308007Y748339D01*
X307887Y748460D01*
X307773Y748588D01*
X307714Y748636D01*
X307660Y748690D01*
X307522Y748791D01*
X307389Y748898D01*
X307323Y748935D01*
X307262Y748980D01*
X307109Y749057D01*
X306961Y749142D01*
X306889Y749168D01*
X306821Y749203D01*
X306658Y749254D01*
X306498Y749313D01*
X306423Y749328D01*
X306351Y749351D01*
X306246Y749363D01*
X306014Y749408D01*
X305778Y749415D01*
X305673Y749427D01*
X287156Y749427D01*
X287043Y749418D01*
X286928Y749419D01*
X286797Y749398D01*
X286665Y749387D01*
X286554Y749360D01*
X286441Y749342D01*
X286315Y749301D01*
X286186Y749269D01*
X286081Y749224D01*
X285972Y749188D01*
X285854Y749126D01*
X285732Y749074D01*
X285636Y749013D01*
X285535Y748960D01*
X285461Y748901D01*
X285316Y748809D01*
X285074Y748593D01*
X285002Y748535D01*
X221845Y685378D01*
X221771Y685291D01*
X221690Y685211D01*
X221612Y685104D01*
X221526Y685003D01*
X221467Y684905D01*
X221400Y684812D01*
X221340Y684694D01*
X221271Y684580D01*
X221229Y684474D01*
X221177Y684372D01*
X221137Y684245D01*
X221088Y684122D01*
X221063Y684011D01*
X221029Y683901D01*
X221019Y683808D01*
X220981Y683640D01*
X220963Y683316D01*
X220953Y683224D01*
X220953Y627928D01*
X220956Y627890D01*
X220954Y627852D01*
X220976Y627644D01*
X220993Y627436D01*
X221002Y627399D01*
X221006Y627361D01*
X221061Y627160D01*
X221111Y626957D01*
X221126Y626922D01*
X221137Y626885D01*
X221224Y626696D01*
X221306Y626504D01*
X221326Y626472D01*
X221342Y626437D01*
X221459Y626264D01*
X221571Y626088D01*
X221596Y626059D01*
X221618Y626028D01*
X221761Y625876D01*
X221900Y625720D01*
X221929Y625696D01*
X221956Y625668D01*
X222122Y625541D01*
X222284Y625410D01*
X222317Y625391D01*
X222347Y625368D01*
X222531Y625269D01*
X222712Y625166D01*
X222748Y625153D01*
X222782Y625135D01*
X222979Y625067D01*
X223175Y624994D01*
X223212Y624987D01*
X223248Y624975D01*
X223455Y624940D01*
X223659Y624900D01*
X223697Y624898D01*
X223735Y624892D01*
X223944Y624891D01*
X224152Y624884D01*
X224190Y624889D01*
X224228Y624889D01*
X224435Y624921D01*
X224641Y624949D01*
X224678Y624960D01*
X224715Y624966D01*
X224914Y625031D01*
X225114Y625091D01*
X225148Y625108D01*
X225184Y625120D01*
X225369Y625216D01*
X225557Y625308D01*
X225588Y625330D01*
X225622Y625348D01*
X225694Y625406D01*
X225959Y625594D01*
X226081Y625714D01*
X226155Y625773D01*
X229120Y628738D01*
X239023Y633784D01*
X250000Y635523D01*
X260977Y633784D01*
X270880Y628738D01*
X278738Y620880D01*
X283784Y610977D01*
X285523Y600000D01*
X283784Y589023D01*
X278738Y579120D01*
X270880Y571262D01*
X260977Y566216D01*
X250000Y564477D01*
X239023Y566216D01*
X229120Y571262D01*
X226155Y574227D01*
X226126Y574252D01*
X226100Y574280D01*
X225938Y574411D01*
X225779Y574546D01*
X225746Y574566D01*
X225716Y574590D01*
X225535Y574693D01*
X225356Y574801D01*
X225321Y574815D01*
X225288Y574834D01*
X225092Y574907D01*
X224898Y574984D01*
X224861Y574992D01*
X224825Y575006D01*
X224620Y575046D01*
X224417Y575091D01*
X224378Y575093D01*
X224341Y575100D01*
X224133Y575107D01*
X223924Y575119D01*
X223886Y575115D01*
X223848Y575116D01*
X223641Y575089D01*
X223433Y575066D01*
X223397Y575056D01*
X223359Y575051D01*
X223159Y574991D01*
X222958Y574936D01*
X222923Y574920D01*
X222887Y574909D01*
X222699Y574817D01*
X222509Y574730D01*
X222478Y574709D01*
X222443Y574692D01*
X222273Y574571D01*
X222100Y574455D01*
X222072Y574428D01*
X222041Y574406D01*
X221892Y574260D01*
X221740Y574117D01*
X221717Y574087D01*
X221690Y574060D01*
X221567Y573891D01*
X221440Y573725D01*
X221422Y573692D01*
X221400Y573661D01*
X221306Y573475D01*
X221207Y573291D01*
X221195Y573254D01*
X221177Y573221D01*
X221115Y573022D01*
X221047Y572824D01*
X221041Y572786D01*
X221029Y572750D01*
X221019Y572658D01*
X220964Y572338D01*
X220963Y572166D01*
X220953Y572072D01*
X220953Y547708D01*
X220959Y547632D01*
X220957Y547556D01*
X220979Y547387D01*
X220993Y547216D01*
X221011Y547142D01*
X221021Y547067D01*
X221070Y546903D01*
X221111Y546737D01*
X221141Y546668D01*
X221163Y546594D01*
X221239Y546441D01*
X221306Y546284D01*
X221347Y546220D01*
X221380Y546151D01*
X221479Y546012D01*
X221571Y545868D01*
X221622Y545811D01*
X221666Y545749D01*
X221786Y545628D01*
X221900Y545500D01*
X221959Y545452D01*
X222013Y545398D01*
X222151Y545297D01*
X222284Y545190D01*
X222350Y545153D01*
X222411Y545108D01*
X222564Y545031D01*
X222712Y544946D01*
X222784Y544920D01*
X222852Y544885D01*
X223015Y544834D01*
X223175Y544775D01*
X223250Y544760D01*
X223322Y544737D01*
X223427Y544725D01*
X223659Y544680D01*
X223895Y544673D01*
X224000Y544661D01*
X231156Y544661D01*
X231336Y544675D01*
G37*
G36*
X208114Y970962D02*
X208114Y970962D01*
X208228Y970961D01*
X208359Y970982D01*
X208492Y970993D01*
X208602Y971020D01*
X208715Y971038D01*
X208842Y971079D01*
X208971Y971111D01*
X209075Y971156D01*
X209184Y971192D01*
X209302Y971254D01*
X209424Y971306D01*
X209520Y971367D01*
X209622Y971420D01*
X209695Y971479D01*
X209840Y971571D01*
X210082Y971787D01*
X210155Y971845D01*
X261155Y1022845D01*
X261229Y1022932D01*
X261310Y1023013D01*
X261388Y1023120D01*
X261474Y1023221D01*
X261533Y1023319D01*
X261600Y1023411D01*
X261660Y1023530D01*
X261729Y1023644D01*
X261771Y1023750D01*
X261823Y1023852D01*
X261863Y1023979D01*
X261912Y1024102D01*
X261937Y1024213D01*
X261971Y1024322D01*
X261981Y1024416D01*
X262019Y1024584D01*
X262037Y1024908D01*
X262047Y1025000D01*
X262047Y1105000D01*
X262038Y1105114D01*
X262039Y1105228D01*
X262018Y1105359D01*
X262007Y1105492D01*
X261980Y1105602D01*
X261962Y1105715D01*
X261921Y1105842D01*
X261889Y1105971D01*
X261844Y1106075D01*
X261808Y1106184D01*
X261746Y1106302D01*
X261694Y1106424D01*
X261633Y1106520D01*
X261580Y1106622D01*
X261521Y1106695D01*
X261429Y1106840D01*
X261333Y1106947D01*
X261302Y1106991D01*
X261218Y1107076D01*
X261213Y1107082D01*
X261155Y1107155D01*
X247313Y1120997D01*
X247220Y1121076D01*
X247134Y1121162D01*
X247032Y1121235D01*
X246937Y1121316D01*
X246832Y1121379D01*
X246733Y1121450D01*
X246622Y1121506D01*
X246514Y1121571D01*
X246401Y1121616D01*
X246292Y1121671D01*
X246205Y1121695D01*
X246056Y1121754D01*
X245716Y1121829D01*
X245635Y1121852D01*
X237023Y1123216D01*
X236043Y1123715D01*
X235923Y1123764D01*
X235808Y1123823D01*
X235696Y1123858D01*
X235587Y1123903D01*
X235461Y1123932D01*
X235337Y1123971D01*
X235252Y1123981D01*
X235106Y1124014D01*
X234732Y1124039D01*
X234660Y1124047D01*
X232262Y1124047D01*
X229353Y1126957D01*
X229249Y1127045D01*
X229151Y1127141D01*
X229083Y1127186D01*
X228977Y1127276D01*
X228629Y1127486D01*
X228582Y1127517D01*
X227120Y1128262D01*
X219262Y1136120D01*
X218517Y1137582D01*
X218445Y1137698D01*
X218382Y1137820D01*
X218331Y1137884D01*
X218258Y1138002D01*
X217992Y1138309D01*
X217957Y1138353D01*
X215047Y1141262D01*
X215047Y1143660D01*
X215037Y1143788D01*
X215036Y1143918D01*
X215017Y1144034D01*
X215007Y1144151D01*
X214976Y1144277D01*
X214955Y1144405D01*
X214925Y1144485D01*
X214889Y1144630D01*
X214741Y1144975D01*
X214715Y1145043D01*
X214216Y1146023D01*
X212477Y1157000D01*
X214216Y1167977D01*
X219262Y1177880D01*
X223155Y1181773D01*
X223229Y1181860D01*
X223310Y1181940D01*
X223388Y1182048D01*
X223474Y1182149D01*
X223533Y1182247D01*
X223600Y1182339D01*
X223660Y1182458D01*
X223729Y1182571D01*
X223771Y1182677D01*
X223823Y1182779D01*
X223863Y1182906D01*
X223912Y1183030D01*
X223937Y1183141D01*
X223971Y1183250D01*
X223981Y1183343D01*
X224019Y1183511D01*
X224037Y1183835D01*
X224047Y1183928D01*
X224047Y1186792D01*
X224041Y1186868D01*
X224043Y1186944D01*
X224021Y1187113D01*
X224007Y1187284D01*
X223989Y1187358D01*
X223979Y1187433D01*
X223930Y1187597D01*
X223889Y1187763D01*
X223859Y1187832D01*
X223837Y1187906D01*
X223761Y1188059D01*
X223694Y1188216D01*
X223653Y1188280D01*
X223620Y1188349D01*
X223521Y1188488D01*
X223429Y1188632D01*
X223378Y1188689D01*
X223334Y1188751D01*
X223214Y1188872D01*
X223100Y1189000D01*
X223041Y1189048D01*
X222987Y1189102D01*
X222849Y1189203D01*
X222716Y1189310D01*
X222650Y1189347D01*
X222589Y1189392D01*
X222436Y1189469D01*
X222288Y1189554D01*
X222216Y1189580D01*
X222148Y1189615D01*
X221985Y1189666D01*
X221825Y1189725D01*
X221750Y1189740D01*
X221678Y1189763D01*
X221573Y1189775D01*
X221341Y1189820D01*
X221105Y1189827D01*
X221000Y1189839D01*
X149461Y1189839D01*
X149333Y1189829D01*
X149205Y1189828D01*
X149088Y1189809D01*
X148969Y1189799D01*
X148844Y1189768D01*
X148718Y1189747D01*
X148606Y1189709D01*
X148490Y1189681D01*
X148372Y1189630D01*
X148251Y1189589D01*
X148146Y1189533D01*
X148037Y1189486D01*
X147929Y1189417D01*
X147815Y1189357D01*
X147721Y1189285D01*
X147621Y1189221D01*
X147525Y1189136D01*
X147423Y1189058D01*
X147342Y1188971D01*
X147253Y1188892D01*
X147172Y1188792D01*
X147084Y1188699D01*
X147018Y1188601D01*
X146943Y1188508D01*
X146880Y1188397D01*
X146808Y1188291D01*
X146758Y1188183D01*
X146699Y1188080D01*
X146654Y1187959D01*
X146601Y1187843D01*
X146569Y1187728D01*
X146527Y1187617D01*
X146503Y1187491D01*
X146468Y1187368D01*
X146456Y1187249D01*
X146433Y1187133D01*
X146429Y1187005D01*
X146415Y1186877D01*
X146422Y1186791D01*
X146417Y1186640D01*
X146466Y1186272D01*
X146472Y1186198D01*
X146641Y1185350D01*
X146641Y1183047D01*
X139750Y1183047D01*
X120250Y1183047D01*
X113359Y1183047D01*
X113359Y1185350D01*
X113528Y1186198D01*
X113543Y1186325D01*
X113567Y1186451D01*
X113571Y1186569D01*
X113585Y1186688D01*
X113579Y1186816D01*
X113583Y1186944D01*
X113567Y1187062D01*
X113562Y1187180D01*
X113535Y1187306D01*
X113518Y1187433D01*
X113484Y1187547D01*
X113459Y1187663D01*
X113413Y1187782D01*
X113376Y1187906D01*
X113323Y1188012D01*
X113280Y1188123D01*
X113215Y1188233D01*
X113159Y1188349D01*
X113090Y1188445D01*
X113030Y1188548D01*
X112948Y1188646D01*
X112873Y1188751D01*
X112790Y1188835D01*
X112714Y1188927D01*
X112617Y1189011D01*
X112527Y1189102D01*
X112431Y1189172D01*
X112341Y1189250D01*
X112232Y1189317D01*
X112128Y1189392D01*
X112022Y1189446D01*
X111921Y1189508D01*
X111802Y1189557D01*
X111687Y1189615D01*
X111574Y1189650D01*
X111464Y1189695D01*
X111340Y1189724D01*
X111217Y1189763D01*
X111130Y1189773D01*
X110984Y1189807D01*
X110613Y1189831D01*
X110539Y1189839D01*
X108907Y1189839D01*
X108726Y1189825D01*
X108545Y1189818D01*
X108480Y1189805D01*
X108415Y1189799D01*
X108239Y1189756D01*
X108061Y1189720D01*
X108000Y1189696D01*
X107936Y1189681D01*
X107770Y1189609D01*
X107600Y1189545D01*
X107543Y1189512D01*
X107483Y1189486D01*
X107330Y1189389D01*
X107173Y1189298D01*
X107122Y1189256D01*
X107067Y1189221D01*
X106932Y1189100D01*
X106791Y1188985D01*
X106748Y1188936D01*
X106699Y1188892D01*
X106585Y1188751D01*
X106465Y1188615D01*
X106430Y1188559D01*
X106389Y1188508D01*
X106299Y1188351D01*
X106203Y1188197D01*
X106178Y1188137D01*
X106145Y1188080D01*
X106082Y1187910D01*
X106012Y1187743D01*
X105996Y1187679D01*
X105973Y1187617D01*
X105939Y1187439D01*
X105896Y1187263D01*
X105891Y1187197D01*
X105879Y1187133D01*
X105873Y1186952D01*
X105860Y1186771D01*
X105865Y1186705D01*
X105863Y1186640D01*
X105887Y1186460D01*
X105903Y1186279D01*
X105918Y1186229D01*
X105928Y1186151D01*
X105957Y1186056D01*
X106191Y1184878D01*
X106191Y1183047D01*
X98400Y1183047D01*
X98324Y1183041D01*
X98248Y1183044D01*
X98079Y1183021D01*
X97909Y1183007D01*
X97835Y1182989D01*
X97759Y1182979D01*
X97595Y1182930D01*
X97430Y1182889D01*
X97360Y1182859D01*
X97287Y1182837D01*
X97133Y1182762D01*
X96976Y1182694D01*
X96912Y1182653D01*
X96844Y1182620D01*
X96704Y1182521D01*
X96560Y1182429D01*
X96504Y1182378D01*
X96441Y1182334D01*
X96320Y1182214D01*
X96192Y1182100D01*
X96144Y1182041D01*
X96090Y1181987D01*
X95989Y1181849D01*
X95882Y1181716D01*
X95844Y1181650D01*
X95799Y1181588D01*
X95723Y1181436D01*
X95638Y1181287D01*
X95611Y1181216D01*
X95577Y1181148D01*
X95526Y1180985D01*
X95466Y1180825D01*
X95452Y1180750D01*
X95429Y1180677D01*
X95417Y1180573D01*
X95372Y1180341D01*
X95364Y1180105D01*
X95353Y1180000D01*
X95353Y1170559D01*
X95172Y1170559D01*
X94194Y1170754D01*
X93273Y1171135D01*
X92444Y1171689D01*
X91700Y1172433D01*
X91682Y1172460D01*
X91601Y1172547D01*
X91527Y1172640D01*
X91432Y1172726D01*
X91344Y1172820D01*
X91250Y1172892D01*
X91162Y1172972D01*
X91055Y1173042D01*
X90953Y1173120D01*
X90848Y1173176D01*
X90749Y1173241D01*
X90631Y1173292D01*
X90518Y1173353D01*
X90406Y1173392D01*
X90297Y1173439D01*
X90173Y1173471D01*
X90051Y1173513D01*
X89934Y1173533D01*
X89819Y1173563D01*
X89691Y1173574D01*
X89565Y1173596D01*
X89446Y1173596D01*
X89328Y1173607D01*
X89200Y1173598D01*
X89072Y1173599D01*
X88954Y1173580D01*
X88836Y1173572D01*
X88711Y1173542D01*
X88584Y1173522D01*
X88472Y1173485D01*
X88356Y1173458D01*
X88237Y1173408D01*
X88116Y1173368D01*
X88011Y1173313D01*
X87901Y1173267D01*
X87792Y1173199D01*
X87678Y1173140D01*
X87610Y1173086D01*
X87482Y1173006D01*
X87203Y1172761D01*
X87145Y1172715D01*
X86621Y1172191D01*
X85135Y1171575D01*
X78804Y1171575D01*
X78691Y1171566D01*
X78576Y1171567D01*
X78445Y1171546D01*
X78313Y1171535D01*
X78202Y1171508D01*
X78089Y1171490D01*
X77963Y1171449D01*
X77834Y1171417D01*
X77729Y1171372D01*
X77620Y1171336D01*
X77502Y1171274D01*
X77380Y1171222D01*
X77284Y1171161D01*
X77183Y1171108D01*
X77109Y1171049D01*
X76964Y1170957D01*
X76722Y1170740D01*
X76650Y1170683D01*
X68417Y1162450D01*
X68343Y1162363D01*
X68262Y1162283D01*
X68184Y1162176D01*
X68098Y1162074D01*
X68039Y1161977D01*
X67972Y1161884D01*
X67912Y1161766D01*
X67843Y1161652D01*
X67801Y1161546D01*
X67749Y1161444D01*
X67709Y1161317D01*
X67660Y1161194D01*
X67635Y1161083D01*
X67601Y1160973D01*
X67591Y1160880D01*
X67553Y1160712D01*
X67535Y1160388D01*
X67525Y1160296D01*
X67525Y1153868D01*
X65811Y1152155D01*
X65762Y1152097D01*
X65706Y1152045D01*
X65602Y1151909D01*
X65492Y1151779D01*
X65452Y1151713D01*
X65406Y1151653D01*
X65325Y1151503D01*
X65237Y1151356D01*
X65209Y1151286D01*
X65173Y1151218D01*
X65117Y1151057D01*
X65054Y1150898D01*
X65037Y1150824D01*
X65013Y1150752D01*
X64984Y1150583D01*
X64947Y1150417D01*
X64943Y1150340D01*
X64930Y1150265D01*
X64929Y1150094D01*
X64919Y1149924D01*
X64928Y1149848D01*
X64927Y1149772D01*
X64954Y1149603D01*
X64972Y1149433D01*
X64992Y1149360D01*
X65004Y1149285D01*
X65057Y1149122D01*
X65102Y1148958D01*
X65134Y1148888D01*
X65158Y1148816D01*
X65237Y1148664D01*
X65308Y1148509D01*
X65351Y1148446D01*
X65386Y1148378D01*
X65451Y1148296D01*
X65583Y1148100D01*
X65746Y1147927D01*
X65811Y1147845D01*
X67525Y1146132D01*
X67525Y1132868D01*
X66340Y1131684D01*
X66196Y1131622D01*
X66132Y1131581D01*
X66063Y1131548D01*
X65924Y1131449D01*
X65780Y1131357D01*
X65723Y1131306D01*
X65661Y1131262D01*
X65540Y1131142D01*
X65412Y1131028D01*
X65364Y1130969D01*
X65310Y1130915D01*
X65209Y1130777D01*
X65102Y1130644D01*
X65065Y1130578D01*
X65020Y1130517D01*
X64943Y1130364D01*
X64858Y1130216D01*
X64832Y1130144D01*
X64797Y1130076D01*
X64746Y1129913D01*
X64687Y1129753D01*
X64672Y1129678D01*
X64649Y1129606D01*
X64637Y1129501D01*
X64592Y1129269D01*
X64585Y1129033D01*
X64573Y1128928D01*
X64573Y1108097D01*
X64590Y1107879D01*
X64604Y1107661D01*
X64610Y1107634D01*
X64613Y1107605D01*
X64665Y1107394D01*
X64714Y1107181D01*
X64725Y1107154D01*
X64731Y1107127D01*
X64817Y1106926D01*
X64900Y1106724D01*
X64915Y1106699D01*
X64926Y1106673D01*
X65043Y1106489D01*
X65157Y1106303D01*
X65176Y1106281D01*
X65191Y1106257D01*
X65336Y1106094D01*
X65479Y1105929D01*
X65501Y1105910D01*
X65520Y1105889D01*
X65689Y1105752D01*
X65857Y1105612D01*
X65878Y1105600D01*
X65904Y1105579D01*
X66056Y1105493D01*
X66075Y1105479D01*
X66122Y1105455D01*
X66332Y1105335D01*
X66408Y1105307D01*
X66454Y1105282D01*
X67002Y1105055D01*
X68055Y1104002D01*
X68625Y1102626D01*
X68625Y1096874D01*
X68055Y1095498D01*
X67002Y1094445D01*
X65626Y1093875D01*
X54374Y1093875D01*
X52998Y1094445D01*
X51945Y1095498D01*
X51375Y1096874D01*
X51375Y1102626D01*
X51945Y1104002D01*
X52998Y1105055D01*
X53546Y1105282D01*
X53681Y1105351D01*
X53760Y1105385D01*
X53802Y1105412D01*
X53937Y1105477D01*
X53960Y1105494D01*
X53985Y1105507D01*
X54161Y1105637D01*
X54339Y1105763D01*
X54359Y1105783D01*
X54382Y1105800D01*
X54535Y1105957D01*
X54690Y1106110D01*
X54707Y1106133D01*
X54727Y1106153D01*
X54852Y1106333D01*
X54980Y1106508D01*
X54993Y1106534D01*
X55009Y1106557D01*
X55104Y1106754D01*
X55203Y1106949D01*
X55211Y1106976D01*
X55224Y1107002D01*
X55285Y1107211D01*
X55351Y1107419D01*
X55354Y1107443D01*
X55363Y1107475D01*
X55424Y1107964D01*
X55421Y1108045D01*
X55427Y1108097D01*
X55427Y1128928D01*
X55421Y1129004D01*
X55423Y1129080D01*
X55401Y1129249D01*
X55387Y1129420D01*
X55369Y1129494D01*
X55359Y1129569D01*
X55310Y1129733D01*
X55269Y1129899D01*
X55239Y1129968D01*
X55217Y1130042D01*
X55141Y1130195D01*
X55074Y1130352D01*
X55033Y1130416D01*
X55000Y1130485D01*
X54901Y1130624D01*
X54809Y1130768D01*
X54758Y1130825D01*
X54714Y1130887D01*
X54594Y1131008D01*
X54480Y1131136D01*
X54421Y1131184D01*
X54367Y1131238D01*
X54229Y1131339D01*
X54096Y1131446D01*
X54030Y1131483D01*
X53969Y1131528D01*
X53816Y1131605D01*
X53668Y1131690D01*
X53646Y1131698D01*
X52475Y1132868D01*
X52475Y1146132D01*
X54189Y1147845D01*
X54238Y1147903D01*
X54294Y1147956D01*
X54398Y1148091D01*
X54508Y1148221D01*
X54548Y1148286D01*
X54594Y1148347D01*
X54675Y1148497D01*
X54763Y1148644D01*
X54791Y1148715D01*
X54827Y1148782D01*
X54883Y1148943D01*
X54946Y1149102D01*
X54963Y1149176D01*
X54987Y1149248D01*
X55016Y1149417D01*
X55053Y1149584D01*
X55057Y1149660D01*
X55070Y1149735D01*
X55071Y1149906D01*
X55081Y1150076D01*
X55072Y1150152D01*
X55073Y1150228D01*
X55046Y1150397D01*
X55028Y1150567D01*
X55008Y1150640D01*
X54996Y1150715D01*
X54943Y1150878D01*
X54898Y1151042D01*
X54866Y1151112D01*
X54842Y1151184D01*
X54763Y1151335D01*
X54692Y1151491D01*
X54649Y1151554D01*
X54614Y1151622D01*
X54549Y1151704D01*
X54417Y1151900D01*
X54255Y1152072D01*
X54189Y1152155D01*
X52475Y1153868D01*
X52475Y1160296D01*
X52466Y1160409D01*
X52467Y1160524D01*
X52446Y1160655D01*
X52435Y1160787D01*
X52408Y1160898D01*
X52390Y1161011D01*
X52349Y1161137D01*
X52317Y1161266D01*
X52272Y1161371D01*
X52236Y1161480D01*
X52174Y1161598D01*
X52122Y1161720D01*
X52061Y1161816D01*
X52008Y1161917D01*
X51949Y1161991D01*
X51857Y1162136D01*
X51641Y1162378D01*
X51583Y1162450D01*
X49498Y1164535D01*
X49411Y1164609D01*
X49331Y1164690D01*
X49224Y1164768D01*
X49122Y1164854D01*
X49025Y1164913D01*
X48932Y1164980D01*
X48814Y1165040D01*
X48700Y1165109D01*
X48594Y1165151D01*
X48492Y1165203D01*
X48365Y1165243D01*
X48242Y1165292D01*
X48131Y1165317D01*
X48021Y1165351D01*
X47928Y1165361D01*
X47760Y1165399D01*
X47436Y1165417D01*
X47344Y1165427D01*
X42656Y1165427D01*
X42543Y1165418D01*
X42428Y1165419D01*
X42297Y1165398D01*
X42165Y1165387D01*
X42054Y1165360D01*
X41941Y1165342D01*
X41815Y1165301D01*
X41686Y1165269D01*
X41581Y1165224D01*
X41472Y1165188D01*
X41355Y1165127D01*
X41232Y1165074D01*
X41136Y1165013D01*
X41035Y1164960D01*
X40961Y1164901D01*
X40816Y1164809D01*
X40574Y1164593D01*
X40502Y1164535D01*
X38417Y1162450D01*
X38343Y1162363D01*
X38262Y1162283D01*
X38184Y1162176D01*
X38098Y1162075D01*
X38039Y1161977D01*
X37972Y1161884D01*
X37912Y1161766D01*
X37843Y1161652D01*
X37801Y1161546D01*
X37749Y1161444D01*
X37709Y1161317D01*
X37660Y1161194D01*
X37635Y1161082D01*
X37601Y1160973D01*
X37591Y1160880D01*
X37553Y1160712D01*
X37535Y1160388D01*
X37525Y1160296D01*
X37525Y1153868D01*
X35811Y1152155D01*
X35762Y1152097D01*
X35706Y1152045D01*
X35602Y1151909D01*
X35492Y1151779D01*
X35452Y1151713D01*
X35406Y1151653D01*
X35325Y1151503D01*
X35237Y1151356D01*
X35209Y1151286D01*
X35173Y1151218D01*
X35117Y1151057D01*
X35054Y1150898D01*
X35037Y1150824D01*
X35013Y1150752D01*
X34984Y1150583D01*
X34947Y1150417D01*
X34943Y1150340D01*
X34930Y1150265D01*
X34929Y1150094D01*
X34919Y1149924D01*
X34928Y1149848D01*
X34927Y1149772D01*
X34954Y1149603D01*
X34972Y1149433D01*
X34992Y1149360D01*
X35004Y1149285D01*
X35057Y1149122D01*
X35102Y1148958D01*
X35134Y1148888D01*
X35158Y1148816D01*
X35237Y1148664D01*
X35308Y1148509D01*
X35351Y1148446D01*
X35386Y1148378D01*
X35451Y1148296D01*
X35583Y1148100D01*
X35746Y1147927D01*
X35811Y1147845D01*
X37525Y1146132D01*
X37525Y1132868D01*
X36340Y1131684D01*
X36196Y1131622D01*
X36132Y1131581D01*
X36063Y1131548D01*
X35924Y1131449D01*
X35780Y1131357D01*
X35723Y1131306D01*
X35661Y1131262D01*
X35540Y1131142D01*
X35412Y1131028D01*
X35364Y1130969D01*
X35310Y1130915D01*
X35209Y1130777D01*
X35102Y1130644D01*
X35065Y1130578D01*
X35020Y1130517D01*
X34943Y1130364D01*
X34858Y1130216D01*
X34832Y1130144D01*
X34797Y1130076D01*
X34746Y1129913D01*
X34687Y1129753D01*
X34672Y1129678D01*
X34649Y1129606D01*
X34637Y1129501D01*
X34592Y1129269D01*
X34585Y1129033D01*
X34573Y1128928D01*
X34573Y1108097D01*
X34590Y1107879D01*
X34604Y1107661D01*
X34610Y1107634D01*
X34613Y1107605D01*
X34665Y1107394D01*
X34714Y1107181D01*
X34725Y1107154D01*
X34731Y1107127D01*
X34817Y1106926D01*
X34900Y1106724D01*
X34915Y1106699D01*
X34926Y1106673D01*
X35043Y1106489D01*
X35157Y1106303D01*
X35176Y1106281D01*
X35191Y1106257D01*
X35336Y1106094D01*
X35479Y1105929D01*
X35501Y1105910D01*
X35520Y1105889D01*
X35689Y1105752D01*
X35857Y1105612D01*
X35878Y1105600D01*
X35904Y1105579D01*
X36056Y1105493D01*
X36075Y1105479D01*
X36122Y1105455D01*
X36332Y1105335D01*
X36408Y1105307D01*
X36454Y1105282D01*
X37002Y1105055D01*
X38055Y1104002D01*
X38625Y1102626D01*
X38625Y1096874D01*
X38055Y1095498D01*
X37002Y1094445D01*
X35626Y1093875D01*
X24374Y1093875D01*
X22998Y1094445D01*
X22983Y1094460D01*
X22954Y1094485D01*
X22928Y1094514D01*
X22766Y1094645D01*
X22607Y1094780D01*
X22574Y1094800D01*
X22544Y1094824D01*
X22363Y1094927D01*
X22184Y1095035D01*
X22149Y1095049D01*
X22116Y1095068D01*
X21920Y1095140D01*
X21726Y1095218D01*
X21689Y1095226D01*
X21653Y1095239D01*
X21448Y1095279D01*
X21245Y1095324D01*
X21206Y1095327D01*
X21169Y1095334D01*
X20961Y1095340D01*
X20752Y1095352D01*
X20714Y1095348D01*
X20676Y1095349D01*
X20469Y1095322D01*
X20261Y1095300D01*
X20225Y1095290D01*
X20187Y1095285D01*
X19987Y1095225D01*
X19786Y1095169D01*
X19751Y1095153D01*
X19714Y1095142D01*
X19527Y1095051D01*
X19337Y1094964D01*
X19306Y1094942D01*
X19271Y1094925D01*
X19101Y1094805D01*
X18928Y1094688D01*
X18900Y1094662D01*
X18869Y1094640D01*
X18721Y1094494D01*
X18568Y1094350D01*
X18545Y1094320D01*
X18518Y1094293D01*
X18395Y1094124D01*
X18268Y1093959D01*
X18250Y1093925D01*
X18228Y1093895D01*
X18134Y1093708D01*
X18035Y1093524D01*
X18023Y1093488D01*
X18005Y1093454D01*
X17943Y1093255D01*
X17875Y1093058D01*
X17869Y1093020D01*
X17857Y1092984D01*
X17847Y1092891D01*
X17792Y1092571D01*
X17791Y1092399D01*
X17781Y1092306D01*
X17781Y1087694D01*
X17784Y1087656D01*
X17782Y1087618D01*
X17804Y1087410D01*
X17821Y1087202D01*
X17830Y1087165D01*
X17834Y1087127D01*
X17889Y1086926D01*
X17939Y1086724D01*
X17954Y1086689D01*
X17965Y1086652D01*
X18052Y1086462D01*
X18134Y1086270D01*
X18154Y1086238D01*
X18170Y1086203D01*
X18287Y1086030D01*
X18399Y1085854D01*
X18424Y1085826D01*
X18446Y1085794D01*
X18589Y1085642D01*
X18728Y1085486D01*
X18757Y1085462D01*
X18784Y1085435D01*
X18949Y1085307D01*
X19112Y1085176D01*
X19145Y1085158D01*
X19175Y1085134D01*
X19359Y1085036D01*
X19540Y1084932D01*
X19576Y1084919D01*
X19610Y1084901D01*
X19807Y1084833D01*
X20003Y1084761D01*
X20040Y1084753D01*
X20076Y1084741D01*
X20283Y1084706D01*
X20487Y1084666D01*
X20525Y1084665D01*
X20563Y1084658D01*
X20772Y1084657D01*
X20980Y1084651D01*
X21018Y1084656D01*
X21056Y1084655D01*
X21262Y1084688D01*
X21469Y1084715D01*
X21506Y1084726D01*
X21543Y1084732D01*
X21742Y1084797D01*
X21941Y1084858D01*
X21976Y1084874D01*
X22012Y1084886D01*
X22198Y1084983D01*
X22385Y1085075D01*
X22416Y1085097D01*
X22450Y1085114D01*
X22522Y1085172D01*
X22787Y1085360D01*
X22909Y1085481D01*
X22983Y1085540D01*
X22998Y1085555D01*
X24374Y1086125D01*
X35626Y1086125D01*
X37002Y1085555D01*
X38055Y1084502D01*
X38625Y1083126D01*
X38625Y1077374D01*
X38055Y1075998D01*
X37002Y1074945D01*
X36454Y1074718D01*
X36259Y1074618D01*
X36063Y1074523D01*
X36040Y1074506D01*
X36015Y1074493D01*
X35839Y1074363D01*
X35661Y1074237D01*
X35641Y1074217D01*
X35618Y1074200D01*
X35465Y1074043D01*
X35310Y1073890D01*
X35293Y1073867D01*
X35273Y1073847D01*
X35148Y1073667D01*
X35020Y1073492D01*
X35007Y1073466D01*
X34991Y1073443D01*
X34896Y1073246D01*
X34797Y1073051D01*
X34789Y1073024D01*
X34776Y1072998D01*
X34715Y1072789D01*
X34649Y1072581D01*
X34646Y1072557D01*
X34637Y1072525D01*
X34576Y1072036D01*
X34579Y1071955D01*
X34573Y1071903D01*
X34573Y1063156D01*
X34582Y1063043D01*
X34581Y1062928D01*
X34602Y1062797D01*
X34613Y1062665D01*
X34640Y1062554D01*
X34658Y1062441D01*
X34699Y1062315D01*
X34731Y1062186D01*
X34776Y1062081D01*
X34812Y1061972D01*
X34874Y1061854D01*
X34926Y1061732D01*
X34987Y1061636D01*
X35040Y1061535D01*
X35099Y1061461D01*
X35191Y1061316D01*
X35407Y1061074D01*
X35465Y1061002D01*
X50288Y1046179D01*
X50396Y1046087D01*
X50498Y1045987D01*
X50584Y1045927D01*
X50663Y1045860D01*
X50786Y1045786D01*
X50903Y1045704D01*
X50997Y1045659D01*
X51086Y1045605D01*
X51218Y1045552D01*
X51347Y1045490D01*
X51447Y1045461D01*
X51544Y1045422D01*
X51683Y1045391D01*
X51820Y1045351D01*
X51924Y1045338D01*
X52026Y1045315D01*
X52168Y1045307D01*
X52310Y1045290D01*
X52414Y1045294D01*
X52518Y1045288D01*
X52660Y1045303D01*
X52803Y1045308D01*
X52905Y1045329D01*
X53009Y1045340D01*
X53146Y1045378D01*
X53286Y1045406D01*
X53384Y1045443D01*
X53485Y1045471D01*
X53614Y1045530D01*
X53748Y1045581D01*
X53838Y1045633D01*
X53933Y1045676D01*
X54051Y1045756D01*
X54175Y1045827D01*
X54256Y1045893D01*
X54342Y1045952D01*
X54446Y1046049D01*
X54557Y1046140D01*
X54626Y1046218D01*
X54702Y1046290D01*
X54789Y1046403D01*
X54883Y1046510D01*
X54939Y1046598D01*
X55002Y1046681D01*
X55070Y1046807D01*
X55145Y1046927D01*
X55186Y1047024D01*
X55235Y1047116D01*
X55282Y1047251D01*
X55337Y1047382D01*
X55361Y1047483D01*
X55395Y1047582D01*
X55419Y1047723D01*
X55453Y1047862D01*
X55460Y1047966D01*
X55478Y1048069D01*
X55479Y1048212D01*
X55489Y1048354D01*
X55480Y1048457D01*
X55481Y1048562D01*
X55459Y1048703D01*
X55446Y1048845D01*
X55427Y1048911D01*
X55427Y1071903D01*
X55410Y1072121D01*
X55396Y1072339D01*
X55390Y1072366D01*
X55387Y1072395D01*
X55335Y1072606D01*
X55286Y1072819D01*
X55275Y1072846D01*
X55269Y1072873D01*
X55183Y1073074D01*
X55100Y1073276D01*
X55085Y1073301D01*
X55074Y1073327D01*
X54957Y1073511D01*
X54843Y1073697D01*
X54824Y1073719D01*
X54809Y1073743D01*
X54664Y1073906D01*
X54521Y1074071D01*
X54499Y1074090D01*
X54480Y1074111D01*
X54311Y1074247D01*
X54143Y1074388D01*
X54122Y1074400D01*
X54096Y1074421D01*
X53668Y1074665D01*
X53592Y1074693D01*
X53546Y1074718D01*
X52998Y1074945D01*
X51945Y1075998D01*
X51375Y1077374D01*
X51375Y1083126D01*
X51945Y1084502D01*
X52998Y1085555D01*
X54374Y1086125D01*
X65626Y1086125D01*
X67002Y1085555D01*
X68055Y1084502D01*
X68625Y1083126D01*
X68625Y1077374D01*
X68055Y1075998D01*
X67002Y1074945D01*
X66454Y1074718D01*
X66259Y1074618D01*
X66063Y1074523D01*
X66040Y1074506D01*
X66015Y1074493D01*
X65839Y1074363D01*
X65661Y1074237D01*
X65641Y1074217D01*
X65618Y1074200D01*
X65465Y1074043D01*
X65310Y1073890D01*
X65293Y1073867D01*
X65273Y1073847D01*
X65148Y1073667D01*
X65020Y1073492D01*
X65007Y1073466D01*
X64991Y1073443D01*
X64896Y1073246D01*
X64797Y1073051D01*
X64789Y1073024D01*
X64776Y1072998D01*
X64715Y1072789D01*
X64649Y1072581D01*
X64646Y1072557D01*
X64637Y1072525D01*
X64576Y1072036D01*
X64579Y1071955D01*
X64573Y1071903D01*
X64573Y1053156D01*
X64577Y1053100D01*
X64577Y1053076D01*
X64582Y1053036D01*
X64581Y1052928D01*
X64602Y1052797D01*
X64613Y1052665D01*
X64640Y1052554D01*
X64658Y1052441D01*
X64699Y1052315D01*
X64731Y1052186D01*
X64776Y1052081D01*
X64812Y1051972D01*
X64874Y1051854D01*
X64926Y1051732D01*
X64987Y1051636D01*
X65040Y1051535D01*
X65099Y1051461D01*
X65191Y1051316D01*
X65407Y1051074D01*
X65465Y1051002D01*
X74652Y1041815D01*
X74739Y1041741D01*
X74819Y1041660D01*
X74926Y1041582D01*
X75028Y1041496D01*
X75125Y1041437D01*
X75218Y1041370D01*
X75336Y1041310D01*
X75450Y1041241D01*
X75556Y1041199D01*
X75658Y1041147D01*
X75785Y1041107D01*
X75908Y1041058D01*
X76019Y1041033D01*
X76129Y1040999D01*
X76222Y1040989D01*
X76390Y1040951D01*
X76714Y1040933D01*
X76806Y1040923D01*
X95254Y1040923D01*
X95292Y1040926D01*
X95330Y1040924D01*
X95538Y1040946D01*
X95745Y1040963D01*
X95783Y1040972D01*
X95820Y1040976D01*
X96022Y1041031D01*
X96224Y1041081D01*
X96259Y1041096D01*
X96296Y1041107D01*
X96486Y1041194D01*
X96678Y1041276D01*
X96710Y1041296D01*
X96744Y1041312D01*
X96918Y1041429D01*
X97094Y1041541D01*
X97122Y1041566D01*
X97154Y1041588D01*
X97306Y1041731D01*
X97462Y1041870D01*
X97486Y1041899D01*
X97513Y1041925D01*
X97641Y1042091D01*
X97772Y1042254D01*
X97790Y1042287D01*
X97814Y1042317D01*
X97912Y1042501D01*
X98016Y1042682D01*
X98029Y1042718D01*
X98047Y1042752D01*
X98115Y1042949D01*
X98187Y1043145D01*
X98194Y1043182D01*
X98207Y1043218D01*
X98242Y1043425D01*
X98282Y1043629D01*
X98283Y1043667D01*
X98289Y1043705D01*
X98291Y1043914D01*
X98297Y1044122D01*
X98292Y1044160D01*
X98292Y1044198D01*
X98260Y1044405D01*
X98233Y1044611D01*
X98222Y1044648D01*
X98216Y1044685D01*
X98151Y1044883D01*
X98090Y1045083D01*
X98073Y1045118D01*
X98062Y1045154D01*
X97965Y1045339D01*
X97873Y1045527D01*
X97851Y1045558D01*
X97834Y1045592D01*
X97776Y1045664D01*
X97588Y1045929D01*
X97467Y1046051D01*
X97408Y1046125D01*
X86123Y1057410D01*
X85427Y1059090D01*
X85427Y1092536D01*
X85410Y1092754D01*
X85396Y1092971D01*
X85390Y1092999D01*
X85387Y1093027D01*
X85335Y1093240D01*
X85286Y1093452D01*
X85275Y1093479D01*
X85269Y1093506D01*
X85182Y1093707D01*
X85100Y1093909D01*
X85085Y1093933D01*
X85074Y1093960D01*
X84957Y1094144D01*
X84843Y1094330D01*
X84824Y1094352D01*
X84809Y1094376D01*
X84664Y1094538D01*
X84521Y1094704D01*
X84499Y1094722D01*
X84480Y1094744D01*
X84311Y1094880D01*
X84143Y1095021D01*
X84122Y1095033D01*
X84096Y1095054D01*
X83668Y1095298D01*
X83592Y1095325D01*
X83546Y1095351D01*
X83329Y1095441D01*
X82191Y1096579D01*
X81575Y1098065D01*
X81575Y1105135D01*
X82191Y1106621D01*
X82715Y1107145D01*
X82798Y1107243D01*
X82888Y1107334D01*
X82957Y1107430D01*
X83034Y1107521D01*
X83100Y1107631D01*
X83175Y1107735D01*
X83228Y1107842D01*
X83289Y1107943D01*
X83336Y1108063D01*
X83393Y1108178D01*
X83428Y1108291D01*
X83472Y1108401D01*
X83500Y1108527D01*
X83537Y1108650D01*
X83553Y1108767D01*
X83579Y1108883D01*
X83586Y1109011D01*
X83603Y1109139D01*
X83600Y1109257D01*
X83606Y1109376D01*
X83593Y1109503D01*
X83589Y1109632D01*
X83567Y1109748D01*
X83554Y1109866D01*
X83520Y1109990D01*
X83496Y1110116D01*
X83455Y1110227D01*
X83423Y1110342D01*
X83370Y1110459D01*
X83326Y1110579D01*
X83267Y1110683D01*
X83218Y1110790D01*
X83146Y1110897D01*
X83083Y1111009D01*
X83009Y1111101D01*
X82942Y1111200D01*
X82854Y1111293D01*
X82774Y1111393D01*
X82708Y1111449D01*
X82605Y1111559D01*
X82473Y1111660D01*
X81689Y1112444D01*
X81135Y1113273D01*
X80754Y1114194D01*
X80559Y1115172D01*
X80559Y1115353D01*
X90000Y1115353D01*
X99441Y1115353D01*
X99441Y1115172D01*
X99246Y1114194D01*
X98865Y1113273D01*
X98311Y1112444D01*
X97567Y1111700D01*
X97540Y1111682D01*
X97453Y1111601D01*
X97360Y1111527D01*
X97274Y1111432D01*
X97180Y1111344D01*
X97108Y1111250D01*
X97028Y1111162D01*
X96958Y1111055D01*
X96880Y1110953D01*
X96824Y1110848D01*
X96759Y1110749D01*
X96708Y1110631D01*
X96647Y1110518D01*
X96608Y1110406D01*
X96561Y1110297D01*
X96528Y1110173D01*
X96487Y1110051D01*
X96467Y1109934D01*
X96437Y1109819D01*
X96426Y1109691D01*
X96404Y1109565D01*
X96404Y1109446D01*
X96393Y1109328D01*
X96402Y1109200D01*
X96401Y1109072D01*
X96420Y1108954D01*
X96428Y1108836D01*
X96458Y1108711D01*
X96478Y1108584D01*
X96515Y1108471D01*
X96542Y1108356D01*
X96592Y1108237D01*
X96632Y1108116D01*
X96687Y1108011D01*
X96733Y1107901D01*
X96801Y1107792D01*
X96860Y1107678D01*
X96914Y1107610D01*
X96994Y1107482D01*
X97239Y1107203D01*
X97285Y1107145D01*
X97809Y1106621D01*
X98425Y1105135D01*
X98425Y1100904D01*
X98434Y1100791D01*
X98433Y1100676D01*
X98454Y1100545D01*
X98465Y1100413D01*
X98492Y1100302D01*
X98510Y1100189D01*
X98551Y1100063D01*
X98583Y1099934D01*
X98628Y1099829D01*
X98664Y1099720D01*
X98726Y1099602D01*
X98778Y1099480D01*
X98839Y1099384D01*
X98892Y1099283D01*
X98951Y1099209D01*
X99043Y1099064D01*
X99259Y1098822D01*
X99317Y1098750D01*
X108002Y1090065D01*
X108089Y1089991D01*
X108169Y1089910D01*
X108276Y1089832D01*
X108378Y1089746D01*
X108475Y1089687D01*
X108568Y1089620D01*
X108686Y1089560D01*
X108800Y1089491D01*
X108906Y1089449D01*
X109008Y1089397D01*
X109135Y1089357D01*
X109258Y1089308D01*
X109369Y1089283D01*
X109479Y1089249D01*
X109572Y1089239D01*
X109740Y1089201D01*
X110064Y1089183D01*
X110156Y1089173D01*
X139680Y1089173D01*
X139756Y1089179D01*
X139832Y1089177D01*
X140001Y1089199D01*
X140172Y1089213D01*
X140246Y1089231D01*
X140321Y1089241D01*
X140485Y1089290D01*
X140651Y1089331D01*
X140720Y1089361D01*
X140794Y1089383D01*
X140947Y1089459D01*
X141104Y1089526D01*
X141168Y1089567D01*
X141237Y1089600D01*
X141376Y1089699D01*
X141520Y1089791D01*
X141577Y1089842D01*
X141639Y1089886D01*
X141760Y1090006D01*
X141888Y1090120D01*
X141936Y1090179D01*
X141990Y1090233D01*
X142091Y1090371D01*
X142198Y1090504D01*
X142235Y1090570D01*
X142280Y1090631D01*
X142357Y1090784D01*
X142442Y1090932D01*
X142468Y1091004D01*
X142503Y1091072D01*
X142554Y1091235D01*
X142613Y1091395D01*
X142628Y1091470D01*
X142651Y1091542D01*
X142663Y1091647D01*
X142708Y1091879D01*
X142715Y1092115D01*
X142727Y1092220D01*
X142727Y1101755D01*
X152845Y1111873D01*
X167155Y1111873D01*
X177273Y1101755D01*
X177273Y1087445D01*
X167155Y1077327D01*
X152845Y1077327D01*
X151038Y1079135D01*
X150951Y1079209D01*
X150871Y1079290D01*
X150763Y1079368D01*
X150662Y1079454D01*
X150564Y1079513D01*
X150472Y1079580D01*
X150353Y1079640D01*
X150239Y1079709D01*
X150133Y1079751D01*
X150031Y1079803D01*
X149905Y1079843D01*
X149781Y1079892D01*
X149670Y1079917D01*
X149561Y1079951D01*
X149467Y1079961D01*
X149300Y1079999D01*
X148975Y1080017D01*
X148883Y1080027D01*
X106090Y1080027D01*
X104410Y1080723D01*
X99775Y1085358D01*
X99746Y1085383D01*
X99720Y1085412D01*
X99558Y1085542D01*
X99399Y1085678D01*
X99366Y1085698D01*
X99336Y1085722D01*
X99155Y1085825D01*
X98976Y1085933D01*
X98941Y1085947D01*
X98908Y1085966D01*
X98712Y1086038D01*
X98518Y1086116D01*
X98481Y1086124D01*
X98445Y1086137D01*
X98240Y1086177D01*
X98036Y1086222D01*
X97998Y1086225D01*
X97961Y1086232D01*
X97753Y1086238D01*
X97544Y1086250D01*
X97506Y1086246D01*
X97468Y1086247D01*
X97261Y1086220D01*
X97053Y1086198D01*
X97017Y1086188D01*
X96979Y1086183D01*
X96779Y1086122D01*
X96578Y1086067D01*
X96543Y1086051D01*
X96506Y1086040D01*
X96319Y1085949D01*
X96129Y1085861D01*
X96097Y1085840D01*
X96063Y1085823D01*
X95894Y1085703D01*
X95720Y1085586D01*
X95692Y1085560D01*
X95661Y1085538D01*
X95513Y1085391D01*
X95360Y1085248D01*
X95337Y1085218D01*
X95310Y1085191D01*
X95187Y1085022D01*
X95060Y1084857D01*
X95042Y1084823D01*
X95020Y1084792D01*
X94926Y1084606D01*
X94827Y1084422D01*
X94814Y1084386D01*
X94797Y1084352D01*
X94735Y1084153D01*
X94667Y1083955D01*
X94661Y1083918D01*
X94649Y1083881D01*
X94639Y1083789D01*
X94584Y1083469D01*
X94583Y1083297D01*
X94573Y1083204D01*
X94573Y1063156D01*
X94582Y1063043D01*
X94581Y1062928D01*
X94602Y1062797D01*
X94613Y1062665D01*
X94640Y1062554D01*
X94658Y1062441D01*
X94699Y1062315D01*
X94731Y1062186D01*
X94776Y1062081D01*
X94812Y1061972D01*
X94874Y1061854D01*
X94926Y1061732D01*
X94987Y1061636D01*
X95040Y1061535D01*
X95099Y1061461D01*
X95191Y1061316D01*
X95407Y1061074D01*
X95465Y1061002D01*
X101500Y1054967D01*
X101587Y1054893D01*
X101667Y1054812D01*
X101774Y1054734D01*
X101876Y1054648D01*
X101973Y1054589D01*
X102066Y1054522D01*
X102184Y1054462D01*
X102298Y1054393D01*
X102404Y1054351D01*
X102506Y1054299D01*
X102633Y1054259D01*
X102756Y1054210D01*
X102867Y1054185D01*
X102977Y1054151D01*
X103070Y1054141D01*
X103238Y1054103D01*
X103562Y1054085D01*
X103654Y1054075D01*
X121137Y1054075D01*
X122030Y1053182D01*
X122030Y1051118D01*
X122033Y1051080D01*
X122031Y1051042D01*
X122053Y1050833D01*
X122070Y1050626D01*
X122079Y1050589D01*
X122083Y1050551D01*
X122138Y1050349D01*
X122188Y1050147D01*
X122203Y1050112D01*
X122214Y1050075D01*
X122301Y1049885D01*
X122383Y1049694D01*
X122403Y1049662D01*
X122419Y1049627D01*
X122536Y1049453D01*
X122648Y1049278D01*
X122673Y1049249D01*
X122695Y1049218D01*
X122838Y1049065D01*
X122977Y1048910D01*
X123006Y1048886D01*
X123033Y1048858D01*
X123198Y1048731D01*
X123361Y1048600D01*
X123394Y1048581D01*
X123424Y1048558D01*
X123608Y1048459D01*
X123789Y1048356D01*
X123825Y1048343D01*
X123859Y1048325D01*
X124056Y1048257D01*
X124252Y1048184D01*
X124289Y1048177D01*
X124325Y1048165D01*
X124531Y1048130D01*
X124736Y1048090D01*
X124774Y1048088D01*
X124812Y1048082D01*
X125021Y1048081D01*
X125229Y1048074D01*
X125267Y1048079D01*
X125305Y1048079D01*
X125511Y1048111D01*
X125718Y1048139D01*
X125755Y1048150D01*
X125792Y1048156D01*
X125991Y1048221D01*
X126190Y1048281D01*
X126225Y1048298D01*
X126261Y1048310D01*
X126447Y1048407D01*
X126634Y1048498D01*
X126665Y1048520D01*
X126693Y1048535D01*
X153321Y1048535D01*
X153388Y1048497D01*
X153567Y1048389D01*
X153602Y1048375D01*
X153635Y1048356D01*
X153831Y1048283D01*
X154025Y1048206D01*
X154062Y1048198D01*
X154098Y1048184D01*
X154303Y1048144D01*
X154506Y1048099D01*
X154545Y1048097D01*
X154582Y1048090D01*
X154790Y1048083D01*
X154999Y1048071D01*
X155037Y1048075D01*
X155075Y1048074D01*
X155282Y1048101D01*
X155490Y1048124D01*
X155526Y1048134D01*
X155564Y1048139D01*
X155764Y1048199D01*
X155965Y1048254D01*
X156000Y1048270D01*
X156037Y1048281D01*
X156224Y1048373D01*
X156414Y1048460D01*
X156445Y1048481D01*
X156480Y1048498D01*
X156649Y1048619D01*
X156823Y1048735D01*
X156851Y1048762D01*
X156882Y1048784D01*
X157030Y1048930D01*
X157183Y1049073D01*
X157206Y1049104D01*
X157233Y1049130D01*
X157355Y1049298D01*
X157483Y1049465D01*
X157501Y1049498D01*
X157523Y1049529D01*
X157617Y1049715D01*
X157716Y1049899D01*
X157728Y1049935D01*
X157746Y1049969D01*
X157808Y1050169D01*
X157876Y1050366D01*
X157882Y1050404D01*
X157894Y1050440D01*
X157904Y1050533D01*
X157959Y1050852D01*
X157960Y1051024D01*
X157970Y1051118D01*
X157970Y1053182D01*
X158863Y1054075D01*
X165352Y1054075D01*
X165362Y1054076D01*
X165371Y1054075D01*
X165607Y1054095D01*
X165844Y1054115D01*
X165853Y1054117D01*
X165863Y1054118D01*
X165901Y1054129D01*
X166323Y1054233D01*
X166443Y1054285D01*
X166518Y1054307D01*
X167160Y1054573D01*
X187873Y1054573D01*
X187883Y1054574D01*
X187892Y1054573D01*
X188128Y1054593D01*
X188365Y1054613D01*
X188374Y1054615D01*
X188384Y1054616D01*
X188422Y1054627D01*
X188843Y1054731D01*
X188964Y1054783D01*
X189039Y1054805D01*
X189044Y1054807D01*
X190956Y1054807D01*
X192723Y1054075D01*
X194075Y1052723D01*
X194807Y1050956D01*
X194807Y1049044D01*
X194075Y1047277D01*
X192723Y1045925D01*
X190956Y1045193D01*
X189044Y1045193D01*
X189039Y1045195D01*
X189030Y1045198D01*
X189021Y1045203D01*
X188795Y1045274D01*
X188569Y1045347D01*
X188560Y1045348D01*
X188551Y1045351D01*
X188510Y1045355D01*
X188082Y1045420D01*
X187951Y1045418D01*
X187873Y1045427D01*
X179737Y1045427D01*
X179604Y1045416D01*
X179471Y1045416D01*
X179359Y1045397D01*
X179245Y1045387D01*
X179116Y1045355D01*
X178985Y1045333D01*
X178877Y1045296D01*
X178766Y1045269D01*
X178644Y1045216D01*
X178518Y1045173D01*
X178417Y1045119D01*
X178313Y1045074D01*
X178201Y1045003D01*
X178083Y1044940D01*
X177993Y1044870D01*
X177897Y1044809D01*
X177798Y1044720D01*
X177692Y1044639D01*
X177614Y1044556D01*
X177529Y1044480D01*
X177445Y1044377D01*
X177354Y1044280D01*
X177290Y1044185D01*
X177219Y1044096D01*
X177153Y1043981D01*
X177079Y1043870D01*
X177031Y1043767D01*
X176975Y1043668D01*
X176929Y1043543D01*
X176873Y1043422D01*
X176843Y1043312D01*
X176803Y1043205D01*
X176778Y1043074D01*
X176743Y1042946D01*
X176730Y1042833D01*
X176709Y1042721D01*
X176705Y1042588D01*
X176690Y1042456D01*
X176697Y1042342D01*
X176693Y1042228D01*
X176711Y1042096D01*
X176718Y1041963D01*
X176743Y1041852D01*
X176758Y1041739D01*
X176796Y1041611D01*
X176825Y1041481D01*
X176859Y1041404D01*
X176900Y1041267D01*
X177072Y1040917D01*
X177098Y1040856D01*
X177113Y1040831D01*
X177286Y1040185D01*
X177286Y1039397D01*
X167120Y1039397D01*
X167044Y1039391D01*
X166968Y1039394D01*
X166799Y1039371D01*
X166629Y1039357D01*
X166555Y1039339D01*
X166479Y1039329D01*
X166315Y1039280D01*
X166150Y1039239D01*
X166080Y1039209D01*
X166007Y1039187D01*
X165853Y1039112D01*
X165696Y1039044D01*
X165632Y1039003D01*
X165564Y1038970D01*
X165424Y1038871D01*
X165280Y1038779D01*
X165224Y1038728D01*
X165161Y1038684D01*
X165040Y1038564D01*
X164912Y1038450D01*
X164865Y1038391D01*
X164810Y1038338D01*
X164710Y1038199D01*
X164603Y1038067D01*
X164565Y1038000D01*
X164520Y1037939D01*
X164443Y1037786D01*
X164359Y1037638D01*
X164332Y1037566D01*
X164298Y1037498D01*
X164246Y1037336D01*
X164187Y1037175D01*
X164172Y1037101D01*
X164149Y1037028D01*
X164138Y1036923D01*
X164092Y1036691D01*
X164085Y1036455D01*
X164073Y1036350D01*
X164079Y1036274D01*
X164077Y1036198D01*
X164099Y1036028D01*
X164113Y1035858D01*
X164131Y1035784D01*
X164141Y1035709D01*
X164191Y1035545D01*
X164232Y1035379D01*
X164262Y1035309D01*
X164284Y1035236D01*
X164359Y1035083D01*
X164426Y1034926D01*
X164467Y1034862D01*
X164501Y1034793D01*
X164600Y1034654D01*
X164691Y1034510D01*
X164742Y1034453D01*
X164786Y1034391D01*
X164906Y1034269D01*
X165020Y1034142D01*
X165079Y1034094D01*
X165133Y1034040D01*
X165271Y1033939D01*
X165404Y1033832D01*
X165470Y1033794D01*
X165532Y1033749D01*
X165684Y1033673D01*
X165833Y1033588D01*
X165904Y1033561D01*
X165972Y1033527D01*
X166135Y1033476D01*
X166295Y1033416D01*
X166370Y1033402D01*
X166443Y1033379D01*
X166547Y1033367D01*
X166779Y1033322D01*
X167015Y1033314D01*
X167120Y1033303D01*
X177286Y1033303D01*
X177286Y1032516D01*
X177163Y1032059D01*
X177122Y1031835D01*
X177079Y1031611D01*
X177078Y1031592D01*
X177075Y1031573D01*
X177070Y1031344D01*
X177063Y1031118D01*
X177066Y1031099D01*
X177065Y1031080D01*
X177098Y1030854D01*
X177128Y1030629D01*
X177133Y1030611D01*
X177136Y1030592D01*
X177204Y1030375D01*
X177270Y1030156D01*
X177279Y1030139D01*
X177284Y1030121D01*
X177387Y1029918D01*
X177487Y1029713D01*
X177498Y1029698D01*
X177507Y1029681D01*
X177641Y1029496D01*
X177773Y1029311D01*
X177786Y1029298D01*
X177797Y1029282D01*
X177960Y1029121D01*
X178119Y1028960D01*
X178135Y1028949D01*
X178148Y1028936D01*
X178335Y1028803D01*
X178518Y1028670D01*
X178535Y1028661D01*
X178550Y1028650D01*
X178756Y1028550D01*
X178958Y1028447D01*
X178977Y1028442D01*
X178994Y1028433D01*
X179211Y1028368D01*
X179429Y1028299D01*
X179445Y1028297D01*
X179466Y1028291D01*
X179955Y1028227D01*
X180047Y1028229D01*
X180107Y1028223D01*
X200494Y1028223D01*
X200607Y1028232D01*
X200722Y1028231D01*
X200853Y1028252D01*
X200985Y1028263D01*
X201096Y1028290D01*
X201209Y1028308D01*
X201335Y1028349D01*
X201464Y1028381D01*
X201569Y1028426D01*
X201678Y1028462D01*
X201796Y1028524D01*
X201918Y1028576D01*
X202014Y1028637D01*
X202115Y1028690D01*
X202189Y1028749D01*
X202334Y1028841D01*
X202576Y1029057D01*
X202648Y1029115D01*
X214535Y1041002D01*
X214609Y1041089D01*
X214690Y1041169D01*
X214768Y1041276D01*
X214854Y1041378D01*
X214913Y1041475D01*
X214980Y1041568D01*
X215040Y1041686D01*
X215109Y1041800D01*
X215151Y1041906D01*
X215203Y1042008D01*
X215243Y1042135D01*
X215292Y1042258D01*
X215317Y1042369D01*
X215351Y1042479D01*
X215361Y1042572D01*
X215399Y1042740D01*
X215417Y1043064D01*
X215427Y1043156D01*
X215427Y1071903D01*
X215410Y1072121D01*
X215396Y1072339D01*
X215390Y1072366D01*
X215387Y1072395D01*
X215335Y1072606D01*
X215286Y1072819D01*
X215275Y1072846D01*
X215269Y1072873D01*
X215183Y1073074D01*
X215100Y1073276D01*
X215085Y1073301D01*
X215074Y1073327D01*
X214957Y1073511D01*
X214843Y1073697D01*
X214824Y1073719D01*
X214809Y1073743D01*
X214664Y1073906D01*
X214521Y1074071D01*
X214499Y1074090D01*
X214480Y1074111D01*
X214311Y1074247D01*
X214143Y1074388D01*
X214122Y1074400D01*
X214096Y1074421D01*
X213668Y1074665D01*
X213592Y1074693D01*
X213546Y1074718D01*
X212998Y1074945D01*
X211945Y1075998D01*
X211375Y1077374D01*
X211375Y1083126D01*
X211945Y1084502D01*
X212998Y1085555D01*
X214374Y1086125D01*
X225626Y1086125D01*
X227002Y1085555D01*
X228055Y1084502D01*
X228625Y1083126D01*
X228625Y1077374D01*
X228055Y1075998D01*
X227002Y1074945D01*
X226454Y1074718D01*
X226259Y1074618D01*
X226063Y1074523D01*
X226040Y1074506D01*
X226015Y1074493D01*
X225839Y1074363D01*
X225661Y1074237D01*
X225641Y1074217D01*
X225618Y1074200D01*
X225465Y1074043D01*
X225310Y1073890D01*
X225293Y1073867D01*
X225273Y1073847D01*
X225148Y1073667D01*
X225020Y1073492D01*
X225007Y1073466D01*
X224991Y1073443D01*
X224896Y1073246D01*
X224797Y1073051D01*
X224789Y1073024D01*
X224776Y1072998D01*
X224715Y1072789D01*
X224649Y1072581D01*
X224646Y1072557D01*
X224637Y1072525D01*
X224576Y1072036D01*
X224579Y1071955D01*
X224573Y1071903D01*
X224573Y1039090D01*
X223877Y1037410D01*
X206240Y1019773D01*
X204560Y1019077D01*
X180107Y1019077D01*
X179879Y1019059D01*
X179652Y1019043D01*
X179634Y1019039D01*
X179615Y1019037D01*
X179394Y1018983D01*
X179172Y1018930D01*
X179155Y1018923D01*
X179136Y1018919D01*
X178927Y1018829D01*
X178716Y1018742D01*
X178700Y1018732D01*
X178683Y1018724D01*
X178491Y1018602D01*
X178297Y1018482D01*
X178283Y1018469D01*
X178267Y1018459D01*
X178097Y1018307D01*
X177925Y1018158D01*
X177913Y1018143D01*
X177899Y1018130D01*
X177756Y1017954D01*
X177610Y1017778D01*
X177601Y1017761D01*
X177589Y1017746D01*
X177477Y1017550D01*
X177361Y1017352D01*
X177354Y1017334D01*
X177345Y1017318D01*
X177266Y1017104D01*
X177184Y1016892D01*
X177180Y1016873D01*
X177173Y1016855D01*
X177130Y1016633D01*
X177083Y1016409D01*
X177082Y1016389D01*
X177079Y1016371D01*
X177072Y1016144D01*
X177062Y1015916D01*
X177064Y1015900D01*
X177063Y1015878D01*
X177128Y1015389D01*
X177154Y1015300D01*
X177163Y1015241D01*
X177286Y1014784D01*
X177286Y1013997D01*
X167120Y1013997D01*
X167044Y1013991D01*
X166968Y1013994D01*
X166799Y1013971D01*
X166629Y1013957D01*
X166555Y1013939D01*
X166479Y1013929D01*
X166315Y1013880D01*
X166150Y1013839D01*
X166080Y1013809D01*
X166007Y1013787D01*
X165853Y1013712D01*
X165696Y1013644D01*
X165632Y1013603D01*
X165564Y1013570D01*
X165424Y1013471D01*
X165280Y1013379D01*
X165224Y1013328D01*
X165161Y1013284D01*
X165040Y1013164D01*
X164912Y1013050D01*
X164864Y1012991D01*
X164810Y1012937D01*
X164709Y1012799D01*
X164602Y1012666D01*
X164564Y1012600D01*
X164519Y1012538D01*
X164443Y1012386D01*
X164358Y1012237D01*
X164331Y1012166D01*
X164297Y1012098D01*
X164246Y1011935D01*
X164186Y1011775D01*
X164172Y1011700D01*
X164149Y1011627D01*
X164137Y1011523D01*
X164092Y1011291D01*
X164084Y1011055D01*
X164073Y1010950D01*
X164073Y1004909D01*
X159160Y1004909D01*
X158514Y1005082D01*
X157935Y1005417D01*
X157462Y1005890D01*
X157127Y1006469D01*
X156954Y1007115D01*
X156954Y1008418D01*
X156948Y1008494D01*
X156950Y1008570D01*
X156928Y1008739D01*
X156914Y1008910D01*
X156896Y1008984D01*
X156886Y1009059D01*
X156837Y1009223D01*
X156796Y1009389D01*
X156766Y1009458D01*
X156744Y1009532D01*
X156668Y1009685D01*
X156601Y1009842D01*
X156560Y1009906D01*
X156527Y1009975D01*
X156428Y1010114D01*
X156336Y1010258D01*
X156285Y1010315D01*
X156241Y1010377D01*
X156121Y1010498D01*
X156007Y1010626D01*
X155948Y1010674D01*
X155894Y1010728D01*
X155756Y1010829D01*
X155623Y1010936D01*
X155557Y1010973D01*
X155496Y1011018D01*
X155343Y1011095D01*
X155195Y1011180D01*
X155123Y1011206D01*
X155055Y1011241D01*
X154892Y1011292D01*
X154732Y1011351D01*
X154657Y1011366D01*
X154585Y1011389D01*
X154480Y1011401D01*
X154248Y1011446D01*
X154012Y1011453D01*
X153907Y1011465D01*
X126679Y1011465D01*
X126612Y1011503D01*
X126433Y1011611D01*
X126398Y1011625D01*
X126365Y1011644D01*
X126169Y1011717D01*
X125975Y1011794D01*
X125938Y1011802D01*
X125902Y1011816D01*
X125697Y1011856D01*
X125494Y1011901D01*
X125455Y1011903D01*
X125418Y1011910D01*
X125210Y1011917D01*
X125001Y1011929D01*
X124963Y1011925D01*
X124925Y1011926D01*
X124718Y1011899D01*
X124510Y1011876D01*
X124474Y1011866D01*
X124436Y1011861D01*
X124236Y1011801D01*
X124035Y1011746D01*
X124000Y1011730D01*
X123963Y1011719D01*
X123776Y1011627D01*
X123586Y1011540D01*
X123555Y1011519D01*
X123520Y1011502D01*
X123351Y1011381D01*
X123177Y1011265D01*
X123149Y1011238D01*
X123118Y1011216D01*
X122970Y1011070D01*
X122817Y1010927D01*
X122794Y1010896D01*
X122767Y1010870D01*
X122645Y1010702D01*
X122517Y1010535D01*
X122499Y1010502D01*
X122477Y1010471D01*
X122383Y1010285D01*
X122284Y1010101D01*
X122272Y1010065D01*
X122254Y1010031D01*
X122192Y1009831D01*
X122124Y1009634D01*
X122118Y1009596D01*
X122106Y1009560D01*
X122096Y1009467D01*
X122041Y1009148D01*
X122040Y1008976D01*
X122030Y1008882D01*
X122030Y1006818D01*
X121137Y1005925D01*
X104406Y1005925D01*
X104389Y1005935D01*
X104318Y1005964D01*
X104251Y1006000D01*
X104090Y1006055D01*
X103931Y1006118D01*
X103857Y1006135D01*
X103784Y1006160D01*
X103616Y1006188D01*
X103449Y1006225D01*
X103373Y1006229D01*
X103298Y1006242D01*
X103127Y1006243D01*
X102957Y1006253D01*
X102881Y1006245D01*
X102805Y1006245D01*
X102636Y1006219D01*
X102466Y1006201D01*
X102393Y1006180D01*
X102317Y1006169D01*
X102155Y1006115D01*
X101991Y1006070D01*
X101921Y1006038D01*
X101849Y1006014D01*
X101697Y1005935D01*
X101542Y1005864D01*
X101479Y1005822D01*
X101411Y1005786D01*
X101329Y1005721D01*
X101133Y1005589D01*
X100960Y1005427D01*
X100878Y1005361D01*
X95465Y999948D01*
X95391Y999861D01*
X95310Y999781D01*
X95232Y999674D01*
X95146Y999572D01*
X95087Y999475D01*
X95020Y999382D01*
X94960Y999264D01*
X94891Y999150D01*
X94849Y999044D01*
X94797Y998942D01*
X94757Y998815D01*
X94708Y998692D01*
X94683Y998581D01*
X94649Y998471D01*
X94639Y998378D01*
X94601Y998210D01*
X94583Y997886D01*
X94573Y997794D01*
X94573Y993156D01*
X94582Y993043D01*
X94581Y992928D01*
X94602Y992797D01*
X94613Y992665D01*
X94640Y992554D01*
X94658Y992441D01*
X94699Y992315D01*
X94731Y992186D01*
X94776Y992081D01*
X94812Y991972D01*
X94874Y991854D01*
X94926Y991732D01*
X94987Y991636D01*
X95040Y991535D01*
X95099Y991461D01*
X95191Y991316D01*
X95407Y991074D01*
X95465Y991002D01*
X101729Y984738D01*
X101737Y984731D01*
X101743Y984724D01*
X101923Y984573D01*
X102105Y984418D01*
X102114Y984413D01*
X102121Y984407D01*
X102156Y984388D01*
X102528Y984163D01*
X102649Y984115D01*
X102718Y984077D01*
X102723Y984075D01*
X104075Y982723D01*
X104807Y980956D01*
X104807Y979044D01*
X104075Y977277D01*
X102952Y976155D01*
X102928Y976126D01*
X102899Y976100D01*
X102768Y975938D01*
X102633Y975779D01*
X102613Y975746D01*
X102589Y975716D01*
X102486Y975535D01*
X102378Y975356D01*
X102364Y975321D01*
X102345Y975288D01*
X102273Y975092D01*
X102195Y974898D01*
X102187Y974861D01*
X102174Y974825D01*
X102134Y974621D01*
X102089Y974417D01*
X102086Y974378D01*
X102079Y974341D01*
X102073Y974133D01*
X102061Y973924D01*
X102065Y973886D01*
X102064Y973848D01*
X102091Y973642D01*
X102113Y973433D01*
X102123Y973397D01*
X102128Y973359D01*
X102189Y973159D01*
X102244Y972958D01*
X102260Y972923D01*
X102271Y972887D01*
X102363Y972699D01*
X102449Y972509D01*
X102471Y972478D01*
X102488Y972443D01*
X102608Y972273D01*
X102725Y972100D01*
X102751Y972072D01*
X102773Y972041D01*
X102920Y971893D01*
X103063Y971740D01*
X103093Y971717D01*
X103120Y971690D01*
X103288Y971567D01*
X103454Y971440D01*
X103488Y971422D01*
X103519Y971400D01*
X103705Y971306D01*
X103889Y971207D01*
X103925Y971195D01*
X103959Y971177D01*
X104159Y971114D01*
X104355Y971047D01*
X104393Y971041D01*
X104429Y971029D01*
X104522Y971019D01*
X104842Y970964D01*
X105014Y970963D01*
X105107Y970953D01*
X208000Y970953D01*
X208114Y970962D01*
G37*
G36*
X224190Y712514D02*
X224190Y712514D01*
X224228Y712514D01*
X224435Y712546D01*
X224641Y712574D01*
X224678Y712585D01*
X224715Y712591D01*
X224914Y712656D01*
X225114Y712716D01*
X225148Y712733D01*
X225184Y712745D01*
X225369Y712841D01*
X225557Y712933D01*
X225588Y712955D01*
X225622Y712973D01*
X225694Y713031D01*
X225959Y713218D01*
X226081Y713339D01*
X226155Y713398D01*
X276538Y763782D01*
X278253Y765497D01*
X279934Y766193D01*
X284066Y766193D01*
X284208Y766204D01*
X284351Y766206D01*
X284454Y766224D01*
X284558Y766233D01*
X284696Y766267D01*
X284837Y766292D01*
X284935Y766326D01*
X285037Y766351D01*
X285168Y766408D01*
X285302Y766455D01*
X285394Y766505D01*
X285490Y766546D01*
X285610Y766623D01*
X285736Y766691D01*
X285818Y766755D01*
X285906Y766811D01*
X286012Y766906D01*
X286125Y766994D01*
X286196Y767070D01*
X286274Y767140D01*
X286363Y767251D01*
X286461Y767355D01*
X286518Y767442D01*
X286584Y767524D01*
X286654Y767647D01*
X286733Y767766D01*
X286776Y767862D01*
X286828Y767952D01*
X286878Y768086D01*
X286936Y768216D01*
X286963Y768317D01*
X287000Y768415D01*
X287027Y768555D01*
X287064Y768693D01*
X287074Y768797D01*
X287094Y768899D01*
X287099Y769041D01*
X287113Y769184D01*
X287106Y769288D01*
X287110Y769392D01*
X287091Y769533D01*
X287082Y769676D01*
X287059Y769778D01*
X287045Y769881D01*
X287004Y770018D01*
X286972Y770157D01*
X286933Y770254D01*
X286903Y770353D01*
X286840Y770482D01*
X286786Y770614D01*
X286732Y770703D01*
X286686Y770797D01*
X286603Y770913D01*
X286529Y771035D01*
X286461Y771114D01*
X286400Y771199D01*
X286300Y771301D01*
X286207Y771409D01*
X286127Y771476D01*
X286054Y771550D01*
X285938Y771634D01*
X285829Y771726D01*
X285760Y771764D01*
X285655Y771840D01*
X285550Y771893D01*
X284445Y772998D01*
X283875Y774374D01*
X283875Y785626D01*
X284445Y787002D01*
X285498Y788055D01*
X286874Y788625D01*
X292626Y788625D01*
X294002Y788055D01*
X295055Y787002D01*
X295282Y786454D01*
X295382Y786259D01*
X295477Y786063D01*
X295494Y786040D01*
X295507Y786015D01*
X295637Y785839D01*
X295763Y785661D01*
X295783Y785641D01*
X295800Y785618D01*
X295957Y785465D01*
X296110Y785310D01*
X296133Y785293D01*
X296153Y785273D01*
X296333Y785148D01*
X296508Y785020D01*
X296534Y785007D01*
X296557Y784991D01*
X296754Y784896D01*
X296949Y784797D01*
X296976Y784789D01*
X297002Y784776D01*
X297211Y784715D01*
X297419Y784649D01*
X297443Y784646D01*
X297475Y784637D01*
X297964Y784576D01*
X298045Y784579D01*
X298097Y784573D01*
X299689Y784573D01*
X301369Y783877D01*
X304013Y781233D01*
X304071Y781184D01*
X304123Y781129D01*
X304258Y781025D01*
X304389Y780914D01*
X304454Y780875D01*
X304514Y780828D01*
X304665Y780747D01*
X304811Y780659D01*
X304882Y780631D01*
X304949Y780595D01*
X305111Y780540D01*
X305269Y780476D01*
X305344Y780460D01*
X305416Y780435D01*
X305584Y780406D01*
X305751Y780369D01*
X305827Y780365D01*
X305902Y780352D01*
X306073Y780351D01*
X306243Y780342D01*
X306319Y780350D01*
X306395Y780349D01*
X306564Y780376D01*
X306734Y780394D01*
X306807Y780414D01*
X306883Y780426D01*
X307045Y780479D01*
X307210Y780525D01*
X307279Y780556D01*
X307351Y780580D01*
X307503Y780659D01*
X307658Y780730D01*
X307721Y780773D01*
X307789Y780808D01*
X307871Y780874D01*
X308067Y781006D01*
X308240Y781168D01*
X308322Y781233D01*
X309613Y782525D01*
X324428Y782525D01*
X324504Y782531D01*
X324580Y782529D01*
X324749Y782551D01*
X324920Y782565D01*
X324994Y782583D01*
X325069Y782593D01*
X325233Y782642D01*
X325399Y782683D01*
X325468Y782713D01*
X325542Y782735D01*
X325695Y782811D01*
X325852Y782878D01*
X325916Y782919D01*
X325985Y782952D01*
X326124Y783051D01*
X326268Y783143D01*
X326325Y783194D01*
X326387Y783238D01*
X326508Y783358D01*
X326636Y783472D01*
X326684Y783531D01*
X326738Y783585D01*
X326839Y783723D01*
X326946Y783856D01*
X326983Y783922D01*
X327028Y783983D01*
X327105Y784136D01*
X327190Y784284D01*
X327216Y784356D01*
X327251Y784424D01*
X327302Y784587D01*
X327361Y784747D01*
X327376Y784822D01*
X327399Y784894D01*
X327411Y784999D01*
X327456Y785231D01*
X327463Y785467D01*
X327475Y785572D01*
X327475Y790748D01*
X327474Y790758D01*
X327475Y790768D01*
X327455Y791001D01*
X327435Y791240D01*
X327433Y791250D01*
X327432Y791260D01*
X327427Y791276D01*
X327427Y885844D01*
X327418Y885957D01*
X327419Y886072D01*
X327398Y886203D01*
X327387Y886335D01*
X327360Y886446D01*
X327342Y886559D01*
X327301Y886685D01*
X327269Y886814D01*
X327224Y886919D01*
X327188Y887028D01*
X327127Y887145D01*
X327074Y887268D01*
X327013Y887364D01*
X326960Y887465D01*
X326901Y887539D01*
X326809Y887684D01*
X326593Y887926D01*
X326535Y887998D01*
X322767Y891767D01*
X322709Y891816D01*
X322656Y891871D01*
X322521Y891975D01*
X322391Y892086D01*
X322325Y892125D01*
X322265Y892172D01*
X322114Y892252D01*
X321968Y892341D01*
X321897Y892369D01*
X321830Y892405D01*
X321668Y892460D01*
X321510Y892524D01*
X321436Y892540D01*
X321364Y892565D01*
X321195Y892594D01*
X321028Y892631D01*
X320952Y892635D01*
X320877Y892648D01*
X320706Y892649D01*
X320536Y892658D01*
X320460Y892650D01*
X320384Y892651D01*
X320215Y892624D01*
X320045Y892606D01*
X319972Y892586D01*
X319896Y892574D01*
X319734Y892520D01*
X319570Y892475D01*
X319500Y892444D01*
X319428Y892420D01*
X319276Y892341D01*
X319121Y892270D01*
X319058Y892227D01*
X318990Y892192D01*
X318908Y892126D01*
X318712Y891994D01*
X318539Y891832D01*
X318457Y891767D01*
X221845Y795155D01*
X221771Y795068D01*
X221690Y794987D01*
X221612Y794880D01*
X221526Y794779D01*
X221467Y794681D01*
X221400Y794589D01*
X221340Y794470D01*
X221271Y794356D01*
X221229Y794250D01*
X221177Y794148D01*
X221137Y794021D01*
X221088Y793898D01*
X221063Y793787D01*
X221029Y793678D01*
X221019Y793584D01*
X220981Y793417D01*
X220963Y793092D01*
X220953Y793000D01*
X220953Y791588D01*
X220959Y791512D01*
X220957Y791436D01*
X220979Y791267D01*
X220993Y791096D01*
X221011Y791022D01*
X221021Y790947D01*
X221070Y790783D01*
X221111Y790617D01*
X221141Y790548D01*
X221163Y790474D01*
X221239Y790321D01*
X221306Y790164D01*
X221347Y790100D01*
X221380Y790031D01*
X221479Y789892D01*
X221571Y789748D01*
X221622Y789691D01*
X221666Y789629D01*
X221786Y789508D01*
X221900Y789380D01*
X221959Y789332D01*
X222013Y789278D01*
X222151Y789177D01*
X222284Y789070D01*
X222350Y789033D01*
X222411Y788988D01*
X222564Y788911D01*
X222712Y788826D01*
X222784Y788800D01*
X222852Y788765D01*
X223015Y788714D01*
X223175Y788655D01*
X223250Y788640D01*
X223322Y788617D01*
X223427Y788605D01*
X223659Y788560D01*
X223895Y788553D01*
X224000Y788541D01*
X226453Y788541D01*
X226453Y780000D01*
X226453Y771459D01*
X225088Y771459D01*
X224908Y771445D01*
X224728Y771438D01*
X224662Y771425D01*
X224596Y771419D01*
X224421Y771376D01*
X224244Y771340D01*
X224182Y771317D01*
X224117Y771301D01*
X223951Y771229D01*
X223783Y771166D01*
X223725Y771132D01*
X223664Y771106D01*
X223512Y771009D01*
X223355Y770919D01*
X223304Y770877D01*
X223248Y770841D01*
X223113Y770721D01*
X222974Y770606D01*
X222930Y770557D01*
X222880Y770512D01*
X222767Y770372D01*
X222647Y770237D01*
X222612Y770180D01*
X222570Y770128D01*
X222481Y769972D01*
X222385Y769819D01*
X222359Y769758D01*
X222326Y769700D01*
X222263Y769530D01*
X222193Y769364D01*
X222178Y769300D01*
X222154Y769237D01*
X222120Y769060D01*
X222077Y768885D01*
X222072Y768818D01*
X222060Y768753D01*
X222054Y768573D01*
X222041Y768393D01*
X222046Y768326D01*
X222044Y768260D01*
X222068Y768081D01*
X222084Y767901D01*
X222098Y767851D01*
X222109Y767771D01*
X222251Y767299D01*
X222266Y767268D01*
X222272Y767246D01*
X222949Y765613D01*
X222965Y765546D01*
X222973Y765529D01*
X222973Y749520D01*
X222982Y749406D01*
X222981Y749292D01*
X223002Y749160D01*
X223013Y749028D01*
X223040Y748917D01*
X223058Y748804D01*
X223099Y748678D01*
X223131Y748549D01*
X223176Y748444D01*
X223212Y748336D01*
X223274Y748218D01*
X223326Y748096D01*
X223387Y747999D01*
X223440Y747898D01*
X223499Y747825D01*
X223591Y747680D01*
X223807Y747437D01*
X223865Y747365D01*
X224559Y746671D01*
X225175Y745185D01*
X225175Y734815D01*
X224559Y733329D01*
X223865Y732635D01*
X223791Y732548D01*
X223710Y732468D01*
X223632Y732361D01*
X223546Y732259D01*
X223487Y732161D01*
X223420Y732069D01*
X223360Y731951D01*
X223291Y731837D01*
X223249Y731730D01*
X223197Y731629D01*
X223157Y731502D01*
X223108Y731379D01*
X223083Y731267D01*
X223049Y731158D01*
X223039Y731065D01*
X223001Y730897D01*
X222983Y730573D01*
X222973Y730480D01*
X222973Y727490D01*
X222277Y725810D01*
X221845Y725378D01*
X221771Y725291D01*
X221690Y725211D01*
X221612Y725104D01*
X221526Y725003D01*
X221467Y724905D01*
X221400Y724812D01*
X221340Y724694D01*
X221271Y724580D01*
X221229Y724474D01*
X221177Y724372D01*
X221137Y724245D01*
X221088Y724122D01*
X221063Y724011D01*
X221029Y723901D01*
X221019Y723808D01*
X220981Y723640D01*
X220963Y723316D01*
X220953Y723224D01*
X220953Y715553D01*
X220956Y715515D01*
X220954Y715477D01*
X220976Y715269D01*
X220993Y715061D01*
X221002Y715024D01*
X221006Y714986D01*
X221061Y714785D01*
X221111Y714582D01*
X221126Y714547D01*
X221137Y714510D01*
X221224Y714320D01*
X221306Y714129D01*
X221326Y714097D01*
X221342Y714062D01*
X221459Y713888D01*
X221571Y713713D01*
X221596Y713684D01*
X221618Y713653D01*
X221761Y713501D01*
X221900Y713345D01*
X221929Y713321D01*
X221956Y713293D01*
X222121Y713166D01*
X222284Y713035D01*
X222317Y713016D01*
X222347Y712993D01*
X222531Y712894D01*
X222712Y712791D01*
X222748Y712778D01*
X222782Y712760D01*
X222979Y712692D01*
X223175Y712619D01*
X223212Y712612D01*
X223248Y712600D01*
X223455Y712564D01*
X223659Y712525D01*
X223697Y712523D01*
X223735Y712517D01*
X223944Y712516D01*
X224152Y712509D01*
X224190Y712514D01*
G37*
G36*
X94931Y970956D02*
X94931Y970956D01*
X94969Y970954D01*
X95177Y970976D01*
X95385Y970993D01*
X95422Y971002D01*
X95459Y971006D01*
X95660Y971061D01*
X95863Y971111D01*
X95898Y971127D01*
X95935Y971137D01*
X96125Y971224D01*
X96317Y971306D01*
X96349Y971326D01*
X96384Y971342D01*
X96557Y971459D01*
X96733Y971571D01*
X96761Y971596D01*
X96793Y971618D01*
X96945Y971761D01*
X97101Y971900D01*
X97125Y971930D01*
X97152Y971956D01*
X97279Y972121D01*
X97411Y972284D01*
X97429Y972317D01*
X97453Y972347D01*
X97551Y972531D01*
X97655Y972712D01*
X97668Y972748D01*
X97686Y972782D01*
X97754Y972979D01*
X97826Y973175D01*
X97834Y973212D01*
X97846Y973248D01*
X97881Y973455D01*
X97921Y973659D01*
X97922Y973697D01*
X97928Y973735D01*
X97930Y973944D01*
X97936Y974152D01*
X97931Y974190D01*
X97932Y974228D01*
X97899Y974435D01*
X97872Y974641D01*
X97861Y974678D01*
X97855Y974715D01*
X97790Y974914D01*
X97729Y975114D01*
X97713Y975148D01*
X97701Y975184D01*
X97604Y975369D01*
X97512Y975557D01*
X97490Y975588D01*
X97473Y975622D01*
X97415Y975694D01*
X97227Y975959D01*
X97106Y976081D01*
X97048Y976155D01*
X95925Y977277D01*
X95923Y977282D01*
X95919Y977291D01*
X95916Y977300D01*
X95806Y977511D01*
X95698Y977721D01*
X95692Y977729D01*
X95688Y977738D01*
X95662Y977769D01*
X95405Y978118D01*
X95311Y978209D01*
X95262Y978271D01*
X87838Y985695D01*
X86123Y987410D01*
X85427Y989090D01*
X85427Y1001860D01*
X85553Y1002164D01*
X85609Y1002335D01*
X85671Y1002505D01*
X85684Y1002570D01*
X85705Y1002633D01*
X85731Y1002812D01*
X85766Y1002989D01*
X85768Y1003055D01*
X85778Y1003121D01*
X85776Y1003302D01*
X85781Y1003482D01*
X85773Y1003548D01*
X85772Y1003615D01*
X85741Y1003792D01*
X85717Y1003971D01*
X85698Y1004035D01*
X85686Y1004100D01*
X85627Y1004270D01*
X85575Y1004444D01*
X85545Y1004503D01*
X85523Y1004566D01*
X85437Y1004724D01*
X85358Y1004887D01*
X85319Y1004941D01*
X85287Y1004999D01*
X85177Y1005142D01*
X85072Y1005289D01*
X85025Y1005336D01*
X84985Y1005389D01*
X84852Y1005512D01*
X84725Y1005640D01*
X84672Y1005679D01*
X84623Y1005724D01*
X84473Y1005824D01*
X84327Y1005930D01*
X84267Y1005960D01*
X84212Y1005997D01*
X84047Y1006071D01*
X83886Y1006153D01*
X83823Y1006173D01*
X83762Y1006200D01*
X83588Y1006247D01*
X83416Y1006301D01*
X83363Y1006307D01*
X83286Y1006328D01*
X82795Y1006377D01*
X82761Y1006375D01*
X82738Y1006377D01*
X61348Y1006377D01*
X59668Y1007073D01*
X57953Y1008788D01*
X15363Y1051378D01*
X15334Y1051403D01*
X15308Y1051432D01*
X15146Y1051563D01*
X14987Y1051698D01*
X14954Y1051718D01*
X14924Y1051742D01*
X14744Y1051844D01*
X14564Y1051953D01*
X14529Y1051967D01*
X14496Y1051986D01*
X14300Y1052058D01*
X14106Y1052136D01*
X14069Y1052144D01*
X14033Y1052157D01*
X13828Y1052197D01*
X13624Y1052242D01*
X13586Y1052245D01*
X13549Y1052252D01*
X13341Y1052258D01*
X13132Y1052270D01*
X13094Y1052266D01*
X13056Y1052267D01*
X12849Y1052240D01*
X12641Y1052218D01*
X12605Y1052208D01*
X12567Y1052203D01*
X12367Y1052142D01*
X12166Y1052087D01*
X12131Y1052071D01*
X12094Y1052060D01*
X11907Y1051969D01*
X11717Y1051881D01*
X11685Y1051860D01*
X11651Y1051843D01*
X11481Y1051723D01*
X11308Y1051606D01*
X11280Y1051580D01*
X11249Y1051558D01*
X11100Y1051411D01*
X10948Y1051268D01*
X10925Y1051238D01*
X10898Y1051211D01*
X10775Y1051042D01*
X10648Y1050877D01*
X10630Y1050843D01*
X10608Y1050812D01*
X10514Y1050626D01*
X10415Y1050442D01*
X10402Y1050406D01*
X10385Y1050372D01*
X10323Y1050173D01*
X10255Y1049975D01*
X10249Y1049938D01*
X10237Y1049901D01*
X10227Y1049809D01*
X10172Y1049489D01*
X10171Y1049317D01*
X10161Y1049224D01*
X10161Y1000412D01*
X10167Y1000336D01*
X10165Y1000260D01*
X10187Y1000091D01*
X10201Y999920D01*
X10219Y999846D01*
X10229Y999771D01*
X10278Y999607D01*
X10319Y999441D01*
X10349Y999372D01*
X10371Y999298D01*
X10447Y999145D01*
X10514Y998988D01*
X10555Y998924D01*
X10588Y998855D01*
X10687Y998716D01*
X10779Y998572D01*
X10830Y998515D01*
X10874Y998453D01*
X10994Y998332D01*
X11108Y998204D01*
X11167Y998156D01*
X11221Y998102D01*
X11359Y998001D01*
X11492Y997894D01*
X11558Y997857D01*
X11619Y997812D01*
X11772Y997735D01*
X11920Y997650D01*
X11992Y997624D01*
X12060Y997589D01*
X12223Y997538D01*
X12383Y997479D01*
X12458Y997464D01*
X12530Y997441D01*
X12635Y997429D01*
X12867Y997384D01*
X13103Y997377D01*
X13208Y997365D01*
X28132Y997365D01*
X28651Y996845D01*
X28738Y996771D01*
X28818Y996690D01*
X28926Y996612D01*
X29027Y996526D01*
X29125Y996467D01*
X29217Y996400D01*
X29335Y996340D01*
X29450Y996271D01*
X29556Y996229D01*
X29658Y996177D01*
X29784Y996137D01*
X29908Y996088D01*
X30019Y996063D01*
X30128Y996029D01*
X30222Y996019D01*
X30389Y995981D01*
X30714Y995963D01*
X30806Y995953D01*
X37738Y995953D01*
X61845Y971845D01*
X61932Y971771D01*
X62013Y971690D01*
X62120Y971612D01*
X62221Y971526D01*
X62319Y971467D01*
X62411Y971400D01*
X62530Y971340D01*
X62644Y971271D01*
X62750Y971229D01*
X62852Y971177D01*
X62979Y971137D01*
X63102Y971088D01*
X63213Y971063D01*
X63322Y971029D01*
X63416Y971019D01*
X63584Y970981D01*
X63908Y970963D01*
X64000Y970953D01*
X94893Y970953D01*
X94931Y970956D01*
G37*
G36*
X372456Y801286D02*
X372456Y801286D01*
X372532Y801284D01*
X372701Y801306D01*
X372872Y801320D01*
X372946Y801338D01*
X373021Y801348D01*
X373185Y801397D01*
X373351Y801438D01*
X373420Y801468D01*
X373494Y801490D01*
X373647Y801566D01*
X373804Y801633D01*
X373868Y801674D01*
X373937Y801707D01*
X374076Y801806D01*
X374220Y801898D01*
X374277Y801949D01*
X374339Y801993D01*
X374460Y802113D01*
X374588Y802227D01*
X374636Y802286D01*
X374690Y802340D01*
X374791Y802478D01*
X374898Y802611D01*
X374935Y802677D01*
X374980Y802738D01*
X375057Y802891D01*
X375142Y803039D01*
X375168Y803111D01*
X375203Y803179D01*
X375254Y803342D01*
X375313Y803502D01*
X375328Y803577D01*
X375351Y803649D01*
X375363Y803754D01*
X375408Y803986D01*
X375415Y804222D01*
X375427Y804327D01*
X375427Y852146D01*
X375421Y852222D01*
X375423Y852298D01*
X375401Y852467D01*
X375387Y852638D01*
X375369Y852712D01*
X375359Y852787D01*
X375310Y852951D01*
X375269Y853117D01*
X375239Y853186D01*
X375217Y853260D01*
X375141Y853413D01*
X375074Y853570D01*
X375033Y853634D01*
X375000Y853703D01*
X374901Y853842D01*
X374809Y853986D01*
X374758Y854043D01*
X374714Y854105D01*
X374594Y854226D01*
X374480Y854354D01*
X374421Y854402D01*
X374367Y854456D01*
X374229Y854557D01*
X374096Y854664D01*
X374030Y854701D01*
X373969Y854746D01*
X373816Y854823D01*
X373668Y854908D01*
X373596Y854934D01*
X373528Y854969D01*
X373365Y855020D01*
X373205Y855079D01*
X373130Y855094D01*
X373058Y855117D01*
X372953Y855129D01*
X372721Y855174D01*
X372485Y855181D01*
X372380Y855193D01*
X371044Y855193D01*
X369277Y855925D01*
X367925Y857277D01*
X367193Y859044D01*
X367193Y860956D01*
X367195Y860961D01*
X367198Y860970D01*
X367203Y860979D01*
X367274Y861205D01*
X367347Y861431D01*
X367348Y861440D01*
X367351Y861449D01*
X367355Y861490D01*
X367420Y861918D01*
X367418Y862049D01*
X367427Y862127D01*
X367427Y914000D01*
X367421Y914076D01*
X367423Y914152D01*
X367401Y914321D01*
X367387Y914492D01*
X367369Y914566D01*
X367359Y914641D01*
X367310Y914805D01*
X367269Y914971D01*
X367239Y915040D01*
X367217Y915114D01*
X367141Y915267D01*
X367074Y915424D01*
X367033Y915488D01*
X367000Y915557D01*
X366901Y915696D01*
X366809Y915840D01*
X366758Y915897D01*
X366714Y915959D01*
X366594Y916080D01*
X366480Y916208D01*
X366421Y916256D01*
X366367Y916310D01*
X366229Y916411D01*
X366096Y916518D01*
X366030Y916555D01*
X365969Y916600D01*
X365816Y916677D01*
X365668Y916762D01*
X365596Y916788D01*
X365528Y916823D01*
X365365Y916874D01*
X365205Y916933D01*
X365130Y916948D01*
X365058Y916971D01*
X364953Y916983D01*
X364721Y917028D01*
X364485Y917035D01*
X364380Y917047D01*
X362620Y917047D01*
X362544Y917041D01*
X362468Y917043D01*
X362299Y917021D01*
X362128Y917007D01*
X362054Y916989D01*
X361979Y916979D01*
X361815Y916930D01*
X361649Y916889D01*
X361580Y916859D01*
X361506Y916837D01*
X361353Y916761D01*
X361196Y916694D01*
X361132Y916653D01*
X361063Y916620D01*
X360924Y916521D01*
X360780Y916429D01*
X360723Y916378D01*
X360661Y916334D01*
X360540Y916214D01*
X360412Y916100D01*
X360364Y916041D01*
X360310Y915987D01*
X360209Y915849D01*
X360102Y915716D01*
X360065Y915650D01*
X360020Y915589D01*
X359943Y915436D01*
X359858Y915288D01*
X359832Y915216D01*
X359797Y915148D01*
X359746Y914985D01*
X359687Y914825D01*
X359672Y914750D01*
X359649Y914678D01*
X359637Y914573D01*
X359592Y914341D01*
X359585Y914105D01*
X359573Y914000D01*
X359573Y901090D01*
X358877Y899410D01*
X345465Y885998D01*
X345391Y885911D01*
X345310Y885831D01*
X345232Y885724D01*
X345146Y885622D01*
X345087Y885525D01*
X345020Y885432D01*
X344960Y885314D01*
X344891Y885200D01*
X344849Y885094D01*
X344797Y884992D01*
X344757Y884865D01*
X344708Y884742D01*
X344683Y884631D01*
X344649Y884521D01*
X344639Y884428D01*
X344601Y884260D01*
X344583Y883936D01*
X344573Y883844D01*
X344573Y804327D01*
X344579Y804251D01*
X344577Y804175D01*
X344599Y804006D01*
X344613Y803835D01*
X344631Y803761D01*
X344641Y803686D01*
X344690Y803522D01*
X344731Y803356D01*
X344761Y803287D01*
X344783Y803213D01*
X344859Y803060D01*
X344926Y802903D01*
X344967Y802839D01*
X345000Y802770D01*
X345099Y802631D01*
X345191Y802487D01*
X345242Y802430D01*
X345286Y802368D01*
X345406Y802247D01*
X345520Y802119D01*
X345579Y802071D01*
X345633Y802017D01*
X345771Y801916D01*
X345904Y801809D01*
X345970Y801772D01*
X346031Y801727D01*
X346184Y801650D01*
X346332Y801565D01*
X346404Y801539D01*
X346472Y801504D01*
X346635Y801453D01*
X346795Y801394D01*
X346870Y801379D01*
X346942Y801356D01*
X347047Y801344D01*
X347279Y801299D01*
X347515Y801292D01*
X347620Y801280D01*
X372380Y801280D01*
X372456Y801286D01*
G37*
%LPC*%
G36*
X482368Y856475D02*
X482368Y856475D01*
X481475Y857368D01*
X481475Y857658D01*
X481461Y857838D01*
X481454Y858018D01*
X481441Y858083D01*
X481435Y858150D01*
X481392Y858325D01*
X481356Y858502D01*
X481333Y858564D01*
X481317Y858629D01*
X481245Y858794D01*
X481182Y858963D01*
X481148Y859021D01*
X481122Y859082D01*
X481025Y859234D01*
X480935Y859391D01*
X480893Y859442D01*
X480857Y859498D01*
X480737Y859633D01*
X480622Y859772D01*
X480573Y859816D01*
X480528Y859866D01*
X480388Y859979D01*
X480253Y860099D01*
X480196Y860134D01*
X480144Y860176D01*
X479988Y860265D01*
X479835Y860361D01*
X479774Y860387D01*
X479716Y860420D01*
X479546Y860483D01*
X479380Y860553D01*
X479316Y860568D01*
X479253Y860592D01*
X479076Y860626D01*
X478901Y860668D01*
X478834Y860673D01*
X478769Y860686D01*
X478589Y860692D01*
X478409Y860705D01*
X478342Y860699D01*
X478276Y860702D01*
X478097Y860678D01*
X477917Y860662D01*
X477867Y860648D01*
X477787Y860637D01*
X477315Y860495D01*
X477284Y860480D01*
X477262Y860473D01*
X473317Y858839D01*
X467683Y858839D01*
X462479Y860995D01*
X458495Y864979D01*
X456339Y870183D01*
X456339Y875817D01*
X458661Y881422D01*
X458716Y881593D01*
X458779Y881763D01*
X458792Y881828D01*
X458812Y881891D01*
X458839Y882070D01*
X458874Y882247D01*
X458876Y882313D01*
X458886Y882379D01*
X458884Y882560D01*
X458889Y882740D01*
X458880Y882806D01*
X458880Y882873D01*
X458848Y883050D01*
X458825Y883229D01*
X458805Y883293D01*
X458794Y883358D01*
X458734Y883529D01*
X458682Y883702D01*
X458653Y883761D01*
X458631Y883824D01*
X458545Y883982D01*
X458465Y884145D01*
X458427Y884199D01*
X458395Y884257D01*
X458284Y884400D01*
X458180Y884547D01*
X458133Y884594D01*
X458092Y884647D01*
X457960Y884770D01*
X457833Y884898D01*
X457779Y884937D01*
X457731Y884982D01*
X457580Y885082D01*
X457434Y885188D01*
X457375Y885218D01*
X457320Y885255D01*
X457155Y885329D01*
X456994Y885411D01*
X456930Y885431D01*
X456870Y885458D01*
X456696Y885505D01*
X456523Y885559D01*
X456471Y885565D01*
X456393Y885586D01*
X455902Y885635D01*
X455869Y885633D01*
X455846Y885635D01*
X455769Y885635D01*
X455552Y885618D01*
X455333Y885604D01*
X455306Y885598D01*
X455277Y885595D01*
X455066Y885543D01*
X454853Y885494D01*
X454826Y885483D01*
X454799Y885477D01*
X454598Y885390D01*
X454396Y885308D01*
X454371Y885293D01*
X454345Y885282D01*
X454161Y885165D01*
X453975Y885051D01*
X453953Y885032D01*
X453929Y885017D01*
X453767Y884872D01*
X453601Y884729D01*
X453582Y884707D01*
X453561Y884688D01*
X453424Y884519D01*
X453284Y884351D01*
X453272Y884331D01*
X453251Y884304D01*
X453106Y884049D01*
X452002Y882945D01*
X450626Y882375D01*
X444874Y882375D01*
X443498Y882945D01*
X442445Y883998D01*
X441875Y885374D01*
X441875Y896626D01*
X442445Y898002D01*
X443498Y899055D01*
X444874Y899625D01*
X450626Y899625D01*
X452002Y899055D01*
X453055Y898002D01*
X453610Y896662D01*
X453710Y896467D01*
X453806Y896271D01*
X453822Y896248D01*
X453835Y896223D01*
X453965Y896047D01*
X454091Y895869D01*
X454111Y895849D01*
X454128Y895826D01*
X454284Y895673D01*
X454438Y895518D01*
X454461Y895501D01*
X454481Y895481D01*
X454660Y895356D01*
X454837Y895228D01*
X454862Y895215D01*
X454885Y895199D01*
X455082Y895104D01*
X455277Y895005D01*
X455304Y894997D01*
X455330Y894984D01*
X455538Y894923D01*
X455747Y894857D01*
X455771Y894854D01*
X455803Y894845D01*
X456292Y894784D01*
X456373Y894787D01*
X456425Y894781D01*
X491202Y894781D01*
X491260Y894757D01*
X491269Y894754D01*
X491277Y894749D01*
X491503Y894678D01*
X491729Y894605D01*
X491739Y894604D01*
X491748Y894601D01*
X491788Y894597D01*
X492217Y894532D01*
X492348Y894534D01*
X492426Y894525D01*
X503632Y894525D01*
X504525Y893632D01*
X504525Y857368D01*
X503632Y856475D01*
X482368Y856475D01*
G37*
%LPD*%
G36*
X13398Y1151446D02*
X13398Y1151446D01*
X13436Y1151446D01*
X13643Y1151478D01*
X13849Y1151505D01*
X13886Y1151516D01*
X13923Y1151522D01*
X14122Y1151587D01*
X14321Y1151648D01*
X14356Y1151665D01*
X14392Y1151676D01*
X14577Y1151773D01*
X14765Y1151865D01*
X14796Y1151887D01*
X14830Y1151904D01*
X14902Y1151962D01*
X15167Y1152150D01*
X15289Y1152271D01*
X15363Y1152330D01*
X21583Y1158550D01*
X21657Y1158637D01*
X21738Y1158717D01*
X21816Y1158824D01*
X21902Y1158926D01*
X21961Y1159023D01*
X22028Y1159116D01*
X22088Y1159234D01*
X22157Y1159348D01*
X22199Y1159454D01*
X22251Y1159556D01*
X22291Y1159683D01*
X22340Y1159806D01*
X22365Y1159917D01*
X22399Y1160027D01*
X22409Y1160120D01*
X22447Y1160288D01*
X22465Y1160612D01*
X22475Y1160704D01*
X22475Y1167132D01*
X23368Y1168025D01*
X29796Y1168025D01*
X29909Y1168034D01*
X30024Y1168033D01*
X30155Y1168054D01*
X30287Y1168065D01*
X30398Y1168092D01*
X30511Y1168110D01*
X30637Y1168151D01*
X30766Y1168183D01*
X30871Y1168228D01*
X30980Y1168264D01*
X31098Y1168326D01*
X31220Y1168378D01*
X31316Y1168439D01*
X31417Y1168492D01*
X31491Y1168551D01*
X31636Y1168643D01*
X31878Y1168859D01*
X31950Y1168917D01*
X35195Y1172162D01*
X36910Y1173877D01*
X38590Y1174573D01*
X51410Y1174573D01*
X53090Y1173877D01*
X57845Y1169122D01*
X57903Y1169072D01*
X57955Y1169017D01*
X58091Y1168913D01*
X58221Y1168802D01*
X58287Y1168763D01*
X58347Y1168716D01*
X58497Y1168636D01*
X58644Y1168548D01*
X58714Y1168519D01*
X58782Y1168483D01*
X58943Y1168428D01*
X59102Y1168364D01*
X59176Y1168348D01*
X59248Y1168323D01*
X59417Y1168295D01*
X59583Y1168258D01*
X59660Y1168253D01*
X59735Y1168241D01*
X59906Y1168240D01*
X60076Y1168230D01*
X60152Y1168238D01*
X60228Y1168238D01*
X60397Y1168264D01*
X60567Y1168282D01*
X60640Y1168302D01*
X60715Y1168314D01*
X60878Y1168368D01*
X61042Y1168413D01*
X61112Y1168445D01*
X61184Y1168468D01*
X61335Y1168547D01*
X61491Y1168619D01*
X61554Y1168661D01*
X61622Y1168696D01*
X61704Y1168762D01*
X61900Y1168894D01*
X62073Y1169056D01*
X62155Y1169122D01*
X73933Y1180900D01*
X74007Y1180987D01*
X74088Y1181067D01*
X74166Y1181174D01*
X74252Y1181276D01*
X74311Y1181373D01*
X74378Y1181466D01*
X74438Y1181584D01*
X74507Y1181698D01*
X74549Y1181804D01*
X74601Y1181906D01*
X74641Y1182033D01*
X74690Y1182156D01*
X74715Y1182267D01*
X74749Y1182377D01*
X74759Y1182470D01*
X74797Y1182638D01*
X74815Y1182962D01*
X74825Y1183054D01*
X74825Y1185185D01*
X75008Y1185626D01*
X75063Y1185798D01*
X75126Y1185967D01*
X75139Y1186032D01*
X75159Y1186095D01*
X75186Y1186274D01*
X75221Y1186451D01*
X75223Y1186517D01*
X75233Y1186583D01*
X75231Y1186764D01*
X75236Y1186944D01*
X75228Y1187010D01*
X75227Y1187077D01*
X75195Y1187254D01*
X75172Y1187433D01*
X75153Y1187497D01*
X75141Y1187562D01*
X75081Y1187733D01*
X75029Y1187906D01*
X75000Y1187965D01*
X74978Y1188028D01*
X74892Y1188187D01*
X74812Y1188349D01*
X74774Y1188403D01*
X74742Y1188461D01*
X74631Y1188604D01*
X74527Y1188751D01*
X74480Y1188798D01*
X74439Y1188851D01*
X74307Y1188974D01*
X74180Y1189102D01*
X74127Y1189141D01*
X74078Y1189186D01*
X73927Y1189286D01*
X73781Y1189392D01*
X73722Y1189422D01*
X73667Y1189459D01*
X73502Y1189533D01*
X73341Y1189615D01*
X73278Y1189635D01*
X73217Y1189662D01*
X73043Y1189709D01*
X72871Y1189763D01*
X72818Y1189769D01*
X72740Y1189790D01*
X72250Y1189839D01*
X72216Y1189837D01*
X72193Y1189839D01*
X13208Y1189839D01*
X13132Y1189833D01*
X13056Y1189835D01*
X12887Y1189813D01*
X12716Y1189799D01*
X12642Y1189781D01*
X12567Y1189771D01*
X12403Y1189722D01*
X12237Y1189681D01*
X12168Y1189651D01*
X12094Y1189629D01*
X11941Y1189553D01*
X11784Y1189486D01*
X11720Y1189445D01*
X11651Y1189412D01*
X11512Y1189313D01*
X11368Y1189221D01*
X11311Y1189170D01*
X11249Y1189126D01*
X11128Y1189006D01*
X11000Y1188892D01*
X10952Y1188833D01*
X10898Y1188779D01*
X10797Y1188641D01*
X10690Y1188508D01*
X10653Y1188442D01*
X10608Y1188381D01*
X10531Y1188228D01*
X10446Y1188080D01*
X10420Y1188008D01*
X10385Y1187940D01*
X10334Y1187777D01*
X10275Y1187617D01*
X10260Y1187542D01*
X10237Y1187470D01*
X10225Y1187365D01*
X10180Y1187133D01*
X10173Y1186897D01*
X10161Y1186792D01*
X10161Y1154484D01*
X10164Y1154446D01*
X10162Y1154408D01*
X10184Y1154200D01*
X10201Y1153993D01*
X10210Y1153956D01*
X10214Y1153918D01*
X10269Y1153716D01*
X10319Y1153514D01*
X10334Y1153479D01*
X10345Y1153442D01*
X10432Y1153252D01*
X10514Y1153060D01*
X10534Y1153028D01*
X10550Y1152994D01*
X10667Y1152820D01*
X10779Y1152644D01*
X10804Y1152616D01*
X10826Y1152584D01*
X10969Y1152432D01*
X11108Y1152276D01*
X11137Y1152252D01*
X11163Y1152225D01*
X11329Y1152097D01*
X11492Y1151966D01*
X11525Y1151948D01*
X11555Y1151924D01*
X11739Y1151826D01*
X11920Y1151722D01*
X11956Y1151709D01*
X11990Y1151691D01*
X12187Y1151623D01*
X12383Y1151551D01*
X12420Y1151544D01*
X12456Y1151531D01*
X12663Y1151496D01*
X12867Y1151456D01*
X12905Y1151455D01*
X12943Y1151449D01*
X13152Y1151447D01*
X13360Y1151441D01*
X13398Y1151446D01*
G37*
%LPC*%
G36*
X267374Y771375D02*
X267374Y771375D01*
X265998Y771945D01*
X264945Y772998D01*
X264718Y773546D01*
X264618Y773741D01*
X264523Y773937D01*
X264506Y773960D01*
X264493Y773985D01*
X264363Y774161D01*
X264237Y774339D01*
X264217Y774359D01*
X264200Y774382D01*
X264043Y774535D01*
X263890Y774690D01*
X263867Y774707D01*
X263847Y774727D01*
X263667Y774852D01*
X263492Y774980D01*
X263466Y774993D01*
X263443Y775009D01*
X263246Y775104D01*
X263051Y775203D01*
X263024Y775211D01*
X262998Y775224D01*
X262789Y775285D01*
X262581Y775351D01*
X262557Y775354D01*
X262525Y775363D01*
X262036Y775424D01*
X261955Y775421D01*
X261903Y775427D01*
X261072Y775427D01*
X260996Y775421D01*
X260920Y775423D01*
X260751Y775401D01*
X260580Y775387D01*
X260506Y775369D01*
X260431Y775359D01*
X260267Y775310D01*
X260101Y775269D01*
X260032Y775239D01*
X259958Y775217D01*
X259805Y775141D01*
X259648Y775074D01*
X259584Y775033D01*
X259515Y775000D01*
X259376Y774901D01*
X259232Y774809D01*
X259175Y774758D01*
X259113Y774714D01*
X258992Y774594D01*
X258864Y774480D01*
X258816Y774421D01*
X258762Y774367D01*
X258661Y774229D01*
X258554Y774096D01*
X258517Y774030D01*
X258472Y773969D01*
X258395Y773816D01*
X258310Y773668D01*
X258302Y773646D01*
X257132Y772475D01*
X243868Y772475D01*
X242673Y773671D01*
X242500Y773818D01*
X242328Y773968D01*
X242312Y773978D01*
X242297Y773990D01*
X242101Y774108D01*
X241908Y774228D01*
X241891Y774235D01*
X241875Y774245D01*
X241662Y774330D01*
X241452Y774416D01*
X241434Y774421D01*
X241416Y774428D01*
X241193Y774477D01*
X240972Y774529D01*
X240953Y774530D01*
X240935Y774535D01*
X240706Y774547D01*
X240480Y774563D01*
X240461Y774561D01*
X240442Y774562D01*
X240216Y774538D01*
X239989Y774517D01*
X239970Y774512D01*
X239952Y774510D01*
X239733Y774450D01*
X239511Y774392D01*
X239494Y774384D01*
X239476Y774379D01*
X239269Y774284D01*
X239061Y774192D01*
X239045Y774182D01*
X239028Y774174D01*
X238839Y774047D01*
X238648Y773922D01*
X238634Y773909D01*
X238618Y773898D01*
X238453Y773743D01*
X238284Y773588D01*
X238275Y773576D01*
X238259Y773560D01*
X237958Y773169D01*
X237915Y773088D01*
X237879Y773040D01*
X237533Y772440D01*
X237060Y771967D01*
X236481Y771632D01*
X235835Y771459D01*
X232547Y771459D01*
X232547Y780000D01*
X232547Y788541D01*
X235835Y788541D01*
X236481Y788368D01*
X237060Y788033D01*
X237533Y787560D01*
X237879Y786960D01*
X238009Y786772D01*
X238136Y786584D01*
X238149Y786570D01*
X238160Y786555D01*
X238319Y786389D01*
X238474Y786224D01*
X238489Y786213D01*
X238502Y786199D01*
X238685Y786062D01*
X238865Y785924D01*
X238882Y785915D01*
X238897Y785904D01*
X239099Y785799D01*
X239300Y785691D01*
X239318Y785685D01*
X239335Y785676D01*
X239550Y785605D01*
X239767Y785531D01*
X239785Y785528D01*
X239803Y785522D01*
X240027Y785487D01*
X240253Y785448D01*
X240272Y785448D01*
X240291Y785445D01*
X240517Y785447D01*
X240746Y785445D01*
X240765Y785448D01*
X240784Y785448D01*
X241008Y785486D01*
X241234Y785522D01*
X241252Y785528D01*
X241270Y785531D01*
X241486Y785605D01*
X241702Y785676D01*
X241719Y785685D01*
X241737Y785691D01*
X241938Y785799D01*
X242140Y785904D01*
X242152Y785914D01*
X242172Y785924D01*
X242563Y786225D01*
X242627Y786292D01*
X242673Y786329D01*
X243868Y787525D01*
X257132Y787525D01*
X258316Y786340D01*
X258378Y786196D01*
X258419Y786132D01*
X258452Y786063D01*
X258551Y785924D01*
X258643Y785780D01*
X258694Y785723D01*
X258738Y785661D01*
X258858Y785540D01*
X258972Y785412D01*
X259031Y785364D01*
X259085Y785310D01*
X259223Y785209D01*
X259356Y785102D01*
X259422Y785065D01*
X259483Y785020D01*
X259636Y784943D01*
X259784Y784858D01*
X259856Y784832D01*
X259924Y784797D01*
X260087Y784746D01*
X260247Y784687D01*
X260322Y784672D01*
X260394Y784649D01*
X260499Y784637D01*
X260731Y784592D01*
X260967Y784585D01*
X261072Y784573D01*
X261903Y784573D01*
X262121Y784590D01*
X262339Y784604D01*
X262366Y784610D01*
X262395Y784613D01*
X262606Y784665D01*
X262819Y784714D01*
X262846Y784725D01*
X262873Y784731D01*
X263074Y784817D01*
X263276Y784900D01*
X263301Y784915D01*
X263327Y784926D01*
X263511Y785043D01*
X263697Y785157D01*
X263719Y785176D01*
X263743Y785191D01*
X263906Y785336D01*
X264071Y785479D01*
X264090Y785501D01*
X264111Y785520D01*
X264247Y785689D01*
X264388Y785857D01*
X264400Y785878D01*
X264421Y785904D01*
X264665Y786332D01*
X264693Y786408D01*
X264718Y786454D01*
X264945Y787002D01*
X265998Y788055D01*
X267374Y788625D01*
X273126Y788625D01*
X274502Y788055D01*
X275555Y787002D01*
X276125Y785626D01*
X276125Y774374D01*
X275555Y772998D01*
X274502Y771945D01*
X273126Y771375D01*
X267374Y771375D01*
G37*
%LPD*%
%LPC*%
G36*
X406044Y865193D02*
X406044Y865193D01*
X404277Y865925D01*
X402925Y867277D01*
X402193Y869044D01*
X402193Y870956D01*
X402925Y872723D01*
X404277Y874075D01*
X404709Y874254D01*
X404717Y874258D01*
X404727Y874261D01*
X404938Y874371D01*
X405148Y874479D01*
X405156Y874485D01*
X405164Y874489D01*
X405196Y874514D01*
X405545Y874772D01*
X405636Y874865D01*
X405697Y874914D01*
X421483Y890700D01*
X421557Y890787D01*
X421638Y890867D01*
X421716Y890974D01*
X421802Y891076D01*
X421861Y891173D01*
X421928Y891266D01*
X421988Y891384D01*
X422057Y891498D01*
X422099Y891604D01*
X422151Y891706D01*
X422191Y891833D01*
X422240Y891956D01*
X422265Y892067D01*
X422299Y892177D01*
X422309Y892270D01*
X422347Y892438D01*
X422365Y892762D01*
X422375Y892854D01*
X422375Y896626D01*
X422945Y898002D01*
X423998Y899055D01*
X425374Y899625D01*
X431126Y899625D01*
X432502Y899055D01*
X433555Y898002D01*
X434125Y896626D01*
X434125Y885374D01*
X433555Y883998D01*
X432502Y882945D01*
X431126Y882375D01*
X427354Y882375D01*
X427241Y882366D01*
X427126Y882367D01*
X426995Y882346D01*
X426863Y882335D01*
X426752Y882308D01*
X426639Y882290D01*
X426513Y882249D01*
X426384Y882217D01*
X426279Y882172D01*
X426170Y882136D01*
X426052Y882074D01*
X425930Y882022D01*
X425834Y881961D01*
X425733Y881908D01*
X425659Y881849D01*
X425514Y881757D01*
X425272Y881541D01*
X425200Y881483D01*
X411561Y867844D01*
X411554Y867836D01*
X411547Y867830D01*
X411394Y867648D01*
X411241Y867468D01*
X411236Y867459D01*
X411230Y867452D01*
X411210Y867416D01*
X411204Y867406D01*
X409723Y865925D01*
X407956Y865193D01*
X406044Y865193D01*
G37*
%LPD*%
%LPC*%
G36*
X506175Y685925D02*
X506175Y685925D01*
X502803Y687322D01*
X500222Y689903D01*
X498825Y693275D01*
X498825Y696925D01*
X500222Y700297D01*
X502803Y702878D01*
X506175Y704275D01*
X509825Y704275D01*
X513197Y702878D01*
X515778Y700297D01*
X517175Y696925D01*
X517175Y693275D01*
X515778Y689903D01*
X513197Y687322D01*
X509825Y685925D01*
X506175Y685925D01*
G37*
%LPD*%
%LPC*%
G36*
X163047Y1148447D02*
X163047Y1148447D01*
X163047Y1163689D01*
X167575Y1163689D01*
X178289Y1152975D01*
X178289Y1148447D01*
X163047Y1148447D01*
G37*
%LPD*%
%LPC*%
G36*
X141711Y1148447D02*
X141711Y1148447D01*
X141711Y1152975D01*
X152425Y1163689D01*
X156953Y1163689D01*
X156953Y1148447D01*
X141711Y1148447D01*
G37*
%LPD*%
%LPC*%
G36*
X163047Y1127111D02*
X163047Y1127111D01*
X163047Y1142353D01*
X178289Y1142353D01*
X178289Y1137825D01*
X167575Y1127111D01*
X163047Y1127111D01*
G37*
%LPD*%
%LPC*%
G36*
X152425Y1127111D02*
X152425Y1127111D01*
X141711Y1137825D01*
X141711Y1142353D01*
X156953Y1142353D01*
X156953Y1127111D01*
X152425Y1127111D01*
G37*
%LPD*%
%LPC*%
G36*
X508000Y621947D02*
X508000Y621947D01*
X498275Y621947D01*
X498556Y622812D01*
X499284Y624241D01*
X500227Y625539D01*
X501361Y626673D01*
X502659Y627616D01*
X504088Y628344D01*
X505613Y628840D01*
X507056Y629068D01*
X507064Y629070D01*
X507071Y629071D01*
X507302Y629128D01*
X507536Y629185D01*
X507543Y629188D01*
X507550Y629189D01*
X507768Y629283D01*
X507990Y629377D01*
X507997Y629381D01*
X508004Y629384D01*
X508009Y629388D01*
X508059Y629363D01*
X508272Y629255D01*
X508279Y629253D01*
X508286Y629250D01*
X508319Y629241D01*
X508743Y629107D01*
X508845Y629096D01*
X508944Y629068D01*
X510387Y628840D01*
X511912Y628344D01*
X513341Y627616D01*
X514639Y626673D01*
X515773Y625539D01*
X516716Y624241D01*
X517444Y622812D01*
X517725Y621947D01*
X508000Y621947D01*
X508000Y621947D01*
G37*
%LPD*%
%LPC*%
G36*
X403999Y582499D02*
X403999Y582499D01*
X403999Y592541D01*
X408335Y592541D01*
X408981Y592368D01*
X409560Y592033D01*
X410033Y591560D01*
X410368Y590981D01*
X410541Y590335D01*
X410541Y582499D01*
X403999Y582499D01*
G37*
%LPD*%
%LPC*%
G36*
X389459Y582499D02*
X389459Y582499D01*
X389459Y590335D01*
X389632Y590981D01*
X389967Y591560D01*
X390440Y592033D01*
X391019Y592368D01*
X391665Y592541D01*
X396001Y592541D01*
X396001Y582499D01*
X389459Y582499D01*
G37*
%LPD*%
%LPC*%
G36*
X403999Y564459D02*
X403999Y564459D01*
X403999Y574501D01*
X410541Y574501D01*
X410541Y566665D01*
X410368Y566019D01*
X410033Y565440D01*
X409560Y564967D01*
X408981Y564632D01*
X408335Y564459D01*
X403999Y564459D01*
G37*
%LPD*%
%LPC*%
G36*
X391665Y564459D02*
X391665Y564459D01*
X391019Y564632D01*
X390440Y564967D01*
X389967Y565440D01*
X389632Y566019D01*
X389459Y566665D01*
X389459Y574501D01*
X396001Y574501D01*
X396001Y564459D01*
X391665Y564459D01*
G37*
%LPD*%
%LPC*%
G36*
X136230Y1170542D02*
X136230Y1170542D01*
X135364Y1170901D01*
X134585Y1171422D01*
X133922Y1172085D01*
X133401Y1172864D01*
X133042Y1173730D01*
X132989Y1173999D01*
X132950Y1174136D01*
X132920Y1174276D01*
X132882Y1174373D01*
X132854Y1174473D01*
X132793Y1174603D01*
X132741Y1174735D01*
X132688Y1174825D01*
X132644Y1174920D01*
X132563Y1175038D01*
X132491Y1175160D01*
X132424Y1175240D01*
X132365Y1175327D01*
X132266Y1175430D01*
X132175Y1175539D01*
X132096Y1175608D01*
X132023Y1175683D01*
X131910Y1175769D01*
X131802Y1175862D01*
X131713Y1175917D01*
X131629Y1175980D01*
X131503Y1176046D01*
X131382Y1176121D01*
X131285Y1176160D01*
X131192Y1176209D01*
X131057Y1176254D01*
X130925Y1176308D01*
X130824Y1176332D01*
X130724Y1176365D01*
X130583Y1176387D01*
X130445Y1176419D01*
X130340Y1176426D01*
X130237Y1176443D01*
X130095Y1176442D01*
X129952Y1176451D01*
X129848Y1176441D01*
X129744Y1176441D01*
X129603Y1176418D01*
X129461Y1176404D01*
X129360Y1176377D01*
X129257Y1176360D01*
X129122Y1176314D01*
X128984Y1176278D01*
X128889Y1176235D01*
X128790Y1176201D01*
X128664Y1176134D01*
X128534Y1176076D01*
X128447Y1176019D01*
X128355Y1175969D01*
X128241Y1175883D01*
X128122Y1175805D01*
X128045Y1175734D01*
X127962Y1175670D01*
X127864Y1175567D01*
X127760Y1175470D01*
X127695Y1175388D01*
X127623Y1175312D01*
X127544Y1175194D01*
X127456Y1175081D01*
X127405Y1174990D01*
X127347Y1174903D01*
X127287Y1174774D01*
X127218Y1174649D01*
X127195Y1174574D01*
X127140Y1174456D01*
X127024Y1174037D01*
X127011Y1173999D01*
X126958Y1173730D01*
X126599Y1172864D01*
X126078Y1172085D01*
X125415Y1171422D01*
X124636Y1170901D01*
X123770Y1170542D01*
X123297Y1170448D01*
X123297Y1176953D01*
X136703Y1176953D01*
X136703Y1170448D01*
X136230Y1170542D01*
G37*
%LPD*%
%LPC*%
G36*
X511047Y615853D02*
X511047Y615853D01*
X517725Y615853D01*
X517444Y614988D01*
X516716Y613559D01*
X515773Y612261D01*
X514639Y611127D01*
X513341Y610184D01*
X511912Y609456D01*
X511047Y609175D01*
X511047Y615853D01*
G37*
%LPD*%
%LPC*%
G36*
X504088Y609456D02*
X504088Y609456D01*
X502659Y610184D01*
X501361Y611127D01*
X500227Y612261D01*
X499284Y613559D01*
X498556Y614988D01*
X498275Y615853D01*
X504953Y615853D01*
X504953Y609175D01*
X504088Y609456D01*
G37*
%LPD*%
%LPC*%
G36*
X93047Y1121447D02*
X93047Y1121447D01*
X93047Y1126191D01*
X94878Y1126191D01*
X95856Y1125996D01*
X96777Y1125615D01*
X97606Y1125061D01*
X98311Y1124356D01*
X98865Y1123527D01*
X99246Y1122606D01*
X99441Y1121628D01*
X99441Y1121447D01*
X93047Y1121447D01*
G37*
%LPD*%
%LPC*%
G36*
X101447Y1170559D02*
X101447Y1170559D01*
X101447Y1176953D01*
X106191Y1176953D01*
X106191Y1175122D01*
X105996Y1174144D01*
X105615Y1173223D01*
X105061Y1172394D01*
X104356Y1171689D01*
X103527Y1171135D01*
X102606Y1170754D01*
X101628Y1170559D01*
X101447Y1170559D01*
G37*
%LPD*%
%LPC*%
G36*
X80559Y1121447D02*
X80559Y1121447D01*
X80559Y1121628D01*
X80754Y1122606D01*
X81135Y1123527D01*
X81689Y1124356D01*
X82394Y1125061D01*
X83223Y1125615D01*
X84144Y1125996D01*
X85122Y1126191D01*
X86953Y1126191D01*
X86953Y1121447D01*
X80559Y1121447D01*
G37*
%LPD*%
%LPC*%
G36*
X453047Y613809D02*
X453047Y613809D01*
X453047Y618553D01*
X459441Y618553D01*
X459441Y618372D01*
X459246Y617394D01*
X458865Y616473D01*
X458311Y615644D01*
X457606Y614939D01*
X456777Y614385D01*
X455856Y614004D01*
X454878Y613809D01*
X453047Y613809D01*
G37*
%LPD*%
%LPC*%
G36*
X323047Y563809D02*
X323047Y563809D01*
X323047Y568553D01*
X329441Y568553D01*
X329441Y568372D01*
X329246Y567394D01*
X328865Y566473D01*
X328311Y565644D01*
X327606Y564939D01*
X326777Y564385D01*
X325856Y564004D01*
X324878Y563809D01*
X323047Y563809D01*
G37*
%LPD*%
%LPC*%
G36*
X363047Y563809D02*
X363047Y563809D01*
X363047Y568553D01*
X369441Y568553D01*
X369441Y568372D01*
X369246Y567394D01*
X368865Y566473D01*
X368311Y565644D01*
X367606Y564939D01*
X366777Y564385D01*
X365856Y564004D01*
X364878Y563809D01*
X363047Y563809D01*
G37*
%LPD*%
%LPC*%
G36*
X445122Y613809D02*
X445122Y613809D01*
X444144Y614004D01*
X443223Y614385D01*
X442394Y614939D01*
X441689Y615644D01*
X441135Y616473D01*
X440754Y617394D01*
X440559Y618372D01*
X440559Y618553D01*
X446953Y618553D01*
X446953Y613809D01*
X445122Y613809D01*
G37*
%LPD*%
%LPC*%
G36*
X355122Y563809D02*
X355122Y563809D01*
X354144Y564004D01*
X353223Y564385D01*
X352394Y564939D01*
X351689Y565644D01*
X351135Y566473D01*
X350754Y567394D01*
X350559Y568372D01*
X350559Y568553D01*
X356953Y568553D01*
X356953Y563809D01*
X355122Y563809D01*
G37*
%LPD*%
%LPC*%
G36*
X315122Y563809D02*
X315122Y563809D01*
X314144Y564004D01*
X313223Y564385D01*
X312394Y564939D01*
X311689Y565644D01*
X311135Y566473D01*
X310754Y567394D01*
X310559Y568372D01*
X310559Y568553D01*
X316953Y568553D01*
X316953Y563809D01*
X315122Y563809D01*
G37*
%LPD*%
%LPC*%
G36*
X223047Y1102797D02*
X223047Y1102797D01*
X223047Y1106641D01*
X225350Y1106641D01*
X226270Y1106458D01*
X227136Y1106099D01*
X227915Y1105578D01*
X228578Y1104915D01*
X229099Y1104136D01*
X229458Y1103270D01*
X229552Y1102797D01*
X223047Y1102797D01*
G37*
%LPD*%
%LPC*%
G36*
X142797Y1176953D02*
X142797Y1176953D01*
X146641Y1176953D01*
X146641Y1174650D01*
X146458Y1173730D01*
X146099Y1172864D01*
X145578Y1172085D01*
X144915Y1171422D01*
X144136Y1170901D01*
X143270Y1170542D01*
X142797Y1170448D01*
X142797Y1176953D01*
G37*
%LPD*%
%LPC*%
G36*
X210448Y1102797D02*
X210448Y1102797D01*
X210542Y1103270D01*
X210901Y1104136D01*
X211422Y1104915D01*
X212085Y1105578D01*
X212864Y1106099D01*
X213730Y1106458D01*
X214650Y1106641D01*
X216953Y1106641D01*
X216953Y1102797D01*
X210448Y1102797D01*
G37*
%LPD*%
%LPC*%
G36*
X223047Y1092859D02*
X223047Y1092859D01*
X223047Y1096703D01*
X229552Y1096703D01*
X229458Y1096230D01*
X229099Y1095364D01*
X228578Y1094585D01*
X227915Y1093922D01*
X227136Y1093401D01*
X226270Y1093042D01*
X225350Y1092859D01*
X223047Y1092859D01*
G37*
%LPD*%
%LPC*%
G36*
X116730Y1170542D02*
X116730Y1170542D01*
X115864Y1170901D01*
X115085Y1171422D01*
X114422Y1172085D01*
X113901Y1172864D01*
X113542Y1173730D01*
X113359Y1174650D01*
X113359Y1176953D01*
X117203Y1176953D01*
X117203Y1170448D01*
X116730Y1170542D01*
G37*
%LPD*%
%LPC*%
G36*
X214650Y1092859D02*
X214650Y1092859D01*
X213730Y1093042D01*
X212864Y1093401D01*
X212085Y1093922D01*
X211422Y1094585D01*
X210901Y1095364D01*
X210542Y1096230D01*
X210448Y1096703D01*
X216953Y1096703D01*
X216953Y1092859D01*
X214650Y1092859D01*
G37*
%LPD*%
%LPC*%
G36*
X170167Y1004909D02*
X170167Y1004909D01*
X170167Y1007903D01*
X177286Y1007903D01*
X177286Y1007115D01*
X177113Y1006469D01*
X176778Y1005890D01*
X176305Y1005417D01*
X175726Y1005082D01*
X175080Y1004909D01*
X170167Y1004909D01*
G37*
%LPD*%
%LPC*%
G36*
X309910Y716459D02*
X309910Y716459D01*
X309264Y716632D01*
X308685Y716967D01*
X308212Y717440D01*
X307877Y718019D01*
X307704Y718665D01*
X307704Y718953D01*
X314573Y718953D01*
X314573Y716459D01*
X309910Y716459D01*
G37*
%LPD*%
D10*
X175000Y550000D03*
X175000Y565000D03*
X175000Y580000D03*
X175000Y595000D03*
X175000Y610000D03*
X175000Y625000D03*
X175000Y640000D03*
X175000Y655000D03*
X175000Y670000D03*
X175000Y685000D03*
X175000Y700000D03*
X175000Y715000D03*
X175000Y730000D03*
D11*
X160000Y748750D03*
X145000Y748750D03*
X130000Y748750D03*
X115000Y748750D03*
X100000Y748750D03*
X85000Y748750D03*
X70000Y748750D03*
X55000Y748750D03*
D10*
X40000Y730000D03*
X40000Y715000D03*
X40000Y700000D03*
X40000Y685000D03*
X40000Y670000D03*
X40000Y655000D03*
X40000Y640000D03*
X40000Y625000D03*
X40000Y610000D03*
X40000Y595000D03*
X40000Y580000D03*
X40000Y565000D03*
X40000Y550000D03*
D12*
X364380Y585670D02*
X364380Y591130D01*
X364380Y585670D02*
X355620Y585670D01*
X355620Y591130D01*
X364380Y591130D01*
X364380Y590458D02*
X355620Y590458D01*
X355620Y574330D02*
X355620Y568870D01*
X355620Y574330D02*
X364380Y574330D01*
X364380Y568870D01*
X355620Y568870D01*
X355620Y573658D02*
X364380Y573658D01*
X324380Y585670D02*
X324380Y591130D01*
X324380Y585670D02*
X315620Y585670D01*
X315620Y591130D01*
X324380Y591130D01*
X324380Y590458D02*
X315620Y590458D01*
X315620Y574330D02*
X315620Y568870D01*
X315620Y574330D02*
X324380Y574330D01*
X324380Y568870D01*
X315620Y568870D01*
X315620Y573658D02*
X324380Y573658D01*
X145620Y838870D02*
X145620Y844330D01*
X154380Y844330D01*
X154380Y838870D01*
X145620Y838870D01*
X145620Y843658D02*
X154380Y843658D01*
X154380Y855670D02*
X154380Y861130D01*
X154380Y855670D02*
X145620Y855670D01*
X145620Y861130D01*
X154380Y861130D01*
X154380Y860458D02*
X145620Y860458D01*
D13*
X50500Y770000D03*
X29500Y770000D03*
D14*
X332000Y707620D03*
X340000Y707620D03*
X348000Y707620D03*
X356000Y707620D03*
X364000Y707620D03*
X372000Y707620D03*
X380000Y707620D03*
X388000Y707620D03*
D15*
X402380Y722000D03*
X402380Y730000D03*
X402380Y738000D03*
X402380Y746000D03*
X402380Y754000D03*
X402380Y762000D03*
X402380Y770000D03*
X402380Y778000D03*
D14*
X388000Y792380D03*
X380000Y792380D03*
X372000Y792380D03*
X364000Y792380D03*
X356000Y792380D03*
X348000Y792380D03*
X340000Y792380D03*
X332000Y792380D03*
D15*
X317620Y778000D03*
X317620Y770000D03*
X317620Y762000D03*
X317620Y754000D03*
X317620Y746000D03*
X317620Y738000D03*
X317620Y730000D03*
X317620Y722000D03*
D16*
X15118Y728118D02*
X15118Y732382D01*
X24882Y732382D01*
X24882Y728118D01*
X15118Y728118D01*
X15118Y732333D02*
X24882Y732333D01*
X24882Y747618D02*
X24882Y751882D01*
X24882Y747618D02*
X15118Y747618D01*
X15118Y751882D01*
X24882Y751882D01*
X24882Y751833D02*
X15118Y751833D01*
D17*
X326500Y979000D03*
X421500Y979000D03*
X340500Y1012600D03*
X340500Y945400D03*
X407500Y945400D03*
X407500Y1012600D03*
D18*
X400000Y578500D03*
X400000Y641500D03*
D19*
X493000Y875500D03*
X493000Y792500D03*
D20*
X508000Y695100D03*
X508000Y669700D03*
X508000Y644300D03*
X508000Y618900D03*
D12*
X445620Y618870D02*
X445620Y624330D01*
X454380Y624330D01*
X454380Y618870D01*
X445620Y618870D01*
X445620Y623658D02*
X454380Y623658D01*
X454380Y635670D02*
X454380Y641130D01*
X454380Y635670D02*
X445620Y635670D01*
X445620Y641130D01*
X454380Y641130D01*
X454380Y640458D02*
X445620Y640458D01*
D21*
X167120Y1010950D03*
X167120Y1023650D03*
X167120Y1036350D03*
X167120Y1049050D03*
X112880Y1049050D03*
X112880Y1036350D03*
X112880Y1023650D03*
X112880Y1010950D03*
D22*
X140000Y1030000D03*
D23*
X160000Y1094600D03*
X160000Y1145400D03*
D24*
X321500Y630000D03*
X358500Y630000D03*
D16*
X122382Y1184882D02*
X118118Y1184882D01*
X122382Y1184882D02*
X122382Y1175118D01*
X118118Y1175118D01*
X118118Y1184882D01*
X118118Y1179333D02*
X122382Y1179333D01*
X122382Y1183548D02*
X118118Y1183548D01*
X137618Y1175118D02*
X141882Y1175118D01*
X137618Y1175118D02*
X137618Y1184882D01*
X141882Y1184882D01*
X141882Y1175118D01*
X141882Y1179333D02*
X137618Y1179333D01*
X137618Y1183548D02*
X141882Y1183548D01*
X64882Y1101882D02*
X64882Y1097618D01*
X55118Y1097618D01*
X55118Y1101882D01*
X64882Y1101882D01*
X64882Y1101833D02*
X55118Y1101833D01*
X55118Y1082382D02*
X55118Y1078118D01*
X55118Y1082382D02*
X64882Y1082382D01*
X64882Y1078118D01*
X55118Y1078118D01*
X55118Y1082333D02*
X64882Y1082333D01*
X34882Y1097618D02*
X34882Y1101882D01*
X34882Y1097618D02*
X25118Y1097618D01*
X25118Y1101882D01*
X34882Y1101882D01*
X34882Y1101833D02*
X25118Y1101833D01*
X25118Y1082382D02*
X25118Y1078118D01*
X25118Y1082382D02*
X34882Y1082382D01*
X34882Y1078118D01*
X25118Y1078118D01*
X25118Y1082333D02*
X34882Y1082333D01*
D12*
X78870Y1184380D02*
X84330Y1184380D01*
X84330Y1175620D01*
X78870Y1175620D01*
X78870Y1184380D01*
X78870Y1180408D02*
X84330Y1180408D01*
X95670Y1175620D02*
X101130Y1175620D01*
X95670Y1175620D02*
X95670Y1184380D01*
X101130Y1184380D01*
X101130Y1175620D01*
X101130Y1180408D02*
X95670Y1180408D01*
X94380Y1121130D02*
X94380Y1115670D01*
X85620Y1115670D01*
X85620Y1121130D01*
X94380Y1121130D01*
X94380Y1120458D02*
X85620Y1120458D01*
X85620Y1104330D02*
X85620Y1098870D01*
X85620Y1104330D02*
X94380Y1104330D01*
X94380Y1098870D01*
X85620Y1098870D01*
X85620Y1103658D02*
X94380Y1103658D01*
D16*
X215118Y1082382D02*
X215118Y1078118D01*
X215118Y1082382D02*
X224882Y1082382D01*
X224882Y1078118D01*
X215118Y1078118D01*
X215118Y1082333D02*
X224882Y1082333D01*
X224882Y1097618D02*
X224882Y1101882D01*
X224882Y1097618D02*
X215118Y1097618D01*
X215118Y1101882D01*
X224882Y1101882D01*
X224882Y1101833D02*
X215118Y1101833D01*
D13*
X30000Y1160500D03*
X30000Y1139500D03*
X60000Y1160500D03*
X60000Y1139500D03*
D12*
X215670Y735620D02*
X221130Y735620D01*
X215670Y735620D02*
X215670Y744380D01*
X221130Y744380D01*
X221130Y735620D01*
X221130Y740408D02*
X215670Y740408D01*
X204330Y744380D02*
X198870Y744380D01*
X204330Y744380D02*
X204330Y735620D01*
X198870Y735620D01*
X198870Y744380D01*
X198870Y740408D02*
X204330Y740408D01*
D16*
X287618Y775118D02*
X291882Y775118D01*
X287618Y775118D02*
X287618Y784882D01*
X291882Y784882D01*
X291882Y775118D01*
X291882Y779333D02*
X287618Y779333D01*
X287618Y783548D02*
X291882Y783548D01*
X272382Y784882D02*
X268118Y784882D01*
X272382Y784882D02*
X272382Y775118D01*
X268118Y775118D01*
X268118Y784882D01*
X268118Y779333D02*
X272382Y779333D01*
X272382Y783548D02*
X268118Y783548D01*
D13*
X229500Y780000D03*
X250500Y780000D03*
D25*
X20000Y986840D03*
X20000Y913160D03*
D26*
X47000Y950000D03*
X47000Y956500D03*
X47000Y937000D03*
X47000Y943500D03*
X47000Y963000D03*
D27*
X240000Y550000D03*
D28*
X306500Y1144000D03*
X331900Y1174000D03*
X357300Y1144000D03*
X382700Y1174000D03*
X408100Y1144000D03*
X433500Y1174000D03*
D29*
X434500Y739000D03*
X453500Y739000D03*
X444000Y760000D03*
D16*
X445618Y886118D02*
X449882Y886118D01*
X445618Y886118D02*
X445618Y895882D01*
X449882Y895882D01*
X449882Y886118D01*
X449882Y890333D02*
X445618Y890333D01*
X445618Y894548D02*
X449882Y894548D01*
X430382Y895882D02*
X426118Y895882D01*
X430382Y895882D02*
X430382Y886118D01*
X426118Y886118D01*
X426118Y895882D01*
X426118Y890333D02*
X430382Y890333D01*
X430382Y894548D02*
X426118Y894548D01*
X334882Y1115618D02*
X334882Y1119882D01*
X334882Y1115618D02*
X325118Y1115618D01*
X325118Y1119882D01*
X334882Y1119882D01*
X334882Y1119833D02*
X325118Y1119833D01*
X325118Y1100382D02*
X325118Y1096118D01*
X325118Y1100382D02*
X334882Y1100382D01*
X334882Y1096118D01*
X325118Y1096118D01*
X325118Y1100333D02*
X334882Y1100333D01*
X361882Y1117618D02*
X361882Y1121882D01*
X361882Y1117618D02*
X352118Y1117618D01*
X352118Y1121882D01*
X361882Y1121882D01*
X361882Y1121833D02*
X352118Y1121833D01*
X352118Y1102382D02*
X352118Y1098118D01*
X352118Y1102382D02*
X361882Y1102382D01*
X361882Y1098118D01*
X352118Y1098118D01*
X352118Y1102333D02*
X361882Y1102333D01*
D12*
X405870Y1112380D02*
X411330Y1112380D01*
X411330Y1103620D01*
X405870Y1103620D01*
X405870Y1112380D01*
X405870Y1108408D02*
X411330Y1108408D01*
X422670Y1103620D02*
X428130Y1103620D01*
X422670Y1103620D02*
X422670Y1112380D01*
X428130Y1112380D01*
X428130Y1103620D01*
X428130Y1108408D02*
X422670Y1108408D01*
D30*
X150000Y830000D02*
X160000Y820000D01*
X150000Y830000D02*
X150000Y841600D01*
D31*
X160000Y820000D03*
D30*
X40000Y700000D02*
X30000Y700000D01*
X20000Y710000D01*
X20000Y730250D01*
X402380Y730000D02*
X402760Y729620D01*
X421156Y729620D01*
X481076Y669700D02*
X508000Y669700D01*
X481076Y669700D02*
X421156Y729620D01*
X495700Y644300D02*
X508000Y644300D01*
X495700Y644300D02*
X418000Y722000D01*
X402380Y722000D01*
X20000Y749750D02*
X19000Y750750D01*
X19000Y763500D01*
X25500Y770000D02*
X29500Y770000D01*
X25500Y770000D02*
X19000Y763500D01*
X326500Y998600D02*
X340500Y1012600D01*
X326500Y998600D02*
X326500Y979000D01*
X326500Y959400D01*
X340500Y945400D01*
X407250Y870000D02*
X428250Y891000D01*
X407250Y870000D02*
X407000Y870000D01*
D31*
X407000Y870000D03*
X65000Y963000D03*
D32*
X47000Y963000D01*
D30*
X220000Y1040000D02*
X220000Y1080250D01*
X203650Y1023650D02*
X167120Y1023650D01*
X203650Y1023650D02*
X220000Y1040000D01*
X112880Y1036350D02*
X73650Y1036350D01*
X60000Y1050000D01*
X60000Y1080250D01*
X66350Y1023650D02*
X112880Y1023650D01*
X66350Y1023650D02*
X30000Y1060000D01*
X30000Y1080250D01*
X30000Y1099750D02*
X30000Y1139500D01*
X60000Y1139500D02*
X60000Y1099750D01*
X407500Y1012600D02*
X407500Y945400D01*
X407500Y930400D01*
X380000Y902900D01*
X380000Y792380D01*
X90000Y1060000D02*
X90000Y1101600D01*
X100950Y1049050D02*
X112880Y1049050D01*
X100950Y1049050D02*
X90000Y1060000D01*
X150000Y1084600D02*
X160000Y1094600D01*
X150000Y1084600D02*
X107000Y1084600D01*
X90000Y1101600D01*
X175000Y550000D02*
X190000Y550000D01*
X210000Y570000D01*
X284000Y754000D02*
X317620Y754000D01*
X210000Y680000D02*
X210000Y570000D01*
X210000Y680000D02*
X284000Y754000D01*
X185000Y565000D02*
X175000Y565000D01*
X202380Y582380D02*
X202380Y683156D01*
X280844Y761620D01*
X317240Y761620D01*
X317620Y762000D01*
X202380Y582380D02*
X185000Y565000D01*
X356000Y659620D02*
X374120Y641500D01*
X356000Y659620D02*
X356000Y707620D01*
X374120Y641500D02*
X389000Y641500D01*
X400000Y641500D01*
X382700Y1112300D02*
X382700Y1174000D01*
X382700Y1112300D02*
X388000Y1107000D01*
D31*
X388000Y1107000D03*
X433000Y639000D03*
D30*
X433600Y638400D02*
X450000Y638400D01*
X433600Y638400D02*
X433000Y639000D01*
X430500Y641500D01*
X409000Y641500D01*
X400000Y641500D01*
X360000Y628500D02*
X360000Y588400D01*
X360000Y628500D02*
X358500Y630000D01*
X348000Y640500D02*
X348000Y707620D01*
X348000Y640500D02*
X358500Y630000D01*
X321500Y630000D02*
X320000Y628500D01*
X320000Y588400D01*
X340000Y648500D02*
X340000Y707620D01*
X340000Y648500D02*
X321500Y630000D01*
X270250Y780000D02*
X250500Y780000D01*
X317192Y770428D02*
X317620Y770000D01*
X317192Y770428D02*
X308351Y770428D01*
X298779Y780000D02*
X289750Y780000D01*
X298779Y780000D02*
X308351Y770428D01*
X30000Y1160500D02*
X39500Y1170000D01*
X50500Y1170000D01*
X13208Y1060000D02*
X62258Y1010950D01*
X13208Y1060000D02*
X13208Y1143708D01*
X30000Y1160500D01*
X168070Y1050000D02*
X190000Y1050000D01*
X168070Y1050000D02*
X167120Y1049050D01*
D31*
X190000Y1050000D03*
D30*
X100000Y1010950D02*
X62258Y1010950D01*
X100000Y1010950D02*
X112880Y1010950D01*
X100000Y1010950D02*
X90000Y1000950D01*
X90000Y990000D02*
X100000Y980000D01*
X90000Y990000D02*
X90000Y1000950D01*
D31*
X100000Y980000D03*
D30*
X60000Y1160500D02*
X50500Y1170000D01*
X60000Y1160500D02*
X79500Y1180000D01*
X81600Y1180000D01*
X466500Y792500D02*
X493000Y792500D01*
X466500Y792500D02*
X444000Y770000D01*
X444000Y760000D01*
X402808Y738428D02*
X402380Y738000D01*
X402808Y738428D02*
X433928Y738428D01*
X434500Y739000D01*
X448542Y890208D02*
X447750Y891000D01*
X448542Y890208D02*
X490292Y890208D01*
X493000Y887500D02*
X493000Y875500D01*
X493000Y887500D02*
X490292Y890208D01*
X332000Y707620D02*
X332000Y692000D01*
X330000Y690000D01*
X364000Y696000D02*
X364000Y707620D01*
X364000Y696000D02*
X370000Y690000D01*
X388000Y792380D02*
X388000Y808000D01*
X390000Y810000D01*
D33*
X390000Y810000D03*
D31*
X330000Y690000D03*
X370000Y690000D03*
D30*
X218400Y728400D02*
X218400Y740000D01*
X218400Y728400D02*
X205000Y715000D01*
X218400Y740000D02*
X218400Y764600D01*
X218000Y765000D01*
D31*
X218000Y765000D03*
D30*
X443500Y749000D02*
X453500Y739000D01*
X443500Y749000D02*
X438000Y749000D01*
X430000Y757000D01*
X430000Y780000D01*
X417620Y792380D01*
X388000Y792380D01*
X205000Y715000D02*
X175000Y715000D01*
X408100Y1108500D02*
X408100Y1144000D01*
X408100Y1108500D02*
X408600Y1108000D01*
X372000Y1071400D01*
X372000Y860000D01*
D31*
X372000Y860000D03*
D33*
X18000Y1186000D03*
X37000Y1186000D03*
X56000Y1186000D03*
X17000Y1166000D03*
X77000Y1159000D03*
X161000Y1183000D03*
X193000Y1182000D03*
X199000Y1156000D03*
X217000Y1128000D03*
X240000Y1113000D03*
X248000Y1098000D03*
X109000Y1163000D03*
X102000Y1147000D03*
X123000Y1159000D03*
X77000Y1133000D03*
X74000Y1109000D03*
X79000Y1080000D03*
X78000Y1052000D03*
X45000Y1152000D03*
X44000Y1128000D03*
X44000Y1108000D03*
X44000Y1072000D03*
X15000Y1039000D03*
X29000Y1021000D03*
X52000Y998000D03*
X73000Y998000D03*
X19000Y1005000D03*
X72000Y985000D03*
X60000Y984000D03*
X143000Y1161000D03*
X181000Y1160000D03*
X214000Y1186000D03*
X249000Y1070000D03*
X250000Y1031000D03*
X247000Y802000D03*
X282000Y802000D03*
X309000Y802000D03*
X359000Y848000D03*
X247000Y760000D03*
X265000Y760000D03*
X237000Y735000D03*
X273000Y721000D03*
X240000Y694000D03*
X273000Y694000D03*
X240000Y665000D03*
X273000Y666000D03*
X240000Y640000D03*
X273000Y641000D03*
X300000Y709000D03*
X309000Y681000D03*
X302000Y641000D03*
X302000Y602000D03*
X395000Y665000D03*
X422000Y681000D03*
X442000Y681000D03*
X442000Y665000D03*
X472000Y648000D03*
X491000Y631000D03*
X422000Y665000D03*
X467000Y631000D03*
X467000Y601000D03*
X492000Y601000D03*
X492000Y577000D03*
X467000Y577000D03*
X437000Y577000D03*
X437000Y555000D03*
X467000Y555000D03*
X492000Y555000D03*
X404000Y555000D03*
X370000Y555000D03*
X335000Y555000D03*
X302000Y555000D03*
X279000Y555000D03*
X520000Y555000D03*
X520000Y577000D03*
D30*
X360000Y571600D02*
X320000Y571600D01*
X220000Y1099750D02*
X220000Y1110000D01*
X90000Y1118400D02*
X90000Y1160000D01*
X117000Y1145400D02*
X90000Y1118400D01*
X117000Y1145400D02*
X160000Y1145400D01*
X184600Y1145400D02*
X220000Y1110000D01*
X184600Y1145400D02*
X160000Y1145400D01*
X160000Y1159750D02*
X139750Y1180000D01*
X160000Y1159750D02*
X160000Y1145400D01*
X120250Y1180000D02*
X98400Y1180000D01*
X98400Y1168400D01*
X90000Y1160000D01*
X167120Y1036350D02*
X196350Y1036350D01*
X200000Y1040000D01*
X200000Y1080000D01*
X219750Y1099750D01*
X220000Y1099750D01*
X240000Y1020000D02*
X240000Y1019750D01*
X508000Y618900D02*
X500700Y611600D01*
X460000Y611600D01*
X450000Y621600D01*
X400000Y578500D02*
X393100Y571600D01*
X360000Y571600D01*
X150000Y858400D02*
X118459Y858400D01*
X83419Y844803D01*
X40000Y740000D02*
X40000Y730000D01*
X40000Y740000D02*
X51875Y751875D01*
X55000Y748750D01*
X175000Y745000D02*
X175000Y730000D01*
X175000Y745000D02*
X170000Y750000D01*
X161250Y750000D01*
X160000Y748750D01*
X175000Y730000D02*
X190000Y730000D01*
X200000Y740000D02*
X201600Y740000D01*
X200000Y740000D02*
X190000Y730000D01*
X210000Y780000D02*
X229500Y780000D01*
X210000Y780000D02*
X200000Y770000D01*
X200000Y741600D01*
X201600Y740000D01*
X201600Y858400D02*
X150000Y858400D01*
X229500Y830500D02*
X229500Y780000D01*
X229500Y830500D02*
X201600Y858400D01*
X231200Y1010950D02*
X240000Y1019750D01*
D31*
X240000Y1020000D03*
X300000Y580000D03*
D30*
X230250Y1099750D02*
X220000Y1099750D01*
X230250Y1099750D02*
X240000Y1090000D01*
X240000Y1020000D01*
X54000Y766500D02*
X54000Y749750D01*
X55000Y748750D01*
X54000Y766500D02*
X50500Y770000D01*
X53500Y769000D02*
X53500Y814884D01*
X53500Y769000D02*
X51500Y769000D01*
X50500Y770000D01*
X53500Y814884D02*
X83419Y844803D01*
X150000Y900000D02*
X113000Y937000D01*
X150000Y900000D02*
X150000Y858400D01*
X167120Y957120D02*
X167120Y1010950D01*
X147000Y937000D02*
X113000Y937000D01*
X147000Y937000D02*
X167120Y957120D01*
X229500Y780000D02*
X230000Y779500D01*
X230000Y760000D01*
X298000Y722000D02*
X317620Y722000D01*
X298000Y722000D02*
X290000Y730000D01*
D31*
X290000Y730000D03*
X230000Y760000D03*
D30*
X317620Y722000D02*
X332000Y722000D01*
X388000Y778000D02*
X402380Y778000D01*
X388000Y778000D02*
X332000Y722000D01*
X320000Y571600D02*
X308400Y571600D01*
X300000Y580000D01*
X406900Y578500D02*
X450000Y621600D01*
X406900Y578500D02*
X400000Y578500D01*
X113000Y937000D02*
X86000Y937000D01*
D32*
X47000Y937000D01*
D30*
X167120Y1010950D02*
X231200Y1010950D01*
D33*
X115000Y1126000D03*
X138000Y1126000D03*
X115000Y1098000D03*
X138000Y1098000D03*
X193000Y1126000D03*
X193000Y1089000D03*
X204000Y1107000D03*
X188000Y1064000D03*
X162000Y1064000D03*
X138000Y1064000D03*
X107000Y1064000D03*
X177000Y1131000D03*
X177000Y1109000D03*
D30*
X433500Y1116100D02*
X433500Y1174000D01*
X433500Y1116100D02*
X425400Y1108000D01*
X425400Y982900D01*
X421500Y979000D01*
D31*
X457000Y717000D03*
X483000Y692000D03*
X461000Y767000D03*
X444000Y793000D03*
X435000Y848000D03*
X437000Y818000D03*
X343000Y765000D03*
X343000Y731000D03*
X376000Y731000D03*
X374000Y765000D03*
D30*
X330000Y1067000D02*
X330000Y1098250D01*
X330000Y1067000D02*
X340000Y1057000D01*
D31*
X340000Y1057000D03*
D30*
X340000Y887000D02*
X340000Y792380D01*
X340000Y887000D02*
X355000Y902000D01*
X355000Y985000D01*
D31*
X355000Y985000D03*
D30*
X357000Y1056000D02*
X357000Y1100250D01*
X357000Y1056000D02*
X315000Y1014000D01*
X315000Y906000D01*
X332000Y889000D01*
X332000Y792380D01*
X331900Y1119650D02*
X331900Y1174000D01*
X331900Y1119650D02*
X330000Y1117750D01*
X357300Y1120050D02*
X357300Y1144000D01*
X357300Y1120050D02*
X357000Y1119750D01*
M02*
