G04 EAGLE Gerber RS-274X export*
G75*
%MOMM*%
%FSLAX34Y34*%
%LPD*%
%IN*%
%IPPOS*%
%AMOC8*
5,1,8,0,0,1.08239X$1,22.5*%
G01*
%ADD10C,0.254000*%


D10*
X0Y534500D02*
X542300Y534500D01*
X542300Y1200000D01*
X0Y1200000D01*
X0Y534500D01*
X470238Y869000D02*
X469718Y869068D01*
X469211Y869204D01*
X468727Y869405D01*
X468273Y869667D01*
X467857Y869986D01*
X467486Y870357D01*
X467167Y870773D01*
X466905Y871227D01*
X466704Y871711D01*
X466568Y872218D01*
X466500Y872738D01*
X466500Y873262D01*
X466568Y873782D01*
X466704Y874289D01*
X466905Y874773D01*
X467167Y875227D01*
X467486Y875643D01*
X467857Y876014D01*
X468273Y876333D01*
X468727Y876595D01*
X469211Y876796D01*
X469718Y876932D01*
X470238Y877000D01*
X470762Y877000D01*
X471282Y876932D01*
X471789Y876796D01*
X472273Y876595D01*
X472727Y876333D01*
X473143Y876014D01*
X473514Y875643D01*
X473833Y875227D01*
X474095Y874773D01*
X474296Y874289D01*
X474432Y873782D01*
X474500Y873262D01*
X474500Y872738D01*
X474432Y872218D01*
X474296Y871711D01*
X474095Y871227D01*
X473833Y870773D01*
X473514Y870357D01*
X473143Y869986D01*
X472727Y869667D01*
X472273Y869405D01*
X471789Y869204D01*
X471282Y869068D01*
X470762Y869000D01*
X470238Y869000D01*
X531738Y807500D02*
X531218Y807568D01*
X530711Y807704D01*
X530227Y807905D01*
X529773Y808167D01*
X529357Y808486D01*
X528986Y808857D01*
X528667Y809273D01*
X528405Y809727D01*
X528204Y810211D01*
X528068Y810718D01*
X528000Y811238D01*
X528000Y811762D01*
X528068Y812282D01*
X528204Y812789D01*
X528405Y813273D01*
X528667Y813727D01*
X528986Y814143D01*
X529357Y814514D01*
X529773Y814833D01*
X530227Y815095D01*
X530711Y815296D01*
X531218Y815432D01*
X531738Y815500D01*
X532262Y815500D01*
X532782Y815432D01*
X533289Y815296D01*
X533773Y815095D01*
X534227Y814833D01*
X534643Y814514D01*
X535014Y814143D01*
X535333Y813727D01*
X535595Y813273D01*
X535796Y812789D01*
X535932Y812282D01*
X536000Y811762D01*
X536000Y811238D01*
X535932Y810718D01*
X535796Y810211D01*
X535595Y809727D01*
X535333Y809273D01*
X535014Y808857D01*
X534643Y808486D01*
X534227Y808167D01*
X533773Y807905D01*
X533289Y807704D01*
X532782Y807568D01*
X532262Y807500D01*
X531738Y807500D01*
X46250Y968721D02*
X46177Y968169D01*
X46033Y967631D01*
X45820Y967116D01*
X45541Y966634D01*
X45202Y966192D01*
X44808Y965798D01*
X44366Y965459D01*
X43884Y965180D01*
X43369Y964967D01*
X42831Y964823D01*
X42279Y964750D01*
X41721Y964750D01*
X41169Y964823D01*
X40631Y964967D01*
X40116Y965180D01*
X39634Y965459D01*
X39192Y965798D01*
X38798Y966192D01*
X38459Y966634D01*
X38180Y967116D01*
X37967Y967631D01*
X37823Y968169D01*
X37750Y968721D01*
X37750Y969279D01*
X37823Y969831D01*
X37967Y970369D01*
X38180Y970884D01*
X38459Y971366D01*
X38798Y971808D01*
X39192Y972202D01*
X39634Y972541D01*
X40116Y972820D01*
X40631Y973033D01*
X41169Y973177D01*
X41721Y973250D01*
X42279Y973250D01*
X42831Y973177D01*
X43369Y973033D01*
X43884Y972820D01*
X44366Y972541D01*
X44808Y972202D01*
X45202Y971808D01*
X45541Y971366D01*
X45820Y970884D01*
X46033Y970369D01*
X46177Y969831D01*
X46250Y969279D01*
X46250Y968721D01*
X46250Y930721D02*
X46177Y930169D01*
X46033Y929631D01*
X45820Y929116D01*
X45541Y928634D01*
X45202Y928192D01*
X44808Y927798D01*
X44366Y927459D01*
X43884Y927180D01*
X43369Y926967D01*
X42831Y926823D01*
X42279Y926750D01*
X41721Y926750D01*
X41169Y926823D01*
X40631Y926967D01*
X40116Y927180D01*
X39634Y927459D01*
X39192Y927798D01*
X38798Y928192D01*
X38459Y928634D01*
X38180Y929116D01*
X37967Y929631D01*
X37823Y930169D01*
X37750Y930721D01*
X37750Y931279D01*
X37823Y931831D01*
X37967Y932369D01*
X38180Y932884D01*
X38459Y933366D01*
X38798Y933808D01*
X39192Y934202D01*
X39634Y934541D01*
X40116Y934820D01*
X40631Y935033D01*
X41169Y935177D01*
X41721Y935250D01*
X42279Y935250D01*
X42831Y935177D01*
X43369Y935033D01*
X43884Y934820D01*
X44366Y934541D01*
X44808Y934202D01*
X45202Y933808D01*
X45541Y933366D01*
X45820Y932884D01*
X46033Y932369D01*
X46177Y931831D01*
X46250Y931279D01*
X46250Y930721D01*
X56000Y859500D02*
X55929Y858503D01*
X55786Y857513D01*
X55574Y856536D01*
X55292Y855576D01*
X54943Y854639D01*
X54527Y853729D01*
X54048Y852852D01*
X53507Y852010D01*
X52908Y851210D01*
X52253Y850454D01*
X51546Y849747D01*
X50790Y849092D01*
X49990Y848493D01*
X49148Y847952D01*
X48271Y847473D01*
X47361Y847057D01*
X46424Y846708D01*
X45465Y846426D01*
X44487Y846214D01*
X43498Y846071D01*
X42500Y846000D01*
X41500Y846000D01*
X40503Y846071D01*
X39513Y846214D01*
X38536Y846426D01*
X37576Y846708D01*
X36639Y847057D01*
X35729Y847473D01*
X34852Y847952D01*
X34010Y848493D01*
X33210Y849092D01*
X32454Y849747D01*
X31747Y850454D01*
X31092Y851210D01*
X30493Y852010D01*
X29952Y852852D01*
X29473Y853729D01*
X29057Y854639D01*
X28708Y855576D01*
X28426Y856536D01*
X28214Y857513D01*
X28071Y858503D01*
X28000Y859500D01*
X28000Y860500D01*
X28071Y861498D01*
X28214Y862487D01*
X28426Y863465D01*
X28708Y864424D01*
X29057Y865361D01*
X29473Y866271D01*
X29952Y867148D01*
X30493Y867990D01*
X31092Y868790D01*
X31747Y869546D01*
X32454Y870253D01*
X33210Y870908D01*
X34010Y871507D01*
X34852Y872048D01*
X35729Y872527D01*
X36639Y872943D01*
X37576Y873292D01*
X38536Y873574D01*
X39513Y873786D01*
X40503Y873929D01*
X41500Y874000D01*
X42500Y874000D01*
X43498Y873929D01*
X44487Y873786D01*
X45465Y873574D01*
X46424Y873292D01*
X47361Y872943D01*
X48271Y872527D01*
X49148Y872048D01*
X49990Y871507D01*
X50790Y870908D01*
X51546Y870253D01*
X52253Y869546D01*
X52908Y868790D01*
X53507Y867990D01*
X54048Y867148D01*
X54527Y866271D01*
X54943Y865361D01*
X55292Y864424D01*
X55574Y863465D01*
X55786Y862487D01*
X55929Y861498D01*
X56000Y860500D01*
X56000Y859500D01*
X262000Y1156500D02*
X261929Y1155503D01*
X261786Y1154513D01*
X261574Y1153536D01*
X261292Y1152576D01*
X260943Y1151639D01*
X260527Y1150729D01*
X260048Y1149852D01*
X259507Y1149010D01*
X258908Y1148210D01*
X258253Y1147454D01*
X257546Y1146747D01*
X256790Y1146092D01*
X255990Y1145493D01*
X255148Y1144952D01*
X254271Y1144473D01*
X253361Y1144057D01*
X252424Y1143708D01*
X251465Y1143426D01*
X250487Y1143214D01*
X249498Y1143071D01*
X248500Y1143000D01*
X247500Y1143000D01*
X246503Y1143071D01*
X245513Y1143214D01*
X244536Y1143426D01*
X243576Y1143708D01*
X242639Y1144057D01*
X241729Y1144473D01*
X240852Y1144952D01*
X240010Y1145493D01*
X239210Y1146092D01*
X238454Y1146747D01*
X237747Y1147454D01*
X237092Y1148210D01*
X236493Y1149010D01*
X235952Y1149852D01*
X235473Y1150729D01*
X235057Y1151639D01*
X234708Y1152576D01*
X234426Y1153536D01*
X234214Y1154513D01*
X234071Y1155503D01*
X234000Y1156500D01*
X234000Y1157500D01*
X234071Y1158498D01*
X234214Y1159487D01*
X234426Y1160465D01*
X234708Y1161424D01*
X235057Y1162361D01*
X235473Y1163271D01*
X235952Y1164148D01*
X236493Y1164990D01*
X237092Y1165790D01*
X237747Y1166546D01*
X238454Y1167253D01*
X239210Y1167908D01*
X240010Y1168507D01*
X240852Y1169048D01*
X241729Y1169527D01*
X242639Y1169943D01*
X243576Y1170292D01*
X244536Y1170574D01*
X245513Y1170786D01*
X246503Y1170929D01*
X247500Y1171000D01*
X248500Y1171000D01*
X249498Y1170929D01*
X250487Y1170786D01*
X251465Y1170574D01*
X252424Y1170292D01*
X253361Y1169943D01*
X254271Y1169527D01*
X255148Y1169048D01*
X255990Y1168507D01*
X256790Y1167908D01*
X257546Y1167253D01*
X258253Y1166546D01*
X258908Y1165790D01*
X259507Y1164990D01*
X260048Y1164148D01*
X260527Y1163271D01*
X260943Y1162361D01*
X261292Y1161424D01*
X261574Y1160465D01*
X261786Y1159487D01*
X261929Y1158498D01*
X262000Y1157500D01*
X262000Y1156500D01*
X264000Y599500D02*
X263929Y598503D01*
X263786Y597513D01*
X263574Y596536D01*
X263292Y595576D01*
X262943Y594639D01*
X262527Y593729D01*
X262048Y592852D01*
X261507Y592010D01*
X260908Y591210D01*
X260253Y590454D01*
X259546Y589747D01*
X258790Y589092D01*
X257990Y588493D01*
X257148Y587952D01*
X256271Y587473D01*
X255361Y587057D01*
X254424Y586708D01*
X253465Y586426D01*
X252487Y586214D01*
X251498Y586071D01*
X250500Y586000D01*
X249500Y586000D01*
X248503Y586071D01*
X247513Y586214D01*
X246536Y586426D01*
X245576Y586708D01*
X244639Y587057D01*
X243729Y587473D01*
X242852Y587952D01*
X242010Y588493D01*
X241210Y589092D01*
X240454Y589747D01*
X239747Y590454D01*
X239092Y591210D01*
X238493Y592010D01*
X237952Y592852D01*
X237473Y593729D01*
X237057Y594639D01*
X236708Y595576D01*
X236426Y596536D01*
X236214Y597513D01*
X236071Y598503D01*
X236000Y599500D01*
X236000Y600500D01*
X236071Y601498D01*
X236214Y602487D01*
X236426Y603465D01*
X236708Y604424D01*
X237057Y605361D01*
X237473Y606271D01*
X237952Y607148D01*
X238493Y607990D01*
X239092Y608790D01*
X239747Y609546D01*
X240454Y610253D01*
X241210Y610908D01*
X242010Y611507D01*
X242852Y612048D01*
X243729Y612527D01*
X244639Y612943D01*
X245576Y613292D01*
X246536Y613574D01*
X247513Y613786D01*
X248503Y613929D01*
X249500Y614000D01*
X250500Y614000D01*
X251498Y613929D01*
X252487Y613786D01*
X253465Y613574D01*
X254424Y613292D01*
X255361Y612943D01*
X256271Y612527D01*
X257148Y612048D01*
X257990Y611507D01*
X258790Y610908D01*
X259546Y610253D01*
X260253Y609546D01*
X260908Y608790D01*
X261507Y607990D01*
X262048Y607148D01*
X262527Y606271D01*
X262943Y605361D01*
X263292Y604424D01*
X263574Y603465D01*
X263786Y602487D01*
X263929Y601498D01*
X264000Y600500D01*
X264000Y599500D01*
M02*
