G04 EAGLE Gerber RS-274X export*
G75*
%MOMM*%
%FSLAX34Y34*%
%LPD*%
%INSolderpaste Top*%
%IPPOS*%
%AMOC8*
5,1,8,0,0,1.08239X$1,22.5*%
G01*
%ADD10R,1.500000X0.635000*%
%ADD11R,0.635000X1.500000*%
%ADD12C,0.504000*%
%ADD13R,1.200000X1.200000*%
%ADD14R,0.600000X1.475000*%
%ADD15R,1.475000X0.600000*%
%ADD16C,0.443700*%
%ADD17R,1.600000X2.300000*%
%ADD18R,2.000000X3.500000*%
%ADD19R,1.525000X0.700000*%
%ADD20R,2.513000X3.402000*%
%ADD21R,1.700000X2.400000*%
%ADD22R,1.500000X1.800000*%
%ADD23R,1.400000X0.400000*%
%ADD24R,1.000000X3.000000*%
%ADD25R,0.800000X0.900000*%

G36*
X324791Y566332D02*
X324791Y566332D01*
X324798Y566337D01*
X324802Y566333D01*
X325184Y566424D01*
X325188Y566429D01*
X325192Y566427D01*
X325554Y566577D01*
X325557Y566582D01*
X325561Y566580D01*
X325895Y566785D01*
X325897Y566790D01*
X325901Y566790D01*
X326200Y567045D01*
X326201Y567050D01*
X326205Y567050D01*
X326460Y567349D01*
X326461Y567355D01*
X326465Y567355D01*
X326670Y567689D01*
X326669Y567695D01*
X326674Y567696D01*
X326824Y568058D01*
X326823Y568060D01*
X326824Y568060D01*
X326822Y568063D01*
X326822Y568064D01*
X326826Y568066D01*
X326917Y568448D01*
X326915Y568453D01*
X326917Y568454D01*
X326918Y568455D01*
X326949Y568846D01*
X326947Y568849D01*
X326949Y568850D01*
X326949Y574350D01*
X326947Y574352D01*
X326949Y574354D01*
X326918Y574745D01*
X326914Y574749D01*
X326917Y574752D01*
X326826Y575134D01*
X326821Y575138D01*
X326824Y575142D01*
X326674Y575504D01*
X326668Y575507D01*
X326670Y575511D01*
X326465Y575845D01*
X326460Y575847D01*
X326460Y575851D01*
X326205Y576150D01*
X326200Y576151D01*
X326200Y576155D01*
X325901Y576410D01*
X325895Y576411D01*
X325895Y576415D01*
X325561Y576620D01*
X325555Y576619D01*
X325554Y576624D01*
X325192Y576774D01*
X325186Y576772D01*
X325184Y576776D01*
X324802Y576867D01*
X324797Y576865D01*
X324795Y576868D01*
X324404Y576899D01*
X324401Y576897D01*
X324400Y576899D01*
X315209Y576868D01*
X315202Y576863D01*
X315198Y576867D01*
X314816Y576776D01*
X314812Y576771D01*
X314808Y576774D01*
X314446Y576624D01*
X314443Y576618D01*
X314439Y576620D01*
X314105Y576415D01*
X314103Y576410D01*
X314099Y576410D01*
X313800Y576155D01*
X313799Y576150D01*
X313795Y576150D01*
X313540Y575851D01*
X313539Y575845D01*
X313535Y575845D01*
X313330Y575511D01*
X313331Y575505D01*
X313327Y575504D01*
X313177Y575142D01*
X313178Y575136D01*
X313174Y575134D01*
X313083Y574752D01*
X313085Y574747D01*
X313082Y574745D01*
X313051Y574354D01*
X313053Y574351D01*
X313051Y574350D01*
X313051Y568850D01*
X313053Y568848D01*
X313051Y568846D01*
X313082Y568455D01*
X313086Y568451D01*
X313083Y568448D01*
X313174Y568066D01*
X313179Y568062D01*
X313177Y568058D01*
X313327Y567696D01*
X313332Y567693D01*
X313330Y567689D01*
X313535Y567355D01*
X313540Y567353D01*
X313540Y567349D01*
X313795Y567050D01*
X313800Y567049D01*
X313800Y567045D01*
X314099Y566790D01*
X314105Y566789D01*
X314105Y566785D01*
X314439Y566580D01*
X314445Y566581D01*
X314446Y566577D01*
X314808Y566427D01*
X314814Y566428D01*
X314816Y566424D01*
X315198Y566333D01*
X315203Y566335D01*
X315205Y566332D01*
X315596Y566301D01*
X315599Y566303D01*
X315600Y566301D01*
X324791Y566332D01*
G37*
G36*
X154791Y853132D02*
X154791Y853132D01*
X154798Y853137D01*
X154802Y853133D01*
X155184Y853224D01*
X155188Y853229D01*
X155192Y853227D01*
X155554Y853377D01*
X155557Y853382D01*
X155561Y853380D01*
X155895Y853585D01*
X155897Y853590D01*
X155901Y853590D01*
X156200Y853845D01*
X156201Y853850D01*
X156205Y853850D01*
X156460Y854149D01*
X156461Y854155D01*
X156465Y854155D01*
X156670Y854489D01*
X156669Y854495D01*
X156674Y854496D01*
X156824Y854858D01*
X156823Y854860D01*
X156824Y854860D01*
X156822Y854863D01*
X156822Y854864D01*
X156826Y854866D01*
X156917Y855248D01*
X156915Y855253D01*
X156917Y855254D01*
X156918Y855255D01*
X156949Y855646D01*
X156947Y855649D01*
X156949Y855650D01*
X156949Y861150D01*
X156947Y861152D01*
X156949Y861154D01*
X156918Y861545D01*
X156914Y861549D01*
X156917Y861552D01*
X156826Y861934D01*
X156821Y861938D01*
X156824Y861942D01*
X156674Y862304D01*
X156668Y862307D01*
X156670Y862311D01*
X156465Y862645D01*
X156460Y862647D01*
X156460Y862651D01*
X156205Y862950D01*
X156200Y862951D01*
X156200Y862955D01*
X155901Y863210D01*
X155895Y863211D01*
X155895Y863215D01*
X155561Y863420D01*
X155555Y863419D01*
X155554Y863424D01*
X155192Y863574D01*
X155186Y863572D01*
X155184Y863576D01*
X154802Y863667D01*
X154797Y863665D01*
X154795Y863668D01*
X154404Y863699D01*
X154401Y863697D01*
X154400Y863699D01*
X145209Y863668D01*
X145202Y863663D01*
X145198Y863667D01*
X144816Y863576D01*
X144812Y863571D01*
X144808Y863574D01*
X144446Y863424D01*
X144443Y863418D01*
X144439Y863420D01*
X144105Y863215D01*
X144103Y863210D01*
X144099Y863210D01*
X143800Y862955D01*
X143799Y862950D01*
X143795Y862950D01*
X143540Y862651D01*
X143539Y862645D01*
X143535Y862645D01*
X143330Y862311D01*
X143331Y862305D01*
X143327Y862304D01*
X143177Y861942D01*
X143178Y861936D01*
X143174Y861934D01*
X143083Y861552D01*
X143085Y861547D01*
X143082Y861545D01*
X143051Y861154D01*
X143053Y861151D01*
X143051Y861150D01*
X143051Y855650D01*
X143053Y855648D01*
X143051Y855646D01*
X143082Y855255D01*
X143086Y855251D01*
X143083Y855248D01*
X143174Y854866D01*
X143179Y854862D01*
X143177Y854858D01*
X143327Y854496D01*
X143332Y854493D01*
X143330Y854489D01*
X143535Y854155D01*
X143540Y854153D01*
X143540Y854149D01*
X143795Y853850D01*
X143800Y853849D01*
X143800Y853845D01*
X144099Y853590D01*
X144105Y853589D01*
X144105Y853585D01*
X144439Y853380D01*
X144445Y853381D01*
X144446Y853377D01*
X144808Y853227D01*
X144814Y853228D01*
X144816Y853224D01*
X145198Y853133D01*
X145203Y853135D01*
X145205Y853132D01*
X145596Y853101D01*
X145599Y853103D01*
X145600Y853101D01*
X154791Y853132D01*
G37*
G36*
X84352Y1173053D02*
X84352Y1173053D01*
X84354Y1173051D01*
X84745Y1173082D01*
X84749Y1173086D01*
X84752Y1173083D01*
X85134Y1173174D01*
X85138Y1173179D01*
X85142Y1173177D01*
X85504Y1173327D01*
X85507Y1173332D01*
X85511Y1173330D01*
X85845Y1173535D01*
X85847Y1173540D01*
X85851Y1173540D01*
X86150Y1173795D01*
X86151Y1173800D01*
X86155Y1173800D01*
X86410Y1174099D01*
X86411Y1174105D01*
X86415Y1174105D01*
X86620Y1174439D01*
X86619Y1174445D01*
X86624Y1174446D01*
X86774Y1174808D01*
X86773Y1174810D01*
X86774Y1174810D01*
X86772Y1174813D01*
X86772Y1174814D01*
X86776Y1174816D01*
X86867Y1175198D01*
X86865Y1175203D01*
X86867Y1175204D01*
X86868Y1175205D01*
X86899Y1175596D01*
X86897Y1175599D01*
X86899Y1175600D01*
X86868Y1184791D01*
X86863Y1184798D01*
X86867Y1184802D01*
X86776Y1185184D01*
X86771Y1185188D01*
X86774Y1185192D01*
X86624Y1185554D01*
X86618Y1185557D01*
X86620Y1185561D01*
X86415Y1185895D01*
X86410Y1185897D01*
X86410Y1185901D01*
X86155Y1186200D01*
X86150Y1186201D01*
X86150Y1186205D01*
X85851Y1186460D01*
X85845Y1186461D01*
X85845Y1186465D01*
X85511Y1186670D01*
X85505Y1186669D01*
X85504Y1186674D01*
X85142Y1186824D01*
X85136Y1186822D01*
X85134Y1186826D01*
X84752Y1186917D01*
X84747Y1186915D01*
X84745Y1186918D01*
X84354Y1186949D01*
X84351Y1186947D01*
X84350Y1186949D01*
X78850Y1186949D01*
X78848Y1186947D01*
X78846Y1186949D01*
X78455Y1186918D01*
X78451Y1186914D01*
X78448Y1186917D01*
X78066Y1186826D01*
X78062Y1186821D01*
X78058Y1186824D01*
X77696Y1186674D01*
X77693Y1186668D01*
X77689Y1186670D01*
X77355Y1186465D01*
X77353Y1186460D01*
X77349Y1186460D01*
X77050Y1186205D01*
X77049Y1186200D01*
X77045Y1186200D01*
X76790Y1185901D01*
X76789Y1185895D01*
X76785Y1185895D01*
X76580Y1185561D01*
X76581Y1185555D01*
X76577Y1185554D01*
X76427Y1185192D01*
X76428Y1185186D01*
X76424Y1185184D01*
X76333Y1184802D01*
X76335Y1184797D01*
X76332Y1184795D01*
X76301Y1184404D01*
X76303Y1184401D01*
X76301Y1184400D01*
X76332Y1175209D01*
X76337Y1175202D01*
X76333Y1175198D01*
X76424Y1174816D01*
X76429Y1174812D01*
X76427Y1174808D01*
X76577Y1174446D01*
X76582Y1174443D01*
X76580Y1174439D01*
X76785Y1174105D01*
X76790Y1174103D01*
X76790Y1174099D01*
X77045Y1173800D01*
X77050Y1173799D01*
X77050Y1173795D01*
X77349Y1173540D01*
X77355Y1173539D01*
X77355Y1173535D01*
X77689Y1173330D01*
X77695Y1173331D01*
X77696Y1173327D01*
X78058Y1173177D01*
X78064Y1173178D01*
X78066Y1173174D01*
X78448Y1173083D01*
X78453Y1173085D01*
X78455Y1173082D01*
X78846Y1173051D01*
X78849Y1173053D01*
X78850Y1173051D01*
X84350Y1173051D01*
X84352Y1173053D01*
G37*
G36*
X101152Y1173053D02*
X101152Y1173053D01*
X101154Y1173051D01*
X101545Y1173082D01*
X101549Y1173086D01*
X101552Y1173083D01*
X101934Y1173174D01*
X101938Y1173179D01*
X101942Y1173177D01*
X102304Y1173327D01*
X102307Y1173332D01*
X102311Y1173330D01*
X102645Y1173535D01*
X102647Y1173540D01*
X102651Y1173540D01*
X102950Y1173795D01*
X102951Y1173800D01*
X102955Y1173800D01*
X103210Y1174099D01*
X103211Y1174105D01*
X103215Y1174105D01*
X103420Y1174439D01*
X103419Y1174445D01*
X103424Y1174446D01*
X103574Y1174808D01*
X103573Y1174810D01*
X103574Y1174810D01*
X103572Y1174813D01*
X103572Y1174814D01*
X103576Y1174816D01*
X103667Y1175198D01*
X103665Y1175203D01*
X103667Y1175204D01*
X103668Y1175205D01*
X103699Y1175596D01*
X103697Y1175599D01*
X103699Y1175600D01*
X103668Y1184791D01*
X103663Y1184798D01*
X103667Y1184802D01*
X103576Y1185184D01*
X103571Y1185188D01*
X103574Y1185192D01*
X103424Y1185554D01*
X103418Y1185557D01*
X103420Y1185561D01*
X103215Y1185895D01*
X103210Y1185897D01*
X103210Y1185901D01*
X102955Y1186200D01*
X102950Y1186201D01*
X102950Y1186205D01*
X102651Y1186460D01*
X102645Y1186461D01*
X102645Y1186465D01*
X102311Y1186670D01*
X102305Y1186669D01*
X102304Y1186674D01*
X101942Y1186824D01*
X101936Y1186822D01*
X101934Y1186826D01*
X101552Y1186917D01*
X101547Y1186915D01*
X101545Y1186918D01*
X101154Y1186949D01*
X101151Y1186947D01*
X101150Y1186949D01*
X95650Y1186949D01*
X95648Y1186947D01*
X95646Y1186949D01*
X95255Y1186918D01*
X95251Y1186914D01*
X95248Y1186917D01*
X94866Y1186826D01*
X94862Y1186821D01*
X94858Y1186824D01*
X94496Y1186674D01*
X94493Y1186668D01*
X94489Y1186670D01*
X94155Y1186465D01*
X94153Y1186460D01*
X94149Y1186460D01*
X93850Y1186205D01*
X93849Y1186200D01*
X93845Y1186200D01*
X93590Y1185901D01*
X93589Y1185895D01*
X93585Y1185895D01*
X93380Y1185561D01*
X93381Y1185555D01*
X93377Y1185554D01*
X93227Y1185192D01*
X93228Y1185186D01*
X93224Y1185184D01*
X93133Y1184802D01*
X93135Y1184797D01*
X93132Y1184795D01*
X93101Y1184404D01*
X93103Y1184401D01*
X93101Y1184400D01*
X93132Y1175209D01*
X93137Y1175202D01*
X93133Y1175198D01*
X93224Y1174816D01*
X93229Y1174812D01*
X93227Y1174808D01*
X93377Y1174446D01*
X93382Y1174443D01*
X93380Y1174439D01*
X93585Y1174105D01*
X93590Y1174103D01*
X93590Y1174099D01*
X93845Y1173800D01*
X93850Y1173799D01*
X93850Y1173795D01*
X94149Y1173540D01*
X94155Y1173539D01*
X94155Y1173535D01*
X94489Y1173330D01*
X94495Y1173331D01*
X94496Y1173327D01*
X94858Y1173177D01*
X94864Y1173178D01*
X94866Y1173174D01*
X95248Y1173083D01*
X95253Y1173085D01*
X95255Y1173082D01*
X95646Y1173051D01*
X95649Y1173053D01*
X95650Y1173051D01*
X101150Y1173051D01*
X101152Y1173053D01*
G37*
G36*
X428152Y1101053D02*
X428152Y1101053D01*
X428154Y1101051D01*
X428545Y1101082D01*
X428549Y1101086D01*
X428552Y1101083D01*
X428934Y1101174D01*
X428938Y1101179D01*
X428942Y1101177D01*
X429304Y1101327D01*
X429307Y1101332D01*
X429311Y1101330D01*
X429645Y1101535D01*
X429647Y1101540D01*
X429651Y1101540D01*
X429950Y1101795D01*
X429951Y1101800D01*
X429955Y1101800D01*
X430210Y1102099D01*
X430211Y1102105D01*
X430215Y1102105D01*
X430420Y1102439D01*
X430419Y1102445D01*
X430424Y1102446D01*
X430574Y1102808D01*
X430573Y1102810D01*
X430574Y1102810D01*
X430572Y1102813D01*
X430572Y1102814D01*
X430576Y1102816D01*
X430667Y1103198D01*
X430665Y1103203D01*
X430667Y1103204D01*
X430668Y1103205D01*
X430699Y1103596D01*
X430697Y1103599D01*
X430699Y1103600D01*
X430668Y1112791D01*
X430663Y1112798D01*
X430667Y1112802D01*
X430576Y1113184D01*
X430571Y1113188D01*
X430574Y1113192D01*
X430424Y1113554D01*
X430418Y1113557D01*
X430420Y1113561D01*
X430215Y1113895D01*
X430210Y1113897D01*
X430210Y1113901D01*
X429955Y1114200D01*
X429950Y1114201D01*
X429950Y1114205D01*
X429651Y1114460D01*
X429645Y1114461D01*
X429645Y1114465D01*
X429311Y1114670D01*
X429305Y1114669D01*
X429304Y1114674D01*
X428942Y1114824D01*
X428936Y1114822D01*
X428934Y1114826D01*
X428552Y1114917D01*
X428547Y1114915D01*
X428545Y1114918D01*
X428154Y1114949D01*
X428151Y1114947D01*
X428150Y1114949D01*
X422650Y1114949D01*
X422648Y1114947D01*
X422646Y1114949D01*
X422255Y1114918D01*
X422251Y1114914D01*
X422248Y1114917D01*
X421866Y1114826D01*
X421862Y1114821D01*
X421858Y1114824D01*
X421496Y1114674D01*
X421493Y1114668D01*
X421489Y1114670D01*
X421155Y1114465D01*
X421153Y1114460D01*
X421149Y1114460D01*
X420850Y1114205D01*
X420849Y1114200D01*
X420845Y1114200D01*
X420590Y1113901D01*
X420589Y1113895D01*
X420585Y1113895D01*
X420380Y1113561D01*
X420381Y1113555D01*
X420377Y1113554D01*
X420227Y1113192D01*
X420228Y1113186D01*
X420224Y1113184D01*
X420133Y1112802D01*
X420135Y1112797D01*
X420132Y1112795D01*
X420101Y1112404D01*
X420103Y1112401D01*
X420101Y1112400D01*
X420132Y1103209D01*
X420137Y1103202D01*
X420133Y1103198D01*
X420224Y1102816D01*
X420229Y1102812D01*
X420227Y1102808D01*
X420377Y1102446D01*
X420382Y1102443D01*
X420380Y1102439D01*
X420585Y1102105D01*
X420590Y1102103D01*
X420590Y1102099D01*
X420845Y1101800D01*
X420850Y1101799D01*
X420850Y1101795D01*
X421149Y1101540D01*
X421155Y1101539D01*
X421155Y1101535D01*
X421489Y1101330D01*
X421495Y1101331D01*
X421496Y1101327D01*
X421858Y1101177D01*
X421864Y1101178D01*
X421866Y1101174D01*
X422248Y1101083D01*
X422253Y1101085D01*
X422255Y1101082D01*
X422646Y1101051D01*
X422649Y1101053D01*
X422650Y1101051D01*
X428150Y1101051D01*
X428152Y1101053D01*
G37*
G36*
X94791Y1113132D02*
X94791Y1113132D01*
X94798Y1113137D01*
X94802Y1113133D01*
X95184Y1113224D01*
X95188Y1113229D01*
X95192Y1113227D01*
X95554Y1113377D01*
X95557Y1113382D01*
X95561Y1113380D01*
X95895Y1113585D01*
X95897Y1113590D01*
X95901Y1113590D01*
X96200Y1113845D01*
X96201Y1113850D01*
X96205Y1113850D01*
X96460Y1114149D01*
X96461Y1114155D01*
X96465Y1114155D01*
X96670Y1114489D01*
X96669Y1114495D01*
X96674Y1114496D01*
X96824Y1114858D01*
X96823Y1114860D01*
X96824Y1114860D01*
X96822Y1114863D01*
X96822Y1114864D01*
X96826Y1114866D01*
X96917Y1115248D01*
X96915Y1115253D01*
X96917Y1115254D01*
X96918Y1115255D01*
X96949Y1115646D01*
X96947Y1115649D01*
X96949Y1115650D01*
X96949Y1121150D01*
X96947Y1121152D01*
X96949Y1121154D01*
X96918Y1121545D01*
X96914Y1121549D01*
X96917Y1121552D01*
X96826Y1121934D01*
X96821Y1121938D01*
X96824Y1121942D01*
X96674Y1122304D01*
X96668Y1122307D01*
X96670Y1122311D01*
X96465Y1122645D01*
X96460Y1122647D01*
X96460Y1122651D01*
X96205Y1122950D01*
X96200Y1122951D01*
X96200Y1122955D01*
X95901Y1123210D01*
X95895Y1123211D01*
X95895Y1123215D01*
X95561Y1123420D01*
X95555Y1123419D01*
X95554Y1123424D01*
X95192Y1123574D01*
X95186Y1123572D01*
X95184Y1123576D01*
X94802Y1123667D01*
X94797Y1123665D01*
X94795Y1123668D01*
X94404Y1123699D01*
X94401Y1123697D01*
X94400Y1123699D01*
X85209Y1123668D01*
X85202Y1123663D01*
X85198Y1123667D01*
X84816Y1123576D01*
X84812Y1123571D01*
X84808Y1123574D01*
X84446Y1123424D01*
X84443Y1123418D01*
X84439Y1123420D01*
X84105Y1123215D01*
X84103Y1123210D01*
X84099Y1123210D01*
X83800Y1122955D01*
X83799Y1122950D01*
X83795Y1122950D01*
X83540Y1122651D01*
X83539Y1122645D01*
X83535Y1122645D01*
X83330Y1122311D01*
X83331Y1122305D01*
X83327Y1122304D01*
X83177Y1121942D01*
X83178Y1121936D01*
X83174Y1121934D01*
X83083Y1121552D01*
X83085Y1121547D01*
X83082Y1121545D01*
X83051Y1121154D01*
X83053Y1121151D01*
X83051Y1121150D01*
X83051Y1115650D01*
X83053Y1115648D01*
X83051Y1115646D01*
X83082Y1115255D01*
X83086Y1115251D01*
X83083Y1115248D01*
X83174Y1114866D01*
X83179Y1114862D01*
X83177Y1114858D01*
X83327Y1114496D01*
X83332Y1114493D01*
X83330Y1114489D01*
X83535Y1114155D01*
X83540Y1114153D01*
X83540Y1114149D01*
X83795Y1113850D01*
X83800Y1113849D01*
X83800Y1113845D01*
X84099Y1113590D01*
X84105Y1113589D01*
X84105Y1113585D01*
X84439Y1113380D01*
X84445Y1113381D01*
X84446Y1113377D01*
X84808Y1113227D01*
X84814Y1113228D01*
X84816Y1113224D01*
X85198Y1113133D01*
X85203Y1113135D01*
X85205Y1113132D01*
X85596Y1113101D01*
X85599Y1113103D01*
X85600Y1113101D01*
X94791Y1113132D01*
G37*
G36*
X94791Y1096332D02*
X94791Y1096332D01*
X94798Y1096337D01*
X94802Y1096333D01*
X95184Y1096424D01*
X95188Y1096429D01*
X95192Y1096427D01*
X95554Y1096577D01*
X95557Y1096582D01*
X95561Y1096580D01*
X95895Y1096785D01*
X95897Y1096790D01*
X95901Y1096790D01*
X96200Y1097045D01*
X96201Y1097050D01*
X96205Y1097050D01*
X96460Y1097349D01*
X96461Y1097355D01*
X96465Y1097355D01*
X96670Y1097689D01*
X96669Y1097695D01*
X96674Y1097696D01*
X96824Y1098058D01*
X96823Y1098060D01*
X96824Y1098060D01*
X96822Y1098063D01*
X96822Y1098064D01*
X96826Y1098066D01*
X96917Y1098448D01*
X96915Y1098453D01*
X96917Y1098454D01*
X96918Y1098455D01*
X96949Y1098846D01*
X96947Y1098849D01*
X96949Y1098850D01*
X96949Y1104350D01*
X96947Y1104352D01*
X96949Y1104354D01*
X96918Y1104745D01*
X96914Y1104749D01*
X96917Y1104752D01*
X96826Y1105134D01*
X96821Y1105138D01*
X96824Y1105142D01*
X96674Y1105504D01*
X96668Y1105507D01*
X96670Y1105511D01*
X96465Y1105845D01*
X96460Y1105847D01*
X96460Y1105851D01*
X96205Y1106150D01*
X96200Y1106151D01*
X96200Y1106155D01*
X95901Y1106410D01*
X95895Y1106411D01*
X95895Y1106415D01*
X95561Y1106620D01*
X95555Y1106619D01*
X95554Y1106624D01*
X95192Y1106774D01*
X95186Y1106772D01*
X95184Y1106776D01*
X94802Y1106867D01*
X94797Y1106865D01*
X94795Y1106868D01*
X94404Y1106899D01*
X94401Y1106897D01*
X94400Y1106899D01*
X85209Y1106868D01*
X85202Y1106863D01*
X85198Y1106867D01*
X84816Y1106776D01*
X84812Y1106771D01*
X84808Y1106774D01*
X84446Y1106624D01*
X84443Y1106618D01*
X84439Y1106620D01*
X84105Y1106415D01*
X84103Y1106410D01*
X84099Y1106410D01*
X83800Y1106155D01*
X83799Y1106150D01*
X83795Y1106150D01*
X83540Y1105851D01*
X83539Y1105845D01*
X83535Y1105845D01*
X83330Y1105511D01*
X83331Y1105505D01*
X83327Y1105504D01*
X83177Y1105142D01*
X83178Y1105136D01*
X83174Y1105134D01*
X83083Y1104752D01*
X83085Y1104747D01*
X83082Y1104745D01*
X83051Y1104354D01*
X83053Y1104351D01*
X83051Y1104350D01*
X83051Y1098850D01*
X83053Y1098848D01*
X83051Y1098846D01*
X83082Y1098455D01*
X83086Y1098451D01*
X83083Y1098448D01*
X83174Y1098066D01*
X83179Y1098062D01*
X83177Y1098058D01*
X83327Y1097696D01*
X83332Y1097693D01*
X83330Y1097689D01*
X83535Y1097355D01*
X83540Y1097353D01*
X83540Y1097349D01*
X83795Y1097050D01*
X83800Y1097049D01*
X83800Y1097045D01*
X84099Y1096790D01*
X84105Y1096789D01*
X84105Y1096785D01*
X84439Y1096580D01*
X84445Y1096581D01*
X84446Y1096577D01*
X84808Y1096427D01*
X84814Y1096428D01*
X84816Y1096424D01*
X85198Y1096333D01*
X85203Y1096335D01*
X85205Y1096332D01*
X85596Y1096301D01*
X85599Y1096303D01*
X85600Y1096301D01*
X94791Y1096332D01*
G37*
G36*
X411352Y1101053D02*
X411352Y1101053D01*
X411354Y1101051D01*
X411745Y1101082D01*
X411749Y1101086D01*
X411752Y1101083D01*
X412134Y1101174D01*
X412138Y1101179D01*
X412142Y1101177D01*
X412504Y1101327D01*
X412507Y1101332D01*
X412511Y1101330D01*
X412845Y1101535D01*
X412847Y1101540D01*
X412851Y1101540D01*
X413150Y1101795D01*
X413151Y1101800D01*
X413155Y1101800D01*
X413410Y1102099D01*
X413411Y1102105D01*
X413415Y1102105D01*
X413620Y1102439D01*
X413619Y1102445D01*
X413624Y1102446D01*
X413774Y1102808D01*
X413773Y1102810D01*
X413774Y1102810D01*
X413772Y1102813D01*
X413772Y1102814D01*
X413776Y1102816D01*
X413867Y1103198D01*
X413865Y1103203D01*
X413867Y1103204D01*
X413868Y1103205D01*
X413899Y1103596D01*
X413897Y1103599D01*
X413899Y1103600D01*
X413868Y1112791D01*
X413863Y1112798D01*
X413867Y1112802D01*
X413776Y1113184D01*
X413771Y1113188D01*
X413774Y1113192D01*
X413624Y1113554D01*
X413618Y1113557D01*
X413620Y1113561D01*
X413415Y1113895D01*
X413410Y1113897D01*
X413410Y1113901D01*
X413155Y1114200D01*
X413150Y1114201D01*
X413150Y1114205D01*
X412851Y1114460D01*
X412845Y1114461D01*
X412845Y1114465D01*
X412511Y1114670D01*
X412505Y1114669D01*
X412504Y1114674D01*
X412142Y1114824D01*
X412136Y1114822D01*
X412134Y1114826D01*
X411752Y1114917D01*
X411747Y1114915D01*
X411745Y1114918D01*
X411354Y1114949D01*
X411351Y1114947D01*
X411350Y1114949D01*
X405850Y1114949D01*
X405848Y1114947D01*
X405846Y1114949D01*
X405455Y1114918D01*
X405451Y1114914D01*
X405448Y1114917D01*
X405066Y1114826D01*
X405062Y1114821D01*
X405058Y1114824D01*
X404696Y1114674D01*
X404693Y1114668D01*
X404689Y1114670D01*
X404355Y1114465D01*
X404353Y1114460D01*
X404349Y1114460D01*
X404050Y1114205D01*
X404049Y1114200D01*
X404045Y1114200D01*
X403790Y1113901D01*
X403789Y1113895D01*
X403785Y1113895D01*
X403580Y1113561D01*
X403581Y1113555D01*
X403577Y1113554D01*
X403427Y1113192D01*
X403428Y1113186D01*
X403424Y1113184D01*
X403333Y1112802D01*
X403335Y1112797D01*
X403332Y1112795D01*
X403301Y1112404D01*
X403303Y1112401D01*
X403301Y1112400D01*
X403332Y1103209D01*
X403337Y1103202D01*
X403333Y1103198D01*
X403424Y1102816D01*
X403429Y1102812D01*
X403427Y1102808D01*
X403577Y1102446D01*
X403582Y1102443D01*
X403580Y1102439D01*
X403785Y1102105D01*
X403790Y1102103D01*
X403790Y1102099D01*
X404045Y1101800D01*
X404050Y1101799D01*
X404050Y1101795D01*
X404349Y1101540D01*
X404355Y1101539D01*
X404355Y1101535D01*
X404689Y1101330D01*
X404695Y1101331D01*
X404696Y1101327D01*
X405058Y1101177D01*
X405064Y1101178D01*
X405066Y1101174D01*
X405448Y1101083D01*
X405453Y1101085D01*
X405455Y1101082D01*
X405846Y1101051D01*
X405849Y1101053D01*
X405850Y1101051D01*
X411350Y1101051D01*
X411352Y1101053D01*
G37*
G36*
X154791Y836332D02*
X154791Y836332D01*
X154798Y836337D01*
X154802Y836333D01*
X155184Y836424D01*
X155188Y836429D01*
X155192Y836427D01*
X155554Y836577D01*
X155557Y836582D01*
X155561Y836580D01*
X155895Y836785D01*
X155897Y836790D01*
X155901Y836790D01*
X156200Y837045D01*
X156201Y837050D01*
X156205Y837050D01*
X156460Y837349D01*
X156461Y837355D01*
X156465Y837355D01*
X156670Y837689D01*
X156669Y837695D01*
X156674Y837696D01*
X156824Y838058D01*
X156823Y838060D01*
X156824Y838060D01*
X156822Y838063D01*
X156822Y838064D01*
X156826Y838066D01*
X156917Y838448D01*
X156915Y838453D01*
X156917Y838454D01*
X156918Y838455D01*
X156949Y838846D01*
X156947Y838849D01*
X156949Y838850D01*
X156949Y844350D01*
X156947Y844352D01*
X156949Y844354D01*
X156918Y844745D01*
X156914Y844749D01*
X156917Y844752D01*
X156826Y845134D01*
X156821Y845138D01*
X156824Y845142D01*
X156674Y845504D01*
X156668Y845507D01*
X156670Y845511D01*
X156465Y845845D01*
X156460Y845847D01*
X156460Y845851D01*
X156205Y846150D01*
X156200Y846151D01*
X156200Y846155D01*
X155901Y846410D01*
X155895Y846411D01*
X155895Y846415D01*
X155561Y846620D01*
X155555Y846619D01*
X155554Y846624D01*
X155192Y846774D01*
X155186Y846772D01*
X155184Y846776D01*
X154802Y846867D01*
X154797Y846865D01*
X154795Y846868D01*
X154404Y846899D01*
X154401Y846897D01*
X154400Y846899D01*
X145209Y846868D01*
X145202Y846863D01*
X145198Y846867D01*
X144816Y846776D01*
X144812Y846771D01*
X144808Y846774D01*
X144446Y846624D01*
X144443Y846618D01*
X144439Y846620D01*
X144105Y846415D01*
X144103Y846410D01*
X144099Y846410D01*
X143800Y846155D01*
X143799Y846150D01*
X143795Y846150D01*
X143540Y845851D01*
X143539Y845845D01*
X143535Y845845D01*
X143330Y845511D01*
X143331Y845505D01*
X143327Y845504D01*
X143177Y845142D01*
X143178Y845136D01*
X143174Y845134D01*
X143083Y844752D01*
X143085Y844747D01*
X143082Y844745D01*
X143051Y844354D01*
X143053Y844351D01*
X143051Y844350D01*
X143051Y838850D01*
X143053Y838848D01*
X143051Y838846D01*
X143082Y838455D01*
X143086Y838451D01*
X143083Y838448D01*
X143174Y838066D01*
X143179Y838062D01*
X143177Y838058D01*
X143327Y837696D01*
X143332Y837693D01*
X143330Y837689D01*
X143535Y837355D01*
X143540Y837353D01*
X143540Y837349D01*
X143795Y837050D01*
X143800Y837049D01*
X143800Y837045D01*
X144099Y836790D01*
X144105Y836789D01*
X144105Y836785D01*
X144439Y836580D01*
X144445Y836581D01*
X144446Y836577D01*
X144808Y836427D01*
X144814Y836428D01*
X144816Y836424D01*
X145198Y836333D01*
X145203Y836335D01*
X145205Y836332D01*
X145596Y836301D01*
X145599Y836303D01*
X145600Y836301D01*
X154791Y836332D01*
G37*
G36*
X204352Y733053D02*
X204352Y733053D01*
X204354Y733051D01*
X204745Y733082D01*
X204749Y733086D01*
X204752Y733083D01*
X205134Y733174D01*
X205138Y733179D01*
X205142Y733177D01*
X205504Y733327D01*
X205507Y733332D01*
X205511Y733330D01*
X205845Y733535D01*
X205847Y733540D01*
X205851Y733540D01*
X206150Y733795D01*
X206151Y733800D01*
X206155Y733800D01*
X206410Y734099D01*
X206411Y734105D01*
X206415Y734105D01*
X206620Y734439D01*
X206619Y734445D01*
X206624Y734446D01*
X206774Y734808D01*
X206773Y734810D01*
X206774Y734810D01*
X206772Y734813D01*
X206772Y734814D01*
X206776Y734816D01*
X206867Y735198D01*
X206865Y735203D01*
X206867Y735204D01*
X206868Y735205D01*
X206899Y735596D01*
X206897Y735599D01*
X206899Y735600D01*
X206868Y744791D01*
X206863Y744798D01*
X206867Y744802D01*
X206776Y745184D01*
X206771Y745188D01*
X206774Y745192D01*
X206624Y745554D01*
X206618Y745557D01*
X206620Y745561D01*
X206415Y745895D01*
X206410Y745897D01*
X206410Y745901D01*
X206155Y746200D01*
X206150Y746201D01*
X206150Y746205D01*
X205851Y746460D01*
X205845Y746461D01*
X205845Y746465D01*
X205511Y746670D01*
X205505Y746669D01*
X205504Y746674D01*
X205142Y746824D01*
X205136Y746822D01*
X205134Y746826D01*
X204752Y746917D01*
X204747Y746915D01*
X204745Y746918D01*
X204354Y746949D01*
X204351Y746947D01*
X204350Y746949D01*
X198850Y746949D01*
X198848Y746947D01*
X198846Y746949D01*
X198455Y746918D01*
X198451Y746914D01*
X198448Y746917D01*
X198066Y746826D01*
X198062Y746821D01*
X198058Y746824D01*
X197696Y746674D01*
X197693Y746668D01*
X197689Y746670D01*
X197355Y746465D01*
X197353Y746460D01*
X197349Y746460D01*
X197050Y746205D01*
X197049Y746200D01*
X197045Y746200D01*
X196790Y745901D01*
X196789Y745895D01*
X196785Y745895D01*
X196580Y745561D01*
X196581Y745555D01*
X196577Y745554D01*
X196427Y745192D01*
X196428Y745186D01*
X196424Y745184D01*
X196333Y744802D01*
X196335Y744797D01*
X196332Y744795D01*
X196301Y744404D01*
X196303Y744401D01*
X196301Y744400D01*
X196332Y735209D01*
X196337Y735202D01*
X196333Y735198D01*
X196424Y734816D01*
X196429Y734812D01*
X196427Y734808D01*
X196577Y734446D01*
X196582Y734443D01*
X196580Y734439D01*
X196785Y734105D01*
X196790Y734103D01*
X196790Y734099D01*
X197045Y733800D01*
X197050Y733799D01*
X197050Y733795D01*
X197349Y733540D01*
X197355Y733539D01*
X197355Y733535D01*
X197689Y733330D01*
X197695Y733331D01*
X197696Y733327D01*
X198058Y733177D01*
X198064Y733178D01*
X198066Y733174D01*
X198448Y733083D01*
X198453Y733085D01*
X198455Y733082D01*
X198846Y733051D01*
X198849Y733053D01*
X198850Y733051D01*
X204350Y733051D01*
X204352Y733053D01*
G37*
G36*
X221152Y733053D02*
X221152Y733053D01*
X221154Y733051D01*
X221545Y733082D01*
X221549Y733086D01*
X221552Y733083D01*
X221934Y733174D01*
X221938Y733179D01*
X221942Y733177D01*
X222304Y733327D01*
X222307Y733332D01*
X222311Y733330D01*
X222645Y733535D01*
X222647Y733540D01*
X222651Y733540D01*
X222950Y733795D01*
X222951Y733800D01*
X222955Y733800D01*
X223210Y734099D01*
X223211Y734105D01*
X223215Y734105D01*
X223420Y734439D01*
X223419Y734445D01*
X223424Y734446D01*
X223574Y734808D01*
X223573Y734810D01*
X223574Y734810D01*
X223572Y734813D01*
X223572Y734814D01*
X223576Y734816D01*
X223667Y735198D01*
X223665Y735203D01*
X223667Y735204D01*
X223668Y735205D01*
X223699Y735596D01*
X223697Y735599D01*
X223699Y735600D01*
X223668Y744791D01*
X223663Y744798D01*
X223667Y744802D01*
X223576Y745184D01*
X223571Y745188D01*
X223574Y745192D01*
X223424Y745554D01*
X223418Y745557D01*
X223420Y745561D01*
X223215Y745895D01*
X223210Y745897D01*
X223210Y745901D01*
X222955Y746200D01*
X222950Y746201D01*
X222950Y746205D01*
X222651Y746460D01*
X222645Y746461D01*
X222645Y746465D01*
X222311Y746670D01*
X222305Y746669D01*
X222304Y746674D01*
X221942Y746824D01*
X221936Y746822D01*
X221934Y746826D01*
X221552Y746917D01*
X221547Y746915D01*
X221545Y746918D01*
X221154Y746949D01*
X221151Y746947D01*
X221150Y746949D01*
X215650Y746949D01*
X215648Y746947D01*
X215646Y746949D01*
X215255Y746918D01*
X215251Y746914D01*
X215248Y746917D01*
X214866Y746826D01*
X214862Y746821D01*
X214858Y746824D01*
X214496Y746674D01*
X214493Y746668D01*
X214489Y746670D01*
X214155Y746465D01*
X214153Y746460D01*
X214149Y746460D01*
X213850Y746205D01*
X213849Y746200D01*
X213845Y746200D01*
X213590Y745901D01*
X213589Y745895D01*
X213585Y745895D01*
X213380Y745561D01*
X213381Y745555D01*
X213377Y745554D01*
X213227Y745192D01*
X213228Y745186D01*
X213224Y745184D01*
X213133Y744802D01*
X213135Y744797D01*
X213132Y744795D01*
X213101Y744404D01*
X213103Y744401D01*
X213101Y744400D01*
X213132Y735209D01*
X213137Y735202D01*
X213133Y735198D01*
X213224Y734816D01*
X213229Y734812D01*
X213227Y734808D01*
X213377Y734446D01*
X213382Y734443D01*
X213380Y734439D01*
X213585Y734105D01*
X213590Y734103D01*
X213590Y734099D01*
X213845Y733800D01*
X213850Y733799D01*
X213850Y733795D01*
X214149Y733540D01*
X214155Y733539D01*
X214155Y733535D01*
X214489Y733330D01*
X214495Y733331D01*
X214496Y733327D01*
X214858Y733177D01*
X214864Y733178D01*
X214866Y733174D01*
X215248Y733083D01*
X215253Y733085D01*
X215255Y733082D01*
X215646Y733051D01*
X215649Y733053D01*
X215650Y733051D01*
X221150Y733051D01*
X221152Y733053D01*
G37*
G36*
X454791Y633132D02*
X454791Y633132D01*
X454798Y633137D01*
X454802Y633133D01*
X455184Y633224D01*
X455188Y633229D01*
X455192Y633227D01*
X455554Y633377D01*
X455557Y633382D01*
X455561Y633380D01*
X455895Y633585D01*
X455897Y633590D01*
X455901Y633590D01*
X456200Y633845D01*
X456201Y633850D01*
X456205Y633850D01*
X456460Y634149D01*
X456461Y634155D01*
X456465Y634155D01*
X456670Y634489D01*
X456669Y634495D01*
X456674Y634496D01*
X456824Y634858D01*
X456823Y634860D01*
X456824Y634860D01*
X456822Y634863D01*
X456822Y634864D01*
X456826Y634866D01*
X456917Y635248D01*
X456915Y635253D01*
X456917Y635254D01*
X456918Y635255D01*
X456949Y635646D01*
X456947Y635649D01*
X456949Y635650D01*
X456949Y641150D01*
X456947Y641152D01*
X456949Y641154D01*
X456918Y641545D01*
X456914Y641549D01*
X456917Y641552D01*
X456826Y641934D01*
X456821Y641938D01*
X456824Y641942D01*
X456674Y642304D01*
X456668Y642307D01*
X456670Y642311D01*
X456465Y642645D01*
X456460Y642647D01*
X456460Y642651D01*
X456205Y642950D01*
X456200Y642951D01*
X456200Y642955D01*
X455901Y643210D01*
X455895Y643211D01*
X455895Y643215D01*
X455561Y643420D01*
X455555Y643419D01*
X455554Y643424D01*
X455192Y643574D01*
X455186Y643572D01*
X455184Y643576D01*
X454802Y643667D01*
X454797Y643665D01*
X454795Y643668D01*
X454404Y643699D01*
X454401Y643697D01*
X454400Y643699D01*
X445209Y643668D01*
X445202Y643663D01*
X445198Y643667D01*
X444816Y643576D01*
X444812Y643571D01*
X444808Y643574D01*
X444446Y643424D01*
X444443Y643418D01*
X444439Y643420D01*
X444105Y643215D01*
X444103Y643210D01*
X444099Y643210D01*
X443800Y642955D01*
X443799Y642950D01*
X443795Y642950D01*
X443540Y642651D01*
X443539Y642645D01*
X443535Y642645D01*
X443330Y642311D01*
X443331Y642305D01*
X443327Y642304D01*
X443177Y641942D01*
X443178Y641936D01*
X443174Y641934D01*
X443083Y641552D01*
X443085Y641547D01*
X443082Y641545D01*
X443051Y641154D01*
X443053Y641151D01*
X443051Y641150D01*
X443051Y635650D01*
X443053Y635648D01*
X443051Y635646D01*
X443082Y635255D01*
X443086Y635251D01*
X443083Y635248D01*
X443174Y634866D01*
X443179Y634862D01*
X443177Y634858D01*
X443327Y634496D01*
X443332Y634493D01*
X443330Y634489D01*
X443535Y634155D01*
X443540Y634153D01*
X443540Y634149D01*
X443795Y633850D01*
X443800Y633849D01*
X443800Y633845D01*
X444099Y633590D01*
X444105Y633589D01*
X444105Y633585D01*
X444439Y633380D01*
X444445Y633381D01*
X444446Y633377D01*
X444808Y633227D01*
X444814Y633228D01*
X444816Y633224D01*
X445198Y633133D01*
X445203Y633135D01*
X445205Y633132D01*
X445596Y633101D01*
X445599Y633103D01*
X445600Y633101D01*
X454791Y633132D01*
G37*
G36*
X454791Y616332D02*
X454791Y616332D01*
X454798Y616337D01*
X454802Y616333D01*
X455184Y616424D01*
X455188Y616429D01*
X455192Y616427D01*
X455554Y616577D01*
X455557Y616582D01*
X455561Y616580D01*
X455895Y616785D01*
X455897Y616790D01*
X455901Y616790D01*
X456200Y617045D01*
X456201Y617050D01*
X456205Y617050D01*
X456460Y617349D01*
X456461Y617355D01*
X456465Y617355D01*
X456670Y617689D01*
X456669Y617695D01*
X456674Y617696D01*
X456824Y618058D01*
X456823Y618060D01*
X456824Y618060D01*
X456822Y618063D01*
X456822Y618064D01*
X456826Y618066D01*
X456917Y618448D01*
X456915Y618453D01*
X456917Y618454D01*
X456918Y618455D01*
X456949Y618846D01*
X456947Y618849D01*
X456949Y618850D01*
X456949Y624350D01*
X456947Y624352D01*
X456949Y624354D01*
X456918Y624745D01*
X456914Y624749D01*
X456917Y624752D01*
X456826Y625134D01*
X456821Y625138D01*
X456824Y625142D01*
X456674Y625504D01*
X456668Y625507D01*
X456670Y625511D01*
X456465Y625845D01*
X456460Y625847D01*
X456460Y625851D01*
X456205Y626150D01*
X456200Y626151D01*
X456200Y626155D01*
X455901Y626410D01*
X455895Y626411D01*
X455895Y626415D01*
X455561Y626620D01*
X455555Y626619D01*
X455554Y626624D01*
X455192Y626774D01*
X455186Y626772D01*
X455184Y626776D01*
X454802Y626867D01*
X454797Y626865D01*
X454795Y626868D01*
X454404Y626899D01*
X454401Y626897D01*
X454400Y626899D01*
X445209Y626868D01*
X445202Y626863D01*
X445198Y626867D01*
X444816Y626776D01*
X444812Y626771D01*
X444808Y626774D01*
X444446Y626624D01*
X444443Y626618D01*
X444439Y626620D01*
X444105Y626415D01*
X444103Y626410D01*
X444099Y626410D01*
X443800Y626155D01*
X443799Y626150D01*
X443795Y626150D01*
X443540Y625851D01*
X443539Y625845D01*
X443535Y625845D01*
X443330Y625511D01*
X443331Y625505D01*
X443327Y625504D01*
X443177Y625142D01*
X443178Y625136D01*
X443174Y625134D01*
X443083Y624752D01*
X443085Y624747D01*
X443082Y624745D01*
X443051Y624354D01*
X443053Y624351D01*
X443051Y624350D01*
X443051Y618850D01*
X443053Y618848D01*
X443051Y618846D01*
X443082Y618455D01*
X443086Y618451D01*
X443083Y618448D01*
X443174Y618066D01*
X443179Y618062D01*
X443177Y618058D01*
X443327Y617696D01*
X443332Y617693D01*
X443330Y617689D01*
X443535Y617355D01*
X443540Y617353D01*
X443540Y617349D01*
X443795Y617050D01*
X443800Y617049D01*
X443800Y617045D01*
X444099Y616790D01*
X444105Y616789D01*
X444105Y616785D01*
X444439Y616580D01*
X444445Y616581D01*
X444446Y616577D01*
X444808Y616427D01*
X444814Y616428D01*
X444816Y616424D01*
X445198Y616333D01*
X445203Y616335D01*
X445205Y616332D01*
X445596Y616301D01*
X445599Y616303D01*
X445600Y616301D01*
X454791Y616332D01*
G37*
G36*
X364791Y583132D02*
X364791Y583132D01*
X364798Y583137D01*
X364802Y583133D01*
X365184Y583224D01*
X365188Y583229D01*
X365192Y583227D01*
X365554Y583377D01*
X365557Y583382D01*
X365561Y583380D01*
X365895Y583585D01*
X365897Y583590D01*
X365901Y583590D01*
X366200Y583845D01*
X366201Y583850D01*
X366205Y583850D01*
X366460Y584149D01*
X366461Y584155D01*
X366465Y584155D01*
X366670Y584489D01*
X366669Y584495D01*
X366674Y584496D01*
X366824Y584858D01*
X366823Y584860D01*
X366824Y584860D01*
X366822Y584863D01*
X366822Y584864D01*
X366826Y584866D01*
X366917Y585248D01*
X366915Y585253D01*
X366917Y585254D01*
X366918Y585255D01*
X366949Y585646D01*
X366947Y585649D01*
X366949Y585650D01*
X366949Y591150D01*
X366947Y591152D01*
X366949Y591154D01*
X366918Y591545D01*
X366914Y591549D01*
X366917Y591552D01*
X366826Y591934D01*
X366821Y591938D01*
X366824Y591942D01*
X366674Y592304D01*
X366668Y592307D01*
X366670Y592311D01*
X366465Y592645D01*
X366460Y592647D01*
X366460Y592651D01*
X366205Y592950D01*
X366200Y592951D01*
X366200Y592955D01*
X365901Y593210D01*
X365895Y593211D01*
X365895Y593215D01*
X365561Y593420D01*
X365555Y593419D01*
X365554Y593424D01*
X365192Y593574D01*
X365186Y593572D01*
X365184Y593576D01*
X364802Y593667D01*
X364797Y593665D01*
X364795Y593668D01*
X364404Y593699D01*
X364401Y593697D01*
X364400Y593699D01*
X355209Y593668D01*
X355202Y593663D01*
X355198Y593667D01*
X354816Y593576D01*
X354812Y593571D01*
X354808Y593574D01*
X354446Y593424D01*
X354443Y593418D01*
X354439Y593420D01*
X354105Y593215D01*
X354103Y593210D01*
X354099Y593210D01*
X353800Y592955D01*
X353799Y592950D01*
X353795Y592950D01*
X353540Y592651D01*
X353539Y592645D01*
X353535Y592645D01*
X353330Y592311D01*
X353331Y592305D01*
X353327Y592304D01*
X353177Y591942D01*
X353178Y591936D01*
X353174Y591934D01*
X353083Y591552D01*
X353085Y591547D01*
X353082Y591545D01*
X353051Y591154D01*
X353053Y591151D01*
X353051Y591150D01*
X353051Y585650D01*
X353053Y585648D01*
X353051Y585646D01*
X353082Y585255D01*
X353086Y585251D01*
X353083Y585248D01*
X353174Y584866D01*
X353179Y584862D01*
X353177Y584858D01*
X353327Y584496D01*
X353332Y584493D01*
X353330Y584489D01*
X353535Y584155D01*
X353540Y584153D01*
X353540Y584149D01*
X353795Y583850D01*
X353800Y583849D01*
X353800Y583845D01*
X354099Y583590D01*
X354105Y583589D01*
X354105Y583585D01*
X354439Y583380D01*
X354445Y583381D01*
X354446Y583377D01*
X354808Y583227D01*
X354814Y583228D01*
X354816Y583224D01*
X355198Y583133D01*
X355203Y583135D01*
X355205Y583132D01*
X355596Y583101D01*
X355599Y583103D01*
X355600Y583101D01*
X364791Y583132D01*
G37*
G36*
X324791Y583132D02*
X324791Y583132D01*
X324798Y583137D01*
X324802Y583133D01*
X325184Y583224D01*
X325188Y583229D01*
X325192Y583227D01*
X325554Y583377D01*
X325557Y583382D01*
X325561Y583380D01*
X325895Y583585D01*
X325897Y583590D01*
X325901Y583590D01*
X326200Y583845D01*
X326201Y583850D01*
X326205Y583850D01*
X326460Y584149D01*
X326461Y584155D01*
X326465Y584155D01*
X326670Y584489D01*
X326669Y584495D01*
X326674Y584496D01*
X326824Y584858D01*
X326823Y584860D01*
X326824Y584860D01*
X326822Y584863D01*
X326822Y584864D01*
X326826Y584866D01*
X326917Y585248D01*
X326915Y585253D01*
X326917Y585254D01*
X326918Y585255D01*
X326949Y585646D01*
X326947Y585649D01*
X326949Y585650D01*
X326949Y591150D01*
X326947Y591152D01*
X326949Y591154D01*
X326918Y591545D01*
X326914Y591549D01*
X326917Y591552D01*
X326826Y591934D01*
X326821Y591938D01*
X326824Y591942D01*
X326674Y592304D01*
X326668Y592307D01*
X326670Y592311D01*
X326465Y592645D01*
X326460Y592647D01*
X326460Y592651D01*
X326205Y592950D01*
X326200Y592951D01*
X326200Y592955D01*
X325901Y593210D01*
X325895Y593211D01*
X325895Y593215D01*
X325561Y593420D01*
X325555Y593419D01*
X325554Y593424D01*
X325192Y593574D01*
X325186Y593572D01*
X325184Y593576D01*
X324802Y593667D01*
X324797Y593665D01*
X324795Y593668D01*
X324404Y593699D01*
X324401Y593697D01*
X324400Y593699D01*
X315209Y593668D01*
X315202Y593663D01*
X315198Y593667D01*
X314816Y593576D01*
X314812Y593571D01*
X314808Y593574D01*
X314446Y593424D01*
X314443Y593418D01*
X314439Y593420D01*
X314105Y593215D01*
X314103Y593210D01*
X314099Y593210D01*
X313800Y592955D01*
X313799Y592950D01*
X313795Y592950D01*
X313540Y592651D01*
X313539Y592645D01*
X313535Y592645D01*
X313330Y592311D01*
X313331Y592305D01*
X313327Y592304D01*
X313177Y591942D01*
X313178Y591936D01*
X313174Y591934D01*
X313083Y591552D01*
X313085Y591547D01*
X313082Y591545D01*
X313051Y591154D01*
X313053Y591151D01*
X313051Y591150D01*
X313051Y585650D01*
X313053Y585648D01*
X313051Y585646D01*
X313082Y585255D01*
X313086Y585251D01*
X313083Y585248D01*
X313174Y584866D01*
X313179Y584862D01*
X313177Y584858D01*
X313327Y584496D01*
X313332Y584493D01*
X313330Y584489D01*
X313535Y584155D01*
X313540Y584153D01*
X313540Y584149D01*
X313795Y583850D01*
X313800Y583849D01*
X313800Y583845D01*
X314099Y583590D01*
X314105Y583589D01*
X314105Y583585D01*
X314439Y583380D01*
X314445Y583381D01*
X314446Y583377D01*
X314808Y583227D01*
X314814Y583228D01*
X314816Y583224D01*
X315198Y583133D01*
X315203Y583135D01*
X315205Y583132D01*
X315596Y583101D01*
X315599Y583103D01*
X315600Y583101D01*
X324791Y583132D01*
G37*
G36*
X364791Y566332D02*
X364791Y566332D01*
X364798Y566337D01*
X364802Y566333D01*
X365184Y566424D01*
X365188Y566429D01*
X365192Y566427D01*
X365554Y566577D01*
X365557Y566582D01*
X365561Y566580D01*
X365895Y566785D01*
X365897Y566790D01*
X365901Y566790D01*
X366200Y567045D01*
X366201Y567050D01*
X366205Y567050D01*
X366460Y567349D01*
X366461Y567355D01*
X366465Y567355D01*
X366670Y567689D01*
X366669Y567695D01*
X366674Y567696D01*
X366824Y568058D01*
X366823Y568060D01*
X366824Y568060D01*
X366822Y568063D01*
X366822Y568064D01*
X366826Y568066D01*
X366917Y568448D01*
X366915Y568453D01*
X366917Y568454D01*
X366918Y568455D01*
X366949Y568846D01*
X366947Y568849D01*
X366949Y568850D01*
X366949Y574350D01*
X366947Y574352D01*
X366949Y574354D01*
X366918Y574745D01*
X366914Y574749D01*
X366917Y574752D01*
X366826Y575134D01*
X366821Y575138D01*
X366824Y575142D01*
X366674Y575504D01*
X366668Y575507D01*
X366670Y575511D01*
X366465Y575845D01*
X366460Y575847D01*
X366460Y575851D01*
X366205Y576150D01*
X366200Y576151D01*
X366200Y576155D01*
X365901Y576410D01*
X365895Y576411D01*
X365895Y576415D01*
X365561Y576620D01*
X365555Y576619D01*
X365554Y576624D01*
X365192Y576774D01*
X365186Y576772D01*
X365184Y576776D01*
X364802Y576867D01*
X364797Y576865D01*
X364795Y576868D01*
X364404Y576899D01*
X364401Y576897D01*
X364400Y576899D01*
X355209Y576868D01*
X355202Y576863D01*
X355198Y576867D01*
X354816Y576776D01*
X354812Y576771D01*
X354808Y576774D01*
X354446Y576624D01*
X354443Y576618D01*
X354439Y576620D01*
X354105Y576415D01*
X354103Y576410D01*
X354099Y576410D01*
X353800Y576155D01*
X353799Y576150D01*
X353795Y576150D01*
X353540Y575851D01*
X353539Y575845D01*
X353535Y575845D01*
X353330Y575511D01*
X353331Y575505D01*
X353327Y575504D01*
X353177Y575142D01*
X353178Y575136D01*
X353174Y575134D01*
X353083Y574752D01*
X353085Y574747D01*
X353082Y574745D01*
X353051Y574354D01*
X353053Y574351D01*
X353051Y574350D01*
X353051Y568850D01*
X353053Y568848D01*
X353051Y568846D01*
X353082Y568455D01*
X353086Y568451D01*
X353083Y568448D01*
X353174Y568066D01*
X353179Y568062D01*
X353177Y568058D01*
X353327Y567696D01*
X353332Y567693D01*
X353330Y567689D01*
X353535Y567355D01*
X353540Y567353D01*
X353540Y567349D01*
X353795Y567050D01*
X353800Y567049D01*
X353800Y567045D01*
X354099Y566790D01*
X354105Y566789D01*
X354105Y566785D01*
X354439Y566580D01*
X354445Y566581D01*
X354446Y566577D01*
X354808Y566427D01*
X354814Y566428D01*
X354816Y566424D01*
X355198Y566333D01*
X355203Y566335D01*
X355205Y566332D01*
X355596Y566301D01*
X355599Y566303D01*
X355600Y566301D01*
X364791Y566332D01*
G37*
G36*
X225244Y1075878D02*
X225244Y1075878D01*
X225251Y1075883D01*
X225256Y1075879D01*
X225592Y1075960D01*
X225595Y1075965D01*
X225599Y1075963D01*
X225918Y1076095D01*
X225921Y1076100D01*
X225925Y1076098D01*
X226219Y1076278D01*
X226221Y1076283D01*
X226225Y1076283D01*
X226488Y1076507D01*
X226489Y1076512D01*
X226494Y1076512D01*
X226718Y1076775D01*
X226718Y1076781D01*
X226722Y1076781D01*
X226902Y1077075D01*
X226901Y1077081D01*
X226906Y1077082D01*
X227038Y1077401D01*
X227036Y1077407D01*
X227040Y1077408D01*
X227121Y1077744D01*
X227119Y1077750D01*
X227122Y1077752D01*
X227149Y1078096D01*
X227148Y1078099D01*
X227149Y1078100D01*
X227149Y1082400D01*
X227147Y1082402D01*
X227149Y1082404D01*
X227122Y1082748D01*
X227118Y1082752D01*
X227121Y1082756D01*
X227040Y1083092D01*
X227035Y1083095D01*
X227038Y1083099D01*
X226906Y1083418D01*
X226900Y1083421D01*
X226902Y1083425D01*
X226722Y1083719D01*
X226717Y1083721D01*
X226718Y1083725D01*
X226494Y1083988D01*
X226488Y1083989D01*
X226488Y1083994D01*
X226225Y1084218D01*
X226219Y1084218D01*
X226219Y1084222D01*
X225925Y1084402D01*
X225919Y1084401D01*
X225918Y1084406D01*
X225599Y1084538D01*
X225593Y1084536D01*
X225592Y1084540D01*
X225256Y1084621D01*
X225250Y1084619D01*
X225248Y1084622D01*
X224904Y1084649D01*
X224901Y1084647D01*
X224900Y1084649D01*
X214756Y1084622D01*
X214749Y1084617D01*
X214744Y1084621D01*
X214408Y1084540D01*
X214405Y1084535D01*
X214401Y1084538D01*
X214082Y1084406D01*
X214079Y1084400D01*
X214075Y1084402D01*
X213781Y1084222D01*
X213779Y1084217D01*
X213775Y1084218D01*
X213512Y1083994D01*
X213511Y1083988D01*
X213507Y1083988D01*
X213283Y1083725D01*
X213282Y1083719D01*
X213278Y1083719D01*
X213098Y1083425D01*
X213099Y1083419D01*
X213095Y1083418D01*
X212963Y1083099D01*
X212964Y1083093D01*
X212960Y1083092D01*
X212879Y1082756D01*
X212881Y1082750D01*
X212878Y1082748D01*
X212851Y1082404D01*
X212853Y1082401D01*
X212851Y1082400D01*
X212851Y1078100D01*
X212853Y1078098D01*
X212851Y1078096D01*
X212878Y1077752D01*
X212882Y1077748D01*
X212879Y1077744D01*
X212960Y1077408D01*
X212965Y1077405D01*
X212963Y1077401D01*
X213095Y1077082D01*
X213100Y1077079D01*
X213098Y1077075D01*
X213278Y1076781D01*
X213283Y1076779D01*
X213283Y1076775D01*
X213507Y1076512D01*
X213512Y1076511D01*
X213512Y1076507D01*
X213775Y1076283D01*
X213781Y1076282D01*
X213781Y1076278D01*
X214075Y1076098D01*
X214081Y1076099D01*
X214082Y1076095D01*
X214401Y1075963D01*
X214407Y1075964D01*
X214408Y1075960D01*
X214744Y1075879D01*
X214750Y1075881D01*
X214752Y1075878D01*
X215096Y1075851D01*
X215099Y1075853D01*
X215100Y1075851D01*
X225244Y1075878D01*
G37*
G36*
X65244Y1075878D02*
X65244Y1075878D01*
X65251Y1075883D01*
X65256Y1075879D01*
X65592Y1075960D01*
X65595Y1075965D01*
X65599Y1075963D01*
X65918Y1076095D01*
X65921Y1076100D01*
X65925Y1076098D01*
X66219Y1076278D01*
X66221Y1076283D01*
X66225Y1076283D01*
X66488Y1076507D01*
X66489Y1076512D01*
X66494Y1076512D01*
X66718Y1076775D01*
X66718Y1076781D01*
X66722Y1076781D01*
X66902Y1077075D01*
X66901Y1077081D01*
X66906Y1077082D01*
X67038Y1077401D01*
X67036Y1077407D01*
X67040Y1077408D01*
X67121Y1077744D01*
X67119Y1077750D01*
X67122Y1077752D01*
X67149Y1078096D01*
X67148Y1078099D01*
X67149Y1078100D01*
X67149Y1082400D01*
X67147Y1082402D01*
X67149Y1082404D01*
X67122Y1082748D01*
X67118Y1082752D01*
X67121Y1082756D01*
X67040Y1083092D01*
X67035Y1083095D01*
X67038Y1083099D01*
X66906Y1083418D01*
X66900Y1083421D01*
X66902Y1083425D01*
X66722Y1083719D01*
X66717Y1083721D01*
X66718Y1083725D01*
X66494Y1083988D01*
X66488Y1083989D01*
X66488Y1083994D01*
X66225Y1084218D01*
X66219Y1084218D01*
X66219Y1084222D01*
X65925Y1084402D01*
X65919Y1084401D01*
X65918Y1084406D01*
X65599Y1084538D01*
X65593Y1084536D01*
X65592Y1084540D01*
X65256Y1084621D01*
X65250Y1084619D01*
X65248Y1084622D01*
X64904Y1084649D01*
X64901Y1084647D01*
X64900Y1084649D01*
X54756Y1084622D01*
X54749Y1084617D01*
X54744Y1084621D01*
X54408Y1084540D01*
X54405Y1084535D01*
X54401Y1084538D01*
X54082Y1084406D01*
X54079Y1084400D01*
X54075Y1084402D01*
X53781Y1084222D01*
X53779Y1084217D01*
X53775Y1084218D01*
X53512Y1083994D01*
X53511Y1083988D01*
X53507Y1083988D01*
X53283Y1083725D01*
X53282Y1083719D01*
X53278Y1083719D01*
X53098Y1083425D01*
X53099Y1083419D01*
X53095Y1083418D01*
X52963Y1083099D01*
X52964Y1083093D01*
X52960Y1083092D01*
X52879Y1082756D01*
X52881Y1082750D01*
X52878Y1082748D01*
X52851Y1082404D01*
X52853Y1082401D01*
X52851Y1082400D01*
X52851Y1078100D01*
X52853Y1078098D01*
X52851Y1078096D01*
X52878Y1077752D01*
X52882Y1077748D01*
X52879Y1077744D01*
X52960Y1077408D01*
X52965Y1077405D01*
X52963Y1077401D01*
X53095Y1077082D01*
X53100Y1077079D01*
X53098Y1077075D01*
X53278Y1076781D01*
X53283Y1076779D01*
X53283Y1076775D01*
X53507Y1076512D01*
X53512Y1076511D01*
X53512Y1076507D01*
X53775Y1076283D01*
X53781Y1076282D01*
X53781Y1076278D01*
X54075Y1076098D01*
X54081Y1076099D01*
X54082Y1076095D01*
X54401Y1075963D01*
X54407Y1075964D01*
X54408Y1075960D01*
X54744Y1075879D01*
X54750Y1075881D01*
X54752Y1075878D01*
X55096Y1075851D01*
X55099Y1075853D01*
X55100Y1075851D01*
X65244Y1075878D01*
G37*
G36*
X362244Y1115378D02*
X362244Y1115378D01*
X362251Y1115383D01*
X362256Y1115379D01*
X362592Y1115460D01*
X362595Y1115465D01*
X362599Y1115463D01*
X362918Y1115595D01*
X362921Y1115600D01*
X362925Y1115598D01*
X363219Y1115778D01*
X363221Y1115783D01*
X363225Y1115783D01*
X363488Y1116007D01*
X363489Y1116012D01*
X363494Y1116012D01*
X363718Y1116275D01*
X363718Y1116281D01*
X363722Y1116281D01*
X363902Y1116575D01*
X363901Y1116581D01*
X363906Y1116582D01*
X364038Y1116901D01*
X364036Y1116907D01*
X364040Y1116908D01*
X364121Y1117244D01*
X364119Y1117250D01*
X364122Y1117252D01*
X364149Y1117596D01*
X364148Y1117599D01*
X364149Y1117600D01*
X364149Y1121900D01*
X364147Y1121902D01*
X364149Y1121904D01*
X364122Y1122248D01*
X364118Y1122252D01*
X364121Y1122256D01*
X364040Y1122592D01*
X364035Y1122595D01*
X364038Y1122599D01*
X363906Y1122918D01*
X363900Y1122921D01*
X363902Y1122925D01*
X363722Y1123219D01*
X363717Y1123221D01*
X363718Y1123225D01*
X363494Y1123488D01*
X363488Y1123489D01*
X363488Y1123494D01*
X363225Y1123718D01*
X363219Y1123718D01*
X363219Y1123722D01*
X362925Y1123902D01*
X362919Y1123901D01*
X362918Y1123906D01*
X362599Y1124038D01*
X362593Y1124036D01*
X362592Y1124040D01*
X362256Y1124121D01*
X362250Y1124119D01*
X362248Y1124122D01*
X361904Y1124149D01*
X361901Y1124147D01*
X361900Y1124149D01*
X351756Y1124122D01*
X351749Y1124117D01*
X351744Y1124121D01*
X351408Y1124040D01*
X351405Y1124035D01*
X351401Y1124038D01*
X351082Y1123906D01*
X351079Y1123900D01*
X351075Y1123902D01*
X350781Y1123722D01*
X350779Y1123717D01*
X350775Y1123718D01*
X350512Y1123494D01*
X350511Y1123488D01*
X350507Y1123488D01*
X350283Y1123225D01*
X350282Y1123219D01*
X350278Y1123219D01*
X350098Y1122925D01*
X350099Y1122919D01*
X350095Y1122918D01*
X349963Y1122599D01*
X349964Y1122593D01*
X349960Y1122592D01*
X349879Y1122256D01*
X349881Y1122250D01*
X349878Y1122248D01*
X349851Y1121904D01*
X349853Y1121901D01*
X349851Y1121900D01*
X349851Y1117600D01*
X349853Y1117598D01*
X349851Y1117596D01*
X349878Y1117252D01*
X349882Y1117248D01*
X349879Y1117244D01*
X349960Y1116908D01*
X349965Y1116905D01*
X349963Y1116901D01*
X350095Y1116582D01*
X350100Y1116579D01*
X350098Y1116575D01*
X350278Y1116281D01*
X350283Y1116279D01*
X350283Y1116275D01*
X350507Y1116012D01*
X350512Y1116011D01*
X350512Y1116007D01*
X350775Y1115783D01*
X350781Y1115782D01*
X350781Y1115778D01*
X351075Y1115598D01*
X351081Y1115599D01*
X351082Y1115595D01*
X351401Y1115463D01*
X351407Y1115464D01*
X351408Y1115460D01*
X351744Y1115379D01*
X351750Y1115381D01*
X351752Y1115378D01*
X352096Y1115351D01*
X352099Y1115353D01*
X352100Y1115351D01*
X362244Y1115378D01*
G37*
G36*
X25244Y745378D02*
X25244Y745378D01*
X25251Y745383D01*
X25256Y745379D01*
X25592Y745460D01*
X25595Y745465D01*
X25599Y745463D01*
X25918Y745595D01*
X25921Y745600D01*
X25925Y745598D01*
X26219Y745778D01*
X26221Y745783D01*
X26225Y745783D01*
X26488Y746007D01*
X26489Y746012D01*
X26494Y746012D01*
X26718Y746275D01*
X26718Y746281D01*
X26722Y746281D01*
X26902Y746575D01*
X26901Y746581D01*
X26906Y746582D01*
X27038Y746901D01*
X27036Y746907D01*
X27040Y746908D01*
X27121Y747244D01*
X27119Y747250D01*
X27122Y747252D01*
X27149Y747596D01*
X27148Y747599D01*
X27149Y747600D01*
X27149Y751900D01*
X27147Y751902D01*
X27149Y751904D01*
X27122Y752248D01*
X27118Y752252D01*
X27121Y752256D01*
X27040Y752592D01*
X27035Y752595D01*
X27038Y752599D01*
X26906Y752918D01*
X26900Y752921D01*
X26902Y752925D01*
X26722Y753219D01*
X26717Y753221D01*
X26718Y753225D01*
X26494Y753488D01*
X26488Y753489D01*
X26488Y753494D01*
X26225Y753718D01*
X26219Y753718D01*
X26219Y753722D01*
X25925Y753902D01*
X25919Y753901D01*
X25918Y753906D01*
X25599Y754038D01*
X25593Y754036D01*
X25592Y754040D01*
X25256Y754121D01*
X25250Y754119D01*
X25248Y754122D01*
X24904Y754149D01*
X24901Y754147D01*
X24900Y754149D01*
X14756Y754122D01*
X14749Y754117D01*
X14744Y754121D01*
X14408Y754040D01*
X14405Y754035D01*
X14401Y754038D01*
X14082Y753906D01*
X14079Y753900D01*
X14075Y753902D01*
X13781Y753722D01*
X13779Y753717D01*
X13775Y753718D01*
X13512Y753494D01*
X13511Y753488D01*
X13507Y753488D01*
X13283Y753225D01*
X13282Y753219D01*
X13278Y753219D01*
X13098Y752925D01*
X13099Y752919D01*
X13095Y752918D01*
X12963Y752599D01*
X12964Y752593D01*
X12960Y752592D01*
X12879Y752256D01*
X12881Y752250D01*
X12878Y752248D01*
X12851Y751904D01*
X12853Y751901D01*
X12851Y751900D01*
X12851Y747600D01*
X12853Y747598D01*
X12851Y747596D01*
X12878Y747252D01*
X12882Y747248D01*
X12879Y747244D01*
X12960Y746908D01*
X12965Y746905D01*
X12963Y746901D01*
X13095Y746582D01*
X13100Y746579D01*
X13098Y746575D01*
X13278Y746281D01*
X13283Y746279D01*
X13283Y746275D01*
X13507Y746012D01*
X13512Y746011D01*
X13512Y746007D01*
X13775Y745783D01*
X13781Y745782D01*
X13781Y745778D01*
X14075Y745598D01*
X14081Y745599D01*
X14082Y745595D01*
X14401Y745463D01*
X14407Y745464D01*
X14408Y745460D01*
X14744Y745379D01*
X14750Y745381D01*
X14752Y745378D01*
X15096Y745351D01*
X15099Y745353D01*
X15100Y745351D01*
X25244Y745378D01*
G37*
G36*
X335244Y1113378D02*
X335244Y1113378D01*
X335251Y1113383D01*
X335256Y1113379D01*
X335592Y1113460D01*
X335595Y1113465D01*
X335599Y1113463D01*
X335918Y1113595D01*
X335921Y1113600D01*
X335925Y1113598D01*
X336219Y1113778D01*
X336221Y1113783D01*
X336225Y1113783D01*
X336488Y1114007D01*
X336489Y1114012D01*
X336494Y1114012D01*
X336718Y1114275D01*
X336718Y1114281D01*
X336722Y1114281D01*
X336902Y1114575D01*
X336901Y1114581D01*
X336906Y1114582D01*
X337038Y1114901D01*
X337036Y1114907D01*
X337040Y1114908D01*
X337121Y1115244D01*
X337119Y1115250D01*
X337122Y1115252D01*
X337149Y1115596D01*
X337148Y1115599D01*
X337149Y1115600D01*
X337149Y1119900D01*
X337147Y1119902D01*
X337149Y1119904D01*
X337122Y1120248D01*
X337118Y1120252D01*
X337121Y1120256D01*
X337040Y1120592D01*
X337035Y1120595D01*
X337038Y1120599D01*
X336906Y1120918D01*
X336900Y1120921D01*
X336902Y1120925D01*
X336722Y1121219D01*
X336717Y1121221D01*
X336718Y1121225D01*
X336494Y1121488D01*
X336488Y1121489D01*
X336488Y1121494D01*
X336225Y1121718D01*
X336219Y1121718D01*
X336219Y1121722D01*
X335925Y1121902D01*
X335919Y1121901D01*
X335918Y1121906D01*
X335599Y1122038D01*
X335593Y1122036D01*
X335592Y1122040D01*
X335256Y1122121D01*
X335250Y1122119D01*
X335248Y1122122D01*
X334904Y1122149D01*
X334901Y1122147D01*
X334900Y1122149D01*
X324756Y1122122D01*
X324749Y1122117D01*
X324744Y1122121D01*
X324408Y1122040D01*
X324405Y1122035D01*
X324401Y1122038D01*
X324082Y1121906D01*
X324079Y1121900D01*
X324075Y1121902D01*
X323781Y1121722D01*
X323779Y1121717D01*
X323775Y1121718D01*
X323512Y1121494D01*
X323511Y1121488D01*
X323507Y1121488D01*
X323283Y1121225D01*
X323282Y1121219D01*
X323278Y1121219D01*
X323098Y1120925D01*
X323099Y1120919D01*
X323095Y1120918D01*
X322963Y1120599D01*
X322964Y1120593D01*
X322960Y1120592D01*
X322879Y1120256D01*
X322881Y1120250D01*
X322878Y1120248D01*
X322851Y1119904D01*
X322853Y1119901D01*
X322851Y1119900D01*
X322851Y1115600D01*
X322853Y1115598D01*
X322851Y1115596D01*
X322878Y1115252D01*
X322882Y1115248D01*
X322879Y1115244D01*
X322960Y1114908D01*
X322965Y1114905D01*
X322963Y1114901D01*
X323095Y1114582D01*
X323100Y1114579D01*
X323098Y1114575D01*
X323278Y1114281D01*
X323283Y1114279D01*
X323283Y1114275D01*
X323507Y1114012D01*
X323512Y1114011D01*
X323512Y1114007D01*
X323775Y1113783D01*
X323781Y1113782D01*
X323781Y1113778D01*
X324075Y1113598D01*
X324081Y1113599D01*
X324082Y1113595D01*
X324401Y1113463D01*
X324407Y1113464D01*
X324408Y1113460D01*
X324744Y1113379D01*
X324750Y1113381D01*
X324752Y1113378D01*
X325096Y1113351D01*
X325099Y1113353D01*
X325100Y1113351D01*
X335244Y1113378D01*
G37*
G36*
X362244Y1095878D02*
X362244Y1095878D01*
X362251Y1095883D01*
X362256Y1095879D01*
X362592Y1095960D01*
X362595Y1095965D01*
X362599Y1095963D01*
X362918Y1096095D01*
X362921Y1096100D01*
X362925Y1096098D01*
X363219Y1096278D01*
X363221Y1096283D01*
X363225Y1096283D01*
X363488Y1096507D01*
X363489Y1096512D01*
X363494Y1096512D01*
X363718Y1096775D01*
X363718Y1096781D01*
X363722Y1096781D01*
X363902Y1097075D01*
X363901Y1097081D01*
X363906Y1097082D01*
X364038Y1097401D01*
X364036Y1097407D01*
X364040Y1097408D01*
X364121Y1097744D01*
X364119Y1097750D01*
X364122Y1097752D01*
X364149Y1098096D01*
X364148Y1098099D01*
X364149Y1098100D01*
X364149Y1102400D01*
X364147Y1102402D01*
X364149Y1102404D01*
X364122Y1102748D01*
X364118Y1102752D01*
X364121Y1102756D01*
X364040Y1103092D01*
X364035Y1103095D01*
X364038Y1103099D01*
X363906Y1103418D01*
X363900Y1103421D01*
X363902Y1103425D01*
X363722Y1103719D01*
X363717Y1103721D01*
X363718Y1103725D01*
X363494Y1103988D01*
X363488Y1103989D01*
X363488Y1103994D01*
X363225Y1104218D01*
X363219Y1104218D01*
X363219Y1104222D01*
X362925Y1104402D01*
X362919Y1104401D01*
X362918Y1104406D01*
X362599Y1104538D01*
X362593Y1104536D01*
X362592Y1104540D01*
X362256Y1104621D01*
X362250Y1104619D01*
X362248Y1104622D01*
X361904Y1104649D01*
X361901Y1104647D01*
X361900Y1104649D01*
X351756Y1104622D01*
X351749Y1104617D01*
X351744Y1104621D01*
X351408Y1104540D01*
X351405Y1104535D01*
X351401Y1104538D01*
X351082Y1104406D01*
X351079Y1104400D01*
X351075Y1104402D01*
X350781Y1104222D01*
X350779Y1104217D01*
X350775Y1104218D01*
X350512Y1103994D01*
X350511Y1103988D01*
X350507Y1103988D01*
X350283Y1103725D01*
X350282Y1103719D01*
X350278Y1103719D01*
X350098Y1103425D01*
X350099Y1103419D01*
X350095Y1103418D01*
X349963Y1103099D01*
X349964Y1103093D01*
X349960Y1103092D01*
X349879Y1102756D01*
X349881Y1102750D01*
X349878Y1102748D01*
X349851Y1102404D01*
X349853Y1102401D01*
X349851Y1102400D01*
X349851Y1098100D01*
X349853Y1098098D01*
X349851Y1098096D01*
X349878Y1097752D01*
X349882Y1097748D01*
X349879Y1097744D01*
X349960Y1097408D01*
X349965Y1097405D01*
X349963Y1097401D01*
X350095Y1097082D01*
X350100Y1097079D01*
X350098Y1097075D01*
X350278Y1096781D01*
X350283Y1096779D01*
X350283Y1096775D01*
X350507Y1096512D01*
X350512Y1096511D01*
X350512Y1096507D01*
X350775Y1096283D01*
X350781Y1096282D01*
X350781Y1096278D01*
X351075Y1096098D01*
X351081Y1096099D01*
X351082Y1096095D01*
X351401Y1095963D01*
X351407Y1095964D01*
X351408Y1095960D01*
X351744Y1095879D01*
X351750Y1095881D01*
X351752Y1095878D01*
X352096Y1095851D01*
X352099Y1095853D01*
X352100Y1095851D01*
X362244Y1095878D01*
G37*
G36*
X25244Y725878D02*
X25244Y725878D01*
X25251Y725883D01*
X25256Y725879D01*
X25592Y725960D01*
X25595Y725965D01*
X25599Y725963D01*
X25918Y726095D01*
X25921Y726100D01*
X25925Y726098D01*
X26219Y726278D01*
X26221Y726283D01*
X26225Y726283D01*
X26488Y726507D01*
X26489Y726512D01*
X26494Y726512D01*
X26718Y726775D01*
X26718Y726781D01*
X26722Y726781D01*
X26902Y727075D01*
X26901Y727081D01*
X26906Y727082D01*
X27038Y727401D01*
X27036Y727407D01*
X27040Y727408D01*
X27121Y727744D01*
X27119Y727750D01*
X27122Y727752D01*
X27149Y728096D01*
X27148Y728099D01*
X27149Y728100D01*
X27149Y732400D01*
X27147Y732402D01*
X27149Y732404D01*
X27122Y732748D01*
X27118Y732752D01*
X27121Y732756D01*
X27040Y733092D01*
X27035Y733095D01*
X27038Y733099D01*
X26906Y733418D01*
X26900Y733421D01*
X26902Y733425D01*
X26722Y733719D01*
X26717Y733721D01*
X26718Y733725D01*
X26494Y733988D01*
X26488Y733989D01*
X26488Y733994D01*
X26225Y734218D01*
X26219Y734218D01*
X26219Y734222D01*
X25925Y734402D01*
X25919Y734401D01*
X25918Y734406D01*
X25599Y734538D01*
X25593Y734536D01*
X25592Y734540D01*
X25256Y734621D01*
X25250Y734619D01*
X25248Y734622D01*
X24904Y734649D01*
X24901Y734647D01*
X24900Y734649D01*
X14756Y734622D01*
X14749Y734617D01*
X14744Y734621D01*
X14408Y734540D01*
X14405Y734535D01*
X14401Y734538D01*
X14082Y734406D01*
X14079Y734400D01*
X14075Y734402D01*
X13781Y734222D01*
X13779Y734217D01*
X13775Y734218D01*
X13512Y733994D01*
X13511Y733988D01*
X13507Y733988D01*
X13283Y733725D01*
X13282Y733719D01*
X13278Y733719D01*
X13098Y733425D01*
X13099Y733419D01*
X13095Y733418D01*
X12963Y733099D01*
X12964Y733093D01*
X12960Y733092D01*
X12879Y732756D01*
X12881Y732750D01*
X12878Y732748D01*
X12851Y732404D01*
X12853Y732401D01*
X12851Y732400D01*
X12851Y728100D01*
X12853Y728098D01*
X12851Y728096D01*
X12878Y727752D01*
X12882Y727748D01*
X12879Y727744D01*
X12960Y727408D01*
X12965Y727405D01*
X12963Y727401D01*
X13095Y727082D01*
X13100Y727079D01*
X13098Y727075D01*
X13278Y726781D01*
X13283Y726779D01*
X13283Y726775D01*
X13507Y726512D01*
X13512Y726511D01*
X13512Y726507D01*
X13775Y726283D01*
X13781Y726282D01*
X13781Y726278D01*
X14075Y726098D01*
X14081Y726099D01*
X14082Y726095D01*
X14401Y725963D01*
X14407Y725964D01*
X14408Y725960D01*
X14744Y725879D01*
X14750Y725881D01*
X14752Y725878D01*
X15096Y725851D01*
X15099Y725853D01*
X15100Y725851D01*
X25244Y725878D01*
G37*
G36*
X35244Y1095378D02*
X35244Y1095378D01*
X35251Y1095383D01*
X35256Y1095379D01*
X35592Y1095460D01*
X35595Y1095465D01*
X35599Y1095463D01*
X35918Y1095595D01*
X35921Y1095600D01*
X35925Y1095598D01*
X36219Y1095778D01*
X36221Y1095783D01*
X36225Y1095783D01*
X36488Y1096007D01*
X36489Y1096012D01*
X36494Y1096012D01*
X36718Y1096275D01*
X36718Y1096281D01*
X36722Y1096281D01*
X36902Y1096575D01*
X36901Y1096581D01*
X36906Y1096582D01*
X37038Y1096901D01*
X37036Y1096907D01*
X37040Y1096908D01*
X37121Y1097244D01*
X37119Y1097250D01*
X37122Y1097252D01*
X37149Y1097596D01*
X37148Y1097599D01*
X37149Y1097600D01*
X37149Y1101900D01*
X37147Y1101902D01*
X37149Y1101904D01*
X37122Y1102248D01*
X37118Y1102252D01*
X37121Y1102256D01*
X37040Y1102592D01*
X37035Y1102595D01*
X37038Y1102599D01*
X36906Y1102918D01*
X36900Y1102921D01*
X36902Y1102925D01*
X36722Y1103219D01*
X36717Y1103221D01*
X36718Y1103225D01*
X36494Y1103488D01*
X36488Y1103489D01*
X36488Y1103494D01*
X36225Y1103718D01*
X36219Y1103718D01*
X36219Y1103722D01*
X35925Y1103902D01*
X35919Y1103901D01*
X35918Y1103906D01*
X35599Y1104038D01*
X35593Y1104036D01*
X35592Y1104040D01*
X35256Y1104121D01*
X35250Y1104119D01*
X35248Y1104122D01*
X34904Y1104149D01*
X34901Y1104147D01*
X34900Y1104149D01*
X24756Y1104122D01*
X24749Y1104117D01*
X24744Y1104121D01*
X24408Y1104040D01*
X24405Y1104035D01*
X24401Y1104038D01*
X24082Y1103906D01*
X24079Y1103900D01*
X24075Y1103902D01*
X23781Y1103722D01*
X23779Y1103717D01*
X23775Y1103718D01*
X23512Y1103494D01*
X23511Y1103488D01*
X23507Y1103488D01*
X23283Y1103225D01*
X23282Y1103219D01*
X23278Y1103219D01*
X23098Y1102925D01*
X23099Y1102919D01*
X23095Y1102918D01*
X22963Y1102599D01*
X22964Y1102593D01*
X22960Y1102592D01*
X22879Y1102256D01*
X22881Y1102250D01*
X22878Y1102248D01*
X22851Y1101904D01*
X22853Y1101901D01*
X22851Y1101900D01*
X22851Y1097600D01*
X22853Y1097598D01*
X22851Y1097596D01*
X22878Y1097252D01*
X22882Y1097248D01*
X22879Y1097244D01*
X22960Y1096908D01*
X22965Y1096905D01*
X22963Y1096901D01*
X23095Y1096582D01*
X23100Y1096579D01*
X23098Y1096575D01*
X23278Y1096281D01*
X23283Y1096279D01*
X23283Y1096275D01*
X23507Y1096012D01*
X23512Y1096011D01*
X23512Y1096007D01*
X23775Y1095783D01*
X23781Y1095782D01*
X23781Y1095778D01*
X24075Y1095598D01*
X24081Y1095599D01*
X24082Y1095595D01*
X24401Y1095463D01*
X24407Y1095464D01*
X24408Y1095460D01*
X24744Y1095379D01*
X24750Y1095381D01*
X24752Y1095378D01*
X25096Y1095351D01*
X25099Y1095353D01*
X25100Y1095351D01*
X35244Y1095378D01*
G37*
G36*
X65244Y1095378D02*
X65244Y1095378D01*
X65251Y1095383D01*
X65256Y1095379D01*
X65592Y1095460D01*
X65595Y1095465D01*
X65599Y1095463D01*
X65918Y1095595D01*
X65921Y1095600D01*
X65925Y1095598D01*
X66219Y1095778D01*
X66221Y1095783D01*
X66225Y1095783D01*
X66488Y1096007D01*
X66489Y1096012D01*
X66494Y1096012D01*
X66718Y1096275D01*
X66718Y1096281D01*
X66722Y1096281D01*
X66902Y1096575D01*
X66901Y1096581D01*
X66906Y1096582D01*
X67038Y1096901D01*
X67036Y1096907D01*
X67040Y1096908D01*
X67121Y1097244D01*
X67119Y1097250D01*
X67122Y1097252D01*
X67149Y1097596D01*
X67148Y1097599D01*
X67149Y1097600D01*
X67149Y1101900D01*
X67147Y1101902D01*
X67149Y1101904D01*
X67122Y1102248D01*
X67118Y1102252D01*
X67121Y1102256D01*
X67040Y1102592D01*
X67035Y1102595D01*
X67038Y1102599D01*
X66906Y1102918D01*
X66900Y1102921D01*
X66902Y1102925D01*
X66722Y1103219D01*
X66717Y1103221D01*
X66718Y1103225D01*
X66494Y1103488D01*
X66488Y1103489D01*
X66488Y1103494D01*
X66225Y1103718D01*
X66219Y1103718D01*
X66219Y1103722D01*
X65925Y1103902D01*
X65919Y1103901D01*
X65918Y1103906D01*
X65599Y1104038D01*
X65593Y1104036D01*
X65592Y1104040D01*
X65256Y1104121D01*
X65250Y1104119D01*
X65248Y1104122D01*
X64904Y1104149D01*
X64901Y1104147D01*
X64900Y1104149D01*
X54756Y1104122D01*
X54749Y1104117D01*
X54744Y1104121D01*
X54408Y1104040D01*
X54405Y1104035D01*
X54401Y1104038D01*
X54082Y1103906D01*
X54079Y1103900D01*
X54075Y1103902D01*
X53781Y1103722D01*
X53779Y1103717D01*
X53775Y1103718D01*
X53512Y1103494D01*
X53511Y1103488D01*
X53507Y1103488D01*
X53283Y1103225D01*
X53282Y1103219D01*
X53278Y1103219D01*
X53098Y1102925D01*
X53099Y1102919D01*
X53095Y1102918D01*
X52963Y1102599D01*
X52964Y1102593D01*
X52960Y1102592D01*
X52879Y1102256D01*
X52881Y1102250D01*
X52878Y1102248D01*
X52851Y1101904D01*
X52853Y1101901D01*
X52851Y1101900D01*
X52851Y1097600D01*
X52853Y1097598D01*
X52851Y1097596D01*
X52878Y1097252D01*
X52882Y1097248D01*
X52879Y1097244D01*
X52960Y1096908D01*
X52965Y1096905D01*
X52963Y1096901D01*
X53095Y1096582D01*
X53100Y1096579D01*
X53098Y1096575D01*
X53278Y1096281D01*
X53283Y1096279D01*
X53283Y1096275D01*
X53507Y1096012D01*
X53512Y1096011D01*
X53512Y1096007D01*
X53775Y1095783D01*
X53781Y1095782D01*
X53781Y1095778D01*
X54075Y1095598D01*
X54081Y1095599D01*
X54082Y1095595D01*
X54401Y1095463D01*
X54407Y1095464D01*
X54408Y1095460D01*
X54744Y1095379D01*
X54750Y1095381D01*
X54752Y1095378D01*
X55096Y1095351D01*
X55099Y1095353D01*
X55100Y1095351D01*
X65244Y1095378D01*
G37*
G36*
X225244Y1095378D02*
X225244Y1095378D01*
X225251Y1095383D01*
X225256Y1095379D01*
X225592Y1095460D01*
X225595Y1095465D01*
X225599Y1095463D01*
X225918Y1095595D01*
X225921Y1095600D01*
X225925Y1095598D01*
X226219Y1095778D01*
X226221Y1095783D01*
X226225Y1095783D01*
X226488Y1096007D01*
X226489Y1096012D01*
X226494Y1096012D01*
X226718Y1096275D01*
X226718Y1096281D01*
X226722Y1096281D01*
X226902Y1096575D01*
X226901Y1096581D01*
X226906Y1096582D01*
X227038Y1096901D01*
X227036Y1096907D01*
X227040Y1096908D01*
X227121Y1097244D01*
X227119Y1097250D01*
X227122Y1097252D01*
X227149Y1097596D01*
X227148Y1097599D01*
X227149Y1097600D01*
X227149Y1101900D01*
X227147Y1101902D01*
X227149Y1101904D01*
X227122Y1102248D01*
X227118Y1102252D01*
X227121Y1102256D01*
X227040Y1102592D01*
X227035Y1102595D01*
X227038Y1102599D01*
X226906Y1102918D01*
X226900Y1102921D01*
X226902Y1102925D01*
X226722Y1103219D01*
X226717Y1103221D01*
X226718Y1103225D01*
X226494Y1103488D01*
X226488Y1103489D01*
X226488Y1103494D01*
X226225Y1103718D01*
X226219Y1103718D01*
X226219Y1103722D01*
X225925Y1103902D01*
X225919Y1103901D01*
X225918Y1103906D01*
X225599Y1104038D01*
X225593Y1104036D01*
X225592Y1104040D01*
X225256Y1104121D01*
X225250Y1104119D01*
X225248Y1104122D01*
X224904Y1104149D01*
X224901Y1104147D01*
X224900Y1104149D01*
X214756Y1104122D01*
X214749Y1104117D01*
X214744Y1104121D01*
X214408Y1104040D01*
X214405Y1104035D01*
X214401Y1104038D01*
X214082Y1103906D01*
X214079Y1103900D01*
X214075Y1103902D01*
X213781Y1103722D01*
X213779Y1103717D01*
X213775Y1103718D01*
X213512Y1103494D01*
X213511Y1103488D01*
X213507Y1103488D01*
X213283Y1103225D01*
X213282Y1103219D01*
X213278Y1103219D01*
X213098Y1102925D01*
X213099Y1102919D01*
X213095Y1102918D01*
X212963Y1102599D01*
X212964Y1102593D01*
X212960Y1102592D01*
X212879Y1102256D01*
X212881Y1102250D01*
X212878Y1102248D01*
X212851Y1101904D01*
X212853Y1101901D01*
X212851Y1101900D01*
X212851Y1097600D01*
X212853Y1097598D01*
X212851Y1097596D01*
X212878Y1097252D01*
X212882Y1097248D01*
X212879Y1097244D01*
X212960Y1096908D01*
X212965Y1096905D01*
X212963Y1096901D01*
X213095Y1096582D01*
X213100Y1096579D01*
X213098Y1096575D01*
X213278Y1096281D01*
X213283Y1096279D01*
X213283Y1096275D01*
X213507Y1096012D01*
X213512Y1096011D01*
X213512Y1096007D01*
X213775Y1095783D01*
X213781Y1095782D01*
X213781Y1095778D01*
X214075Y1095598D01*
X214081Y1095599D01*
X214082Y1095595D01*
X214401Y1095463D01*
X214407Y1095464D01*
X214408Y1095460D01*
X214744Y1095379D01*
X214750Y1095381D01*
X214752Y1095378D01*
X215096Y1095351D01*
X215099Y1095353D01*
X215100Y1095351D01*
X225244Y1095378D01*
G37*
G36*
X335244Y1093878D02*
X335244Y1093878D01*
X335251Y1093883D01*
X335256Y1093879D01*
X335592Y1093960D01*
X335595Y1093965D01*
X335599Y1093963D01*
X335918Y1094095D01*
X335921Y1094100D01*
X335925Y1094098D01*
X336219Y1094278D01*
X336221Y1094283D01*
X336225Y1094283D01*
X336488Y1094507D01*
X336489Y1094512D01*
X336494Y1094512D01*
X336718Y1094775D01*
X336718Y1094781D01*
X336722Y1094781D01*
X336902Y1095075D01*
X336901Y1095081D01*
X336906Y1095082D01*
X337038Y1095401D01*
X337036Y1095407D01*
X337040Y1095408D01*
X337121Y1095744D01*
X337119Y1095750D01*
X337122Y1095752D01*
X337149Y1096096D01*
X337148Y1096099D01*
X337149Y1096100D01*
X337149Y1100400D01*
X337147Y1100402D01*
X337149Y1100404D01*
X337122Y1100748D01*
X337118Y1100752D01*
X337121Y1100756D01*
X337040Y1101092D01*
X337035Y1101095D01*
X337038Y1101099D01*
X336906Y1101418D01*
X336900Y1101421D01*
X336902Y1101425D01*
X336722Y1101719D01*
X336717Y1101721D01*
X336718Y1101725D01*
X336494Y1101988D01*
X336488Y1101989D01*
X336488Y1101994D01*
X336225Y1102218D01*
X336219Y1102218D01*
X336219Y1102222D01*
X335925Y1102402D01*
X335919Y1102401D01*
X335918Y1102406D01*
X335599Y1102538D01*
X335593Y1102536D01*
X335592Y1102540D01*
X335256Y1102621D01*
X335250Y1102619D01*
X335248Y1102622D01*
X334904Y1102649D01*
X334901Y1102647D01*
X334900Y1102649D01*
X324756Y1102622D01*
X324749Y1102617D01*
X324744Y1102621D01*
X324408Y1102540D01*
X324405Y1102535D01*
X324401Y1102538D01*
X324082Y1102406D01*
X324079Y1102400D01*
X324075Y1102402D01*
X323781Y1102222D01*
X323779Y1102217D01*
X323775Y1102218D01*
X323512Y1101994D01*
X323511Y1101988D01*
X323507Y1101988D01*
X323283Y1101725D01*
X323282Y1101719D01*
X323278Y1101719D01*
X323098Y1101425D01*
X323099Y1101419D01*
X323095Y1101418D01*
X322963Y1101099D01*
X322964Y1101093D01*
X322960Y1101092D01*
X322879Y1100756D01*
X322881Y1100750D01*
X322878Y1100748D01*
X322851Y1100404D01*
X322853Y1100401D01*
X322851Y1100400D01*
X322851Y1096100D01*
X322853Y1096098D01*
X322851Y1096096D01*
X322878Y1095752D01*
X322882Y1095748D01*
X322879Y1095744D01*
X322960Y1095408D01*
X322965Y1095405D01*
X322963Y1095401D01*
X323095Y1095082D01*
X323100Y1095079D01*
X323098Y1095075D01*
X323278Y1094781D01*
X323283Y1094779D01*
X323283Y1094775D01*
X323507Y1094512D01*
X323512Y1094511D01*
X323512Y1094507D01*
X323775Y1094283D01*
X323781Y1094282D01*
X323781Y1094278D01*
X324075Y1094098D01*
X324081Y1094099D01*
X324082Y1094095D01*
X324401Y1093963D01*
X324407Y1093964D01*
X324408Y1093960D01*
X324744Y1093879D01*
X324750Y1093881D01*
X324752Y1093878D01*
X325096Y1093851D01*
X325099Y1093853D01*
X325100Y1093851D01*
X335244Y1093878D01*
G37*
G36*
X35244Y1075878D02*
X35244Y1075878D01*
X35251Y1075883D01*
X35256Y1075879D01*
X35592Y1075960D01*
X35595Y1075965D01*
X35599Y1075963D01*
X35918Y1076095D01*
X35921Y1076100D01*
X35925Y1076098D01*
X36219Y1076278D01*
X36221Y1076283D01*
X36225Y1076283D01*
X36488Y1076507D01*
X36489Y1076512D01*
X36494Y1076512D01*
X36718Y1076775D01*
X36718Y1076781D01*
X36722Y1076781D01*
X36902Y1077075D01*
X36901Y1077081D01*
X36906Y1077082D01*
X37038Y1077401D01*
X37036Y1077407D01*
X37040Y1077408D01*
X37121Y1077744D01*
X37119Y1077750D01*
X37122Y1077752D01*
X37149Y1078096D01*
X37148Y1078099D01*
X37149Y1078100D01*
X37149Y1082400D01*
X37147Y1082402D01*
X37149Y1082404D01*
X37122Y1082748D01*
X37118Y1082752D01*
X37121Y1082756D01*
X37040Y1083092D01*
X37035Y1083095D01*
X37038Y1083099D01*
X36906Y1083418D01*
X36900Y1083421D01*
X36902Y1083425D01*
X36722Y1083719D01*
X36717Y1083721D01*
X36718Y1083725D01*
X36494Y1083988D01*
X36488Y1083989D01*
X36488Y1083994D01*
X36225Y1084218D01*
X36219Y1084218D01*
X36219Y1084222D01*
X35925Y1084402D01*
X35919Y1084401D01*
X35918Y1084406D01*
X35599Y1084538D01*
X35593Y1084536D01*
X35592Y1084540D01*
X35256Y1084621D01*
X35250Y1084619D01*
X35248Y1084622D01*
X34904Y1084649D01*
X34901Y1084647D01*
X34900Y1084649D01*
X24756Y1084622D01*
X24749Y1084617D01*
X24744Y1084621D01*
X24408Y1084540D01*
X24405Y1084535D01*
X24401Y1084538D01*
X24082Y1084406D01*
X24079Y1084400D01*
X24075Y1084402D01*
X23781Y1084222D01*
X23779Y1084217D01*
X23775Y1084218D01*
X23512Y1083994D01*
X23511Y1083988D01*
X23507Y1083988D01*
X23283Y1083725D01*
X23282Y1083719D01*
X23278Y1083719D01*
X23098Y1083425D01*
X23099Y1083419D01*
X23095Y1083418D01*
X22963Y1083099D01*
X22964Y1083093D01*
X22960Y1083092D01*
X22879Y1082756D01*
X22881Y1082750D01*
X22878Y1082748D01*
X22851Y1082404D01*
X22853Y1082401D01*
X22851Y1082400D01*
X22851Y1078100D01*
X22853Y1078098D01*
X22851Y1078096D01*
X22878Y1077752D01*
X22882Y1077748D01*
X22879Y1077744D01*
X22960Y1077408D01*
X22965Y1077405D01*
X22963Y1077401D01*
X23095Y1077082D01*
X23100Y1077079D01*
X23098Y1077075D01*
X23278Y1076781D01*
X23283Y1076779D01*
X23283Y1076775D01*
X23507Y1076512D01*
X23512Y1076511D01*
X23512Y1076507D01*
X23775Y1076283D01*
X23781Y1076282D01*
X23781Y1076278D01*
X24075Y1076098D01*
X24081Y1076099D01*
X24082Y1076095D01*
X24401Y1075963D01*
X24407Y1075964D01*
X24408Y1075960D01*
X24744Y1075879D01*
X24750Y1075881D01*
X24752Y1075878D01*
X25096Y1075851D01*
X25099Y1075853D01*
X25100Y1075851D01*
X35244Y1075878D01*
G37*
G36*
X291902Y772853D02*
X291902Y772853D01*
X291904Y772851D01*
X292248Y772878D01*
X292252Y772882D01*
X292256Y772879D01*
X292592Y772960D01*
X292595Y772965D01*
X292599Y772963D01*
X292918Y773095D01*
X292921Y773100D01*
X292925Y773098D01*
X293219Y773278D01*
X293221Y773283D01*
X293225Y773283D01*
X293488Y773507D01*
X293489Y773512D01*
X293494Y773512D01*
X293718Y773775D01*
X293718Y773781D01*
X293722Y773781D01*
X293902Y774075D01*
X293901Y774081D01*
X293906Y774082D01*
X294038Y774401D01*
X294036Y774407D01*
X294040Y774408D01*
X294121Y774744D01*
X294119Y774750D01*
X294122Y774752D01*
X294149Y775096D01*
X294147Y775099D01*
X294149Y775100D01*
X294122Y785244D01*
X294117Y785251D01*
X294121Y785256D01*
X294040Y785592D01*
X294035Y785595D01*
X294038Y785599D01*
X293906Y785918D01*
X293900Y785921D01*
X293902Y785925D01*
X293722Y786219D01*
X293717Y786221D01*
X293718Y786225D01*
X293494Y786488D01*
X293488Y786489D01*
X293488Y786494D01*
X293225Y786718D01*
X293219Y786718D01*
X293219Y786722D01*
X292925Y786902D01*
X292919Y786901D01*
X292918Y786906D01*
X292599Y787038D01*
X292593Y787036D01*
X292592Y787040D01*
X292256Y787121D01*
X292250Y787119D01*
X292248Y787122D01*
X291904Y787149D01*
X291901Y787148D01*
X291900Y787149D01*
X287600Y787149D01*
X287598Y787147D01*
X287596Y787149D01*
X287252Y787122D01*
X287248Y787118D01*
X287244Y787121D01*
X286908Y787040D01*
X286905Y787035D01*
X286901Y787038D01*
X286582Y786906D01*
X286579Y786900D01*
X286575Y786902D01*
X286281Y786722D01*
X286279Y786717D01*
X286275Y786718D01*
X286012Y786494D01*
X286011Y786488D01*
X286007Y786488D01*
X285783Y786225D01*
X285782Y786219D01*
X285778Y786219D01*
X285598Y785925D01*
X285599Y785919D01*
X285595Y785918D01*
X285463Y785599D01*
X285464Y785593D01*
X285460Y785592D01*
X285379Y785256D01*
X285381Y785250D01*
X285378Y785248D01*
X285351Y784904D01*
X285353Y784901D01*
X285351Y784900D01*
X285378Y774756D01*
X285383Y774749D01*
X285379Y774744D01*
X285460Y774408D01*
X285465Y774405D01*
X285463Y774401D01*
X285595Y774082D01*
X285600Y774079D01*
X285598Y774075D01*
X285778Y773781D01*
X285783Y773779D01*
X285783Y773775D01*
X286007Y773512D01*
X286012Y773511D01*
X286012Y773507D01*
X286275Y773283D01*
X286281Y773282D01*
X286281Y773278D01*
X286575Y773098D01*
X286581Y773099D01*
X286582Y773095D01*
X286901Y772963D01*
X286907Y772964D01*
X286908Y772960D01*
X287244Y772879D01*
X287250Y772881D01*
X287252Y772878D01*
X287596Y772851D01*
X287599Y772853D01*
X287600Y772851D01*
X291900Y772851D01*
X291902Y772853D01*
G37*
G36*
X449902Y883853D02*
X449902Y883853D01*
X449904Y883851D01*
X450248Y883878D01*
X450252Y883882D01*
X450256Y883879D01*
X450592Y883960D01*
X450595Y883965D01*
X450599Y883963D01*
X450918Y884095D01*
X450921Y884100D01*
X450925Y884098D01*
X451219Y884278D01*
X451221Y884283D01*
X451225Y884283D01*
X451488Y884507D01*
X451489Y884512D01*
X451494Y884512D01*
X451718Y884775D01*
X451718Y884781D01*
X451722Y884781D01*
X451902Y885075D01*
X451901Y885081D01*
X451906Y885082D01*
X452038Y885401D01*
X452036Y885407D01*
X452040Y885408D01*
X452121Y885744D01*
X452119Y885750D01*
X452122Y885752D01*
X452149Y886096D01*
X452147Y886099D01*
X452149Y886100D01*
X452122Y896244D01*
X452117Y896251D01*
X452121Y896256D01*
X452040Y896592D01*
X452035Y896595D01*
X452038Y896599D01*
X451906Y896918D01*
X451900Y896921D01*
X451902Y896925D01*
X451722Y897219D01*
X451717Y897221D01*
X451718Y897225D01*
X451494Y897488D01*
X451488Y897489D01*
X451488Y897494D01*
X451225Y897718D01*
X451219Y897718D01*
X451219Y897722D01*
X450925Y897902D01*
X450919Y897901D01*
X450918Y897906D01*
X450599Y898038D01*
X450593Y898036D01*
X450592Y898040D01*
X450256Y898121D01*
X450250Y898119D01*
X450248Y898122D01*
X449904Y898149D01*
X449901Y898148D01*
X449900Y898149D01*
X445600Y898149D01*
X445598Y898147D01*
X445596Y898149D01*
X445252Y898122D01*
X445248Y898118D01*
X445244Y898121D01*
X444908Y898040D01*
X444905Y898035D01*
X444901Y898038D01*
X444582Y897906D01*
X444579Y897900D01*
X444575Y897902D01*
X444281Y897722D01*
X444279Y897717D01*
X444275Y897718D01*
X444012Y897494D01*
X444011Y897488D01*
X444007Y897488D01*
X443783Y897225D01*
X443782Y897219D01*
X443778Y897219D01*
X443598Y896925D01*
X443599Y896919D01*
X443595Y896918D01*
X443463Y896599D01*
X443464Y896593D01*
X443460Y896592D01*
X443379Y896256D01*
X443381Y896250D01*
X443378Y896248D01*
X443351Y895904D01*
X443353Y895901D01*
X443351Y895900D01*
X443378Y885756D01*
X443383Y885749D01*
X443379Y885744D01*
X443460Y885408D01*
X443465Y885405D01*
X443463Y885401D01*
X443595Y885082D01*
X443600Y885079D01*
X443598Y885075D01*
X443778Y884781D01*
X443783Y884779D01*
X443783Y884775D01*
X444007Y884512D01*
X444012Y884511D01*
X444012Y884507D01*
X444275Y884283D01*
X444281Y884282D01*
X444281Y884278D01*
X444575Y884098D01*
X444581Y884099D01*
X444582Y884095D01*
X444901Y883963D01*
X444907Y883964D01*
X444908Y883960D01*
X445244Y883879D01*
X445250Y883881D01*
X445252Y883878D01*
X445596Y883851D01*
X445599Y883853D01*
X445600Y883851D01*
X449900Y883851D01*
X449902Y883853D01*
G37*
G36*
X141902Y1172853D02*
X141902Y1172853D01*
X141904Y1172851D01*
X142248Y1172878D01*
X142252Y1172882D01*
X142256Y1172879D01*
X142592Y1172960D01*
X142595Y1172965D01*
X142599Y1172963D01*
X142918Y1173095D01*
X142921Y1173100D01*
X142925Y1173098D01*
X143219Y1173278D01*
X143221Y1173283D01*
X143225Y1173283D01*
X143488Y1173507D01*
X143489Y1173512D01*
X143494Y1173512D01*
X143718Y1173775D01*
X143718Y1173781D01*
X143722Y1173781D01*
X143902Y1174075D01*
X143901Y1174081D01*
X143906Y1174082D01*
X144038Y1174401D01*
X144036Y1174407D01*
X144040Y1174408D01*
X144121Y1174744D01*
X144119Y1174750D01*
X144122Y1174752D01*
X144149Y1175096D01*
X144147Y1175099D01*
X144149Y1175100D01*
X144122Y1185244D01*
X144117Y1185251D01*
X144121Y1185256D01*
X144040Y1185592D01*
X144035Y1185595D01*
X144038Y1185599D01*
X143906Y1185918D01*
X143900Y1185921D01*
X143902Y1185925D01*
X143722Y1186219D01*
X143717Y1186221D01*
X143718Y1186225D01*
X143494Y1186488D01*
X143488Y1186489D01*
X143488Y1186494D01*
X143225Y1186718D01*
X143219Y1186718D01*
X143219Y1186722D01*
X142925Y1186902D01*
X142919Y1186901D01*
X142918Y1186906D01*
X142599Y1187038D01*
X142593Y1187036D01*
X142592Y1187040D01*
X142256Y1187121D01*
X142250Y1187119D01*
X142248Y1187122D01*
X141904Y1187149D01*
X141901Y1187148D01*
X141900Y1187149D01*
X137600Y1187149D01*
X137598Y1187147D01*
X137596Y1187149D01*
X137252Y1187122D01*
X137248Y1187118D01*
X137244Y1187121D01*
X136908Y1187040D01*
X136905Y1187035D01*
X136901Y1187038D01*
X136582Y1186906D01*
X136579Y1186900D01*
X136575Y1186902D01*
X136281Y1186722D01*
X136279Y1186717D01*
X136275Y1186718D01*
X136012Y1186494D01*
X136011Y1186488D01*
X136007Y1186488D01*
X135783Y1186225D01*
X135782Y1186219D01*
X135778Y1186219D01*
X135598Y1185925D01*
X135599Y1185919D01*
X135595Y1185918D01*
X135463Y1185599D01*
X135464Y1185593D01*
X135460Y1185592D01*
X135379Y1185256D01*
X135381Y1185250D01*
X135378Y1185248D01*
X135351Y1184904D01*
X135353Y1184901D01*
X135351Y1184900D01*
X135378Y1174756D01*
X135383Y1174749D01*
X135379Y1174744D01*
X135460Y1174408D01*
X135465Y1174405D01*
X135463Y1174401D01*
X135595Y1174082D01*
X135600Y1174079D01*
X135598Y1174075D01*
X135778Y1173781D01*
X135783Y1173779D01*
X135783Y1173775D01*
X136007Y1173512D01*
X136012Y1173511D01*
X136012Y1173507D01*
X136275Y1173283D01*
X136281Y1173282D01*
X136281Y1173278D01*
X136575Y1173098D01*
X136581Y1173099D01*
X136582Y1173095D01*
X136901Y1172963D01*
X136907Y1172964D01*
X136908Y1172960D01*
X137244Y1172879D01*
X137250Y1172881D01*
X137252Y1172878D01*
X137596Y1172851D01*
X137599Y1172853D01*
X137600Y1172851D01*
X141900Y1172851D01*
X141902Y1172853D01*
G37*
G36*
X430402Y883853D02*
X430402Y883853D01*
X430404Y883851D01*
X430748Y883878D01*
X430752Y883882D01*
X430756Y883879D01*
X431092Y883960D01*
X431095Y883965D01*
X431099Y883963D01*
X431418Y884095D01*
X431421Y884100D01*
X431425Y884098D01*
X431719Y884278D01*
X431721Y884283D01*
X431725Y884283D01*
X431988Y884507D01*
X431989Y884512D01*
X431994Y884512D01*
X432218Y884775D01*
X432218Y884781D01*
X432222Y884781D01*
X432402Y885075D01*
X432401Y885081D01*
X432406Y885082D01*
X432538Y885401D01*
X432536Y885407D01*
X432540Y885408D01*
X432621Y885744D01*
X432619Y885750D01*
X432622Y885752D01*
X432649Y886096D01*
X432647Y886099D01*
X432649Y886100D01*
X432622Y896244D01*
X432617Y896251D01*
X432621Y896256D01*
X432540Y896592D01*
X432535Y896595D01*
X432538Y896599D01*
X432406Y896918D01*
X432400Y896921D01*
X432402Y896925D01*
X432222Y897219D01*
X432217Y897221D01*
X432218Y897225D01*
X431994Y897488D01*
X431988Y897489D01*
X431988Y897494D01*
X431725Y897718D01*
X431719Y897718D01*
X431719Y897722D01*
X431425Y897902D01*
X431419Y897901D01*
X431418Y897906D01*
X431099Y898038D01*
X431093Y898036D01*
X431092Y898040D01*
X430756Y898121D01*
X430750Y898119D01*
X430748Y898122D01*
X430404Y898149D01*
X430401Y898148D01*
X430400Y898149D01*
X426100Y898149D01*
X426098Y898147D01*
X426096Y898149D01*
X425752Y898122D01*
X425748Y898118D01*
X425744Y898121D01*
X425408Y898040D01*
X425405Y898035D01*
X425401Y898038D01*
X425082Y897906D01*
X425079Y897900D01*
X425075Y897902D01*
X424781Y897722D01*
X424779Y897717D01*
X424775Y897718D01*
X424512Y897494D01*
X424511Y897488D01*
X424507Y897488D01*
X424283Y897225D01*
X424282Y897219D01*
X424278Y897219D01*
X424098Y896925D01*
X424099Y896919D01*
X424095Y896918D01*
X423963Y896599D01*
X423964Y896593D01*
X423960Y896592D01*
X423879Y896256D01*
X423881Y896250D01*
X423878Y896248D01*
X423851Y895904D01*
X423853Y895901D01*
X423851Y895900D01*
X423878Y885756D01*
X423883Y885749D01*
X423879Y885744D01*
X423960Y885408D01*
X423965Y885405D01*
X423963Y885401D01*
X424095Y885082D01*
X424100Y885079D01*
X424098Y885075D01*
X424278Y884781D01*
X424283Y884779D01*
X424283Y884775D01*
X424507Y884512D01*
X424512Y884511D01*
X424512Y884507D01*
X424775Y884283D01*
X424781Y884282D01*
X424781Y884278D01*
X425075Y884098D01*
X425081Y884099D01*
X425082Y884095D01*
X425401Y883963D01*
X425407Y883964D01*
X425408Y883960D01*
X425744Y883879D01*
X425750Y883881D01*
X425752Y883878D01*
X426096Y883851D01*
X426099Y883853D01*
X426100Y883851D01*
X430400Y883851D01*
X430402Y883853D01*
G37*
G36*
X272402Y772853D02*
X272402Y772853D01*
X272404Y772851D01*
X272748Y772878D01*
X272752Y772882D01*
X272756Y772879D01*
X273092Y772960D01*
X273095Y772965D01*
X273099Y772963D01*
X273418Y773095D01*
X273421Y773100D01*
X273425Y773098D01*
X273719Y773278D01*
X273721Y773283D01*
X273725Y773283D01*
X273988Y773507D01*
X273989Y773512D01*
X273994Y773512D01*
X274218Y773775D01*
X274218Y773781D01*
X274222Y773781D01*
X274402Y774075D01*
X274401Y774081D01*
X274406Y774082D01*
X274538Y774401D01*
X274536Y774407D01*
X274540Y774408D01*
X274621Y774744D01*
X274619Y774750D01*
X274622Y774752D01*
X274649Y775096D01*
X274647Y775099D01*
X274649Y775100D01*
X274622Y785244D01*
X274617Y785251D01*
X274621Y785256D01*
X274540Y785592D01*
X274535Y785595D01*
X274538Y785599D01*
X274406Y785918D01*
X274400Y785921D01*
X274402Y785925D01*
X274222Y786219D01*
X274217Y786221D01*
X274218Y786225D01*
X273994Y786488D01*
X273988Y786489D01*
X273988Y786494D01*
X273725Y786718D01*
X273719Y786718D01*
X273719Y786722D01*
X273425Y786902D01*
X273419Y786901D01*
X273418Y786906D01*
X273099Y787038D01*
X273093Y787036D01*
X273092Y787040D01*
X272756Y787121D01*
X272750Y787119D01*
X272748Y787122D01*
X272404Y787149D01*
X272401Y787148D01*
X272400Y787149D01*
X268100Y787149D01*
X268098Y787147D01*
X268096Y787149D01*
X267752Y787122D01*
X267748Y787118D01*
X267744Y787121D01*
X267408Y787040D01*
X267405Y787035D01*
X267401Y787038D01*
X267082Y786906D01*
X267079Y786900D01*
X267075Y786902D01*
X266781Y786722D01*
X266779Y786717D01*
X266775Y786718D01*
X266512Y786494D01*
X266511Y786488D01*
X266507Y786488D01*
X266283Y786225D01*
X266282Y786219D01*
X266278Y786219D01*
X266098Y785925D01*
X266099Y785919D01*
X266095Y785918D01*
X265963Y785599D01*
X265964Y785593D01*
X265960Y785592D01*
X265879Y785256D01*
X265881Y785250D01*
X265878Y785248D01*
X265851Y784904D01*
X265853Y784901D01*
X265851Y784900D01*
X265878Y774756D01*
X265883Y774749D01*
X265879Y774744D01*
X265960Y774408D01*
X265965Y774405D01*
X265963Y774401D01*
X266095Y774082D01*
X266100Y774079D01*
X266098Y774075D01*
X266278Y773781D01*
X266283Y773779D01*
X266283Y773775D01*
X266507Y773512D01*
X266512Y773511D01*
X266512Y773507D01*
X266775Y773283D01*
X266781Y773282D01*
X266781Y773278D01*
X267075Y773098D01*
X267081Y773099D01*
X267082Y773095D01*
X267401Y772963D01*
X267407Y772964D01*
X267408Y772960D01*
X267744Y772879D01*
X267750Y772881D01*
X267752Y772878D01*
X268096Y772851D01*
X268099Y772853D01*
X268100Y772851D01*
X272400Y772851D01*
X272402Y772853D01*
G37*
G36*
X122402Y1172853D02*
X122402Y1172853D01*
X122404Y1172851D01*
X122748Y1172878D01*
X122752Y1172882D01*
X122756Y1172879D01*
X123092Y1172960D01*
X123095Y1172965D01*
X123099Y1172963D01*
X123418Y1173095D01*
X123421Y1173100D01*
X123425Y1173098D01*
X123719Y1173278D01*
X123721Y1173283D01*
X123725Y1173283D01*
X123988Y1173507D01*
X123989Y1173512D01*
X123994Y1173512D01*
X124218Y1173775D01*
X124218Y1173781D01*
X124222Y1173781D01*
X124402Y1174075D01*
X124401Y1174081D01*
X124406Y1174082D01*
X124538Y1174401D01*
X124536Y1174407D01*
X124540Y1174408D01*
X124621Y1174744D01*
X124619Y1174750D01*
X124622Y1174752D01*
X124649Y1175096D01*
X124647Y1175099D01*
X124649Y1175100D01*
X124622Y1185244D01*
X124617Y1185251D01*
X124621Y1185256D01*
X124540Y1185592D01*
X124535Y1185595D01*
X124538Y1185599D01*
X124406Y1185918D01*
X124400Y1185921D01*
X124402Y1185925D01*
X124222Y1186219D01*
X124217Y1186221D01*
X124218Y1186225D01*
X123994Y1186488D01*
X123988Y1186489D01*
X123988Y1186494D01*
X123725Y1186718D01*
X123719Y1186718D01*
X123719Y1186722D01*
X123425Y1186902D01*
X123419Y1186901D01*
X123418Y1186906D01*
X123099Y1187038D01*
X123093Y1187036D01*
X123092Y1187040D01*
X122756Y1187121D01*
X122750Y1187119D01*
X122748Y1187122D01*
X122404Y1187149D01*
X122401Y1187148D01*
X122400Y1187149D01*
X118100Y1187149D01*
X118098Y1187147D01*
X118096Y1187149D01*
X117752Y1187122D01*
X117748Y1187118D01*
X117744Y1187121D01*
X117408Y1187040D01*
X117405Y1187035D01*
X117401Y1187038D01*
X117082Y1186906D01*
X117079Y1186900D01*
X117075Y1186902D01*
X116781Y1186722D01*
X116779Y1186717D01*
X116775Y1186718D01*
X116512Y1186494D01*
X116511Y1186488D01*
X116507Y1186488D01*
X116283Y1186225D01*
X116282Y1186219D01*
X116278Y1186219D01*
X116098Y1185925D01*
X116099Y1185919D01*
X116095Y1185918D01*
X115963Y1185599D01*
X115964Y1185593D01*
X115960Y1185592D01*
X115879Y1185256D01*
X115881Y1185250D01*
X115878Y1185248D01*
X115851Y1184904D01*
X115853Y1184901D01*
X115851Y1184900D01*
X115878Y1174756D01*
X115883Y1174749D01*
X115879Y1174744D01*
X115960Y1174408D01*
X115965Y1174405D01*
X115963Y1174401D01*
X116095Y1174082D01*
X116100Y1174079D01*
X116098Y1174075D01*
X116278Y1173781D01*
X116283Y1173779D01*
X116283Y1173775D01*
X116507Y1173512D01*
X116512Y1173511D01*
X116512Y1173507D01*
X116775Y1173283D01*
X116781Y1173282D01*
X116781Y1173278D01*
X117075Y1173098D01*
X117081Y1173099D01*
X117082Y1173095D01*
X117401Y1172963D01*
X117407Y1172964D01*
X117408Y1172960D01*
X117744Y1172879D01*
X117750Y1172881D01*
X117752Y1172878D01*
X118096Y1172851D01*
X118099Y1172853D01*
X118100Y1172851D01*
X122400Y1172851D01*
X122402Y1172853D01*
G37*
D10*
X175000Y550000D03*
X175000Y565000D03*
X175000Y580000D03*
X175000Y595000D03*
X175000Y610000D03*
X175000Y625000D03*
X175000Y640000D03*
X175000Y655000D03*
X175000Y670000D03*
X175000Y685000D03*
X175000Y700000D03*
X175000Y715000D03*
X175000Y730000D03*
D11*
X160000Y748750D03*
X145000Y748750D03*
X130000Y748750D03*
X115000Y748750D03*
X100000Y748750D03*
X85000Y748750D03*
X70000Y748750D03*
X55000Y748750D03*
D10*
X40000Y730000D03*
X40000Y715000D03*
X40000Y700000D03*
X40000Y685000D03*
X40000Y670000D03*
X40000Y655000D03*
X40000Y640000D03*
X40000Y625000D03*
X40000Y610000D03*
X40000Y595000D03*
X40000Y580000D03*
X40000Y565000D03*
X40000Y550000D03*
D12*
X364380Y585670D02*
X364380Y591130D01*
X364380Y585670D02*
X355620Y585670D01*
X355620Y591130D01*
X364380Y591130D01*
X364380Y590458D02*
X355620Y590458D01*
X355620Y574330D02*
X355620Y568870D01*
X355620Y574330D02*
X364380Y574330D01*
X364380Y568870D01*
X355620Y568870D01*
X355620Y573658D02*
X364380Y573658D01*
X324380Y585670D02*
X324380Y591130D01*
X324380Y585670D02*
X315620Y585670D01*
X315620Y591130D01*
X324380Y591130D01*
X324380Y590458D02*
X315620Y590458D01*
X315620Y574330D02*
X315620Y568870D01*
X315620Y574330D02*
X324380Y574330D01*
X324380Y568870D01*
X315620Y568870D01*
X315620Y573658D02*
X324380Y573658D01*
X145620Y838870D02*
X145620Y844330D01*
X154380Y844330D01*
X154380Y838870D01*
X145620Y838870D01*
X145620Y843658D02*
X154380Y843658D01*
X154380Y855670D02*
X154380Y861130D01*
X154380Y855670D02*
X145620Y855670D01*
X145620Y861130D01*
X154380Y861130D01*
X154380Y860458D02*
X145620Y860458D01*
D13*
X50500Y770000D03*
X29500Y770000D03*
D14*
X332000Y707620D03*
X340000Y707620D03*
X348000Y707620D03*
X356000Y707620D03*
X364000Y707620D03*
X372000Y707620D03*
X380000Y707620D03*
X388000Y707620D03*
D15*
X402380Y722000D03*
X402380Y730000D03*
X402380Y738000D03*
X402380Y746000D03*
X402380Y754000D03*
X402380Y762000D03*
X402380Y770000D03*
X402380Y778000D03*
D14*
X388000Y792380D03*
X380000Y792380D03*
X372000Y792380D03*
X364000Y792380D03*
X356000Y792380D03*
X348000Y792380D03*
X340000Y792380D03*
X332000Y792380D03*
D15*
X317620Y778000D03*
X317620Y770000D03*
X317620Y762000D03*
X317620Y754000D03*
X317620Y746000D03*
X317620Y738000D03*
X317620Y730000D03*
X317620Y722000D03*
D16*
X15118Y728118D02*
X15118Y732382D01*
X24882Y732382D01*
X24882Y728118D01*
X15118Y728118D01*
X15118Y732333D02*
X24882Y732333D01*
X24882Y747618D02*
X24882Y751882D01*
X24882Y747618D02*
X15118Y747618D01*
X15118Y751882D01*
X24882Y751882D01*
X24882Y751833D02*
X15118Y751833D01*
D17*
X400000Y578500D03*
X400000Y641500D03*
D18*
X493000Y875500D03*
X493000Y792500D03*
D12*
X445620Y624330D02*
X445620Y618870D01*
X445620Y624330D02*
X454380Y624330D01*
X454380Y618870D01*
X445620Y618870D01*
X445620Y623658D02*
X454380Y623658D01*
X454380Y635670D02*
X454380Y641130D01*
X454380Y635670D02*
X445620Y635670D01*
X445620Y641130D01*
X454380Y641130D01*
X454380Y640458D02*
X445620Y640458D01*
D19*
X167120Y1010950D03*
X167120Y1023650D03*
X167120Y1036350D03*
X167120Y1049050D03*
X112880Y1049050D03*
X112880Y1036350D03*
X112880Y1023650D03*
X112880Y1010950D03*
D20*
X140000Y1030000D03*
D21*
X321500Y630000D03*
X358500Y630000D03*
D16*
X122382Y1184882D02*
X118118Y1184882D01*
X122382Y1184882D02*
X122382Y1175118D01*
X118118Y1175118D01*
X118118Y1184882D01*
X118118Y1179333D02*
X122382Y1179333D01*
X122382Y1183548D02*
X118118Y1183548D01*
X137618Y1175118D02*
X141882Y1175118D01*
X137618Y1175118D02*
X137618Y1184882D01*
X141882Y1184882D01*
X141882Y1175118D01*
X141882Y1179333D02*
X137618Y1179333D01*
X137618Y1183548D02*
X141882Y1183548D01*
X64882Y1101882D02*
X64882Y1097618D01*
X55118Y1097618D01*
X55118Y1101882D01*
X64882Y1101882D01*
X64882Y1101833D02*
X55118Y1101833D01*
X55118Y1082382D02*
X55118Y1078118D01*
X55118Y1082382D02*
X64882Y1082382D01*
X64882Y1078118D01*
X55118Y1078118D01*
X55118Y1082333D02*
X64882Y1082333D01*
X34882Y1097618D02*
X34882Y1101882D01*
X34882Y1097618D02*
X25118Y1097618D01*
X25118Y1101882D01*
X34882Y1101882D01*
X34882Y1101833D02*
X25118Y1101833D01*
X25118Y1082382D02*
X25118Y1078118D01*
X25118Y1082382D02*
X34882Y1082382D01*
X34882Y1078118D01*
X25118Y1078118D01*
X25118Y1082333D02*
X34882Y1082333D01*
D12*
X78870Y1184380D02*
X84330Y1184380D01*
X84330Y1175620D01*
X78870Y1175620D01*
X78870Y1184380D01*
X78870Y1180408D02*
X84330Y1180408D01*
X95670Y1175620D02*
X101130Y1175620D01*
X95670Y1175620D02*
X95670Y1184380D01*
X101130Y1184380D01*
X101130Y1175620D01*
X101130Y1180408D02*
X95670Y1180408D01*
X94380Y1121130D02*
X94380Y1115670D01*
X85620Y1115670D01*
X85620Y1121130D01*
X94380Y1121130D01*
X94380Y1120458D02*
X85620Y1120458D01*
X85620Y1104330D02*
X85620Y1098870D01*
X85620Y1104330D02*
X94380Y1104330D01*
X94380Y1098870D01*
X85620Y1098870D01*
X85620Y1103658D02*
X94380Y1103658D01*
D16*
X215118Y1082382D02*
X215118Y1078118D01*
X215118Y1082382D02*
X224882Y1082382D01*
X224882Y1078118D01*
X215118Y1078118D01*
X215118Y1082333D02*
X224882Y1082333D01*
X224882Y1097618D02*
X224882Y1101882D01*
X224882Y1097618D02*
X215118Y1097618D01*
X215118Y1101882D01*
X224882Y1101882D01*
X224882Y1101833D02*
X215118Y1101833D01*
D13*
X30000Y1160500D03*
X30000Y1139500D03*
X60000Y1160500D03*
X60000Y1139500D03*
D12*
X215670Y735620D02*
X221130Y735620D01*
X215670Y735620D02*
X215670Y744380D01*
X221130Y744380D01*
X221130Y735620D01*
X221130Y740408D02*
X215670Y740408D01*
X204330Y744380D02*
X198870Y744380D01*
X204330Y744380D02*
X204330Y735620D01*
X198870Y735620D01*
X198870Y744380D01*
X198870Y740408D02*
X204330Y740408D01*
D16*
X287618Y775118D02*
X291882Y775118D01*
X287618Y775118D02*
X287618Y784882D01*
X291882Y784882D01*
X291882Y775118D01*
X291882Y779333D02*
X287618Y779333D01*
X287618Y783548D02*
X291882Y783548D01*
X272382Y784882D02*
X268118Y784882D01*
X272382Y784882D02*
X272382Y775118D01*
X268118Y775118D01*
X268118Y784882D01*
X268118Y779333D02*
X272382Y779333D01*
X272382Y783548D02*
X268118Y783548D01*
D13*
X229500Y780000D03*
X250500Y780000D03*
D22*
X20000Y986840D03*
X20000Y913160D03*
D23*
X47000Y950000D03*
X47000Y956500D03*
X47000Y937000D03*
X47000Y943500D03*
X47000Y963000D03*
D24*
X306500Y1144000D03*
X331900Y1174000D03*
X357300Y1144000D03*
X382700Y1174000D03*
X408100Y1144000D03*
X433500Y1174000D03*
D25*
X434500Y739000D03*
X453500Y739000D03*
X444000Y760000D03*
D16*
X445618Y886118D02*
X449882Y886118D01*
X445618Y886118D02*
X445618Y895882D01*
X449882Y895882D01*
X449882Y886118D01*
X449882Y890333D02*
X445618Y890333D01*
X445618Y894548D02*
X449882Y894548D01*
X430382Y895882D02*
X426118Y895882D01*
X430382Y895882D02*
X430382Y886118D01*
X426118Y886118D01*
X426118Y895882D01*
X426118Y890333D02*
X430382Y890333D01*
X430382Y894548D02*
X426118Y894548D01*
X334882Y1115618D02*
X334882Y1119882D01*
X334882Y1115618D02*
X325118Y1115618D01*
X325118Y1119882D01*
X334882Y1119882D01*
X334882Y1119833D02*
X325118Y1119833D01*
X325118Y1100382D02*
X325118Y1096118D01*
X325118Y1100382D02*
X334882Y1100382D01*
X334882Y1096118D01*
X325118Y1096118D01*
X325118Y1100333D02*
X334882Y1100333D01*
X361882Y1117618D02*
X361882Y1121882D01*
X361882Y1117618D02*
X352118Y1117618D01*
X352118Y1121882D01*
X361882Y1121882D01*
X361882Y1121833D02*
X352118Y1121833D01*
X352118Y1102382D02*
X352118Y1098118D01*
X352118Y1102382D02*
X361882Y1102382D01*
X361882Y1098118D01*
X352118Y1098118D01*
X352118Y1102333D02*
X361882Y1102333D01*
D12*
X405870Y1112380D02*
X411330Y1112380D01*
X411330Y1103620D01*
X405870Y1103620D01*
X405870Y1112380D01*
X405870Y1108408D02*
X411330Y1108408D01*
X422670Y1103620D02*
X428130Y1103620D01*
X422670Y1103620D02*
X422670Y1112380D01*
X428130Y1112380D01*
X428130Y1103620D01*
X428130Y1108408D02*
X422670Y1108408D01*
M02*
