M48
;GenerationSoftware,Autodesk,EAGLE,9.6.2*%
;CreationDate,2021-04-15T22:43:30Z*%
FMAT,2
ICI,OFF
METRIC,TZ,000.000
T7C0.250
T6C0.350
T5C0.800
T4C0.850
T3C1.020
T2C1.118
T1C2.800
%
G90
M71
T1
X25000Y60000
X24800Y115700
X4200Y86000
T2
X16000Y114540
X16000Y109460
T3
X50800Y69510
X50800Y66970
X50800Y64430
X50800Y61890
T4
X4200Y96900
X4200Y93100
T5
X34050Y94540
X34050Y101260
X42150Y97900
X32650Y97900
X53200Y81150
X47050Y87300
X40750Y94540
X40750Y101260
T6
X19300Y118200
X19900Y115600
X21700Y112800
X24000Y111300
X24800Y109800
X10900Y116300
X10200Y114700
X12300Y115900
X7700Y113300
X7400Y110900
X7900Y108000
X7800Y105200
X4500Y115200
X4400Y112800
X4400Y107200
X1500Y103900
X2900Y102100
X5200Y99800
X7300Y99800
X1900Y100500
X7200Y98500
X6000Y98400
X14300Y116100
X18100Y116000
X21400Y118600
X24900Y107000
X25000Y103100
X24700Y80200
X28200Y80200
X30900Y80200
X35900Y84800
X24700Y76000
X26500Y76000
X23700Y73500
X27300Y72100
X24000Y69400
X27300Y69400
X24000Y66500
X27300Y66600
X24000Y64000
X27300Y64100
X30000Y70900
X30900Y68100
X30200Y64100
X30200Y60200
X39500Y66500
X42200Y68100
X44200Y68100
X4400Y110800
X47200Y64800
X49100Y63100
X42200Y66500
X46700Y63100
X46700Y60100
X49200Y60100
X49200Y57700
X46700Y57700
X43700Y57700
X43700Y55500
X46700Y55500
X49200Y55500
X40400Y55500
X37000Y55500
X33500Y55500
X30200Y55500
X27900Y55500
X52000Y55500
X52000Y57700
X11500Y112600
X13800Y112600
X11500Y109800
X13800Y109800
X19300Y112600
X19300Y108900
X20400Y110700
X18800Y106400
X16200Y106400
X13800Y106400
X10700Y106400
X17700Y110900
X44200Y66500
X7700Y115900
X39000Y81000
X1800Y118600
X3700Y118600
X5600Y118600
X1700Y116600
X16100Y118300
X17700Y113100
T7
X43500Y84800
X43700Y81800
X34300Y76500
X34300Y73100
X37600Y73100
X37400Y76500
X34000Y105700
X35500Y98500
X37200Y86000
X21800Y76500
X24000Y102000
X37000Y69000
X33000Y69000
X10000Y98000
X19000Y105000
X43300Y63900
X38800Y110700
X6500Y96300
X40700Y87000
X30000Y58000
X29000Y73000
X16000Y82000
X23000Y76000
X45700Y71700
X48300Y69200
X46100Y76700
X44400Y79300
M30